<?xml version="1.0" standalone="no"?>
<!DOCTYPE svg PUBLIC "-//W3C//DTD SVG 20010904//EN"
 "http://www.w3.org/TR/2001/REC-SVG-20010904/DTD/svg10.dtd">
<svg version="1.0" xmlns="http://www.w3.org/2000/svg"
 width="588.000000pt" height="159.000000pt" viewBox="0 0 588.000000 159.000000"
 preserveAspectRatio="xMidYMid meet">

<g transform="translate(0.000000,159.000000) scale(0.100000,-0.100000)"
fill="#000000" stroke="none">
<path d="M2520 1579 c-312 -19 -704 -66 -945 -115 -539 -109 -805 -254 -805
-437 0 -47 20 -79 94 -151 79 -75 99 -117 113 -228 5 -44 -11 -133 -26 -143
-4 -2 -25 0 -47 5 -21 4 -65 14 -97 20 -42 8 -70 21 -95 45 -126 113 -173 114
-318 7 -33 -24 -108 -73 -169 -108 -164 -98 -215 -154 -215 -239 0 -62 37
-113 110 -151 28 -14 60 -18 160 -19 116 0 130 -3 190 -29 47 -21 86 -31 140
-34 l75 -4 -19 21 c-32 35 -135 80 -236 102 -104 23 -206 27 -223 10 -6 -6
-29 -11 -50 -11 -31 0 -46 7 -73 34 -29 29 -34 41 -34 82 0 131 115 172 227
82 60 -48 88 -56 268 -72 251 -23 343 -52 384 -122 27 -45 47 -34 37 20 -8 43
-41 70 -105 87 l-48 12 70 91 c124 163 147 229 123 357 -9 45 -14 84 -12 87 2
2 31 -11 65 -28 82 -41 182 -72 391 -119 418 -95 622 -120 1017 -128 l312 -6
-5 -27 c-9 -41 37 -90 84 -90 48 0 59 9 64 45 3 34 15 38 32 13 8 -13 8 -23 0
-36 -9 -14 -8 -27 4 -58 15 -39 18 -84 11 -200 -5 -76 22 -144 56 -144 l22 0
-24 47 c-22 43 -24 55 -18 118 4 39 7 81 7 95 -5 264 -11 294 -58 306 -39 10
-58 -16 -64 -89 -4 -53 -8 -62 -26 -65 -11 -2 -28 6 -39 18 -16 17 -17 25 -7
59 7 21 12 51 12 66 0 28 -28 85 -42 85 -4 0 -8 5 -8 10 0 15 41 12 59 -4 10
-9 23 -11 36 -6 11 5 14 9 7 9 -7 1 -20 8 -28 16 -20 20 -73 20 -80 0 -8 -21
-74 -21 -74 0 0 13 -25 15 -168 15 -230 0 -352 9 -352 26 0 10 -18 14 -67 14
-38 0 -95 5 -128 10 -33 6 -112 17 -175 25 -63 8 -164 23 -225 34 -60 11 -114
16 -120 11 -14 -11 -97 3 -209 36 -75 22 -180 60 -194 70 -2 1 -1 16 2 31 6
26 10 29 36 25 17 -2 28 -8 25 -12 -3 -4 2 -13 10 -20 18 -15 71 -9 68 8 -2 6
4 12 12 12 25 0 77 43 63 51 -7 4 -19 4 -27 -1 -9 -4 -47 -11 -86 -14 l-70 -7
35 20 c19 11 50 20 68 21 22 0 32 5 32 15 0 11 13 15 54 15 34 0 58 5 66 14
12 15 22 14 79 -11 31 -14 35 -14 60 5 14 10 28 27 30 38 3 15 1 16 -12 6 -12
-11 -18 -6 -36 28 l-21 40 58 0 c35 0 74 8 101 21 40 18 47 18 75 5 56 -26
147 -39 220 -32 l69 8 -22 21 c-21 21 -21 21 -35 2 -13 -18 -15 -19 -21 -3 -4
10 -20 24 -36 32 -27 14 -29 13 -30 -7 -1 -14 -5 -8 -11 16 -6 20 -14 37 -19
37 -5 0 -9 9 -9 20 0 11 -4 20 -9 20 -9 0 -21 -47 -21 -89 -1 -23 -2 -24 -11
-8 -6 11 -8 33 -5 49 5 26 4 29 -9 18 -8 -7 -15 -25 -15 -41 0 -33 -14 -38
-29 -11 -19 35 70 101 164 122 38 9 62 7 132 -10 47 -11 106 -29 131 -40 54
-24 76 -26 68 -5 -4 13 10 15 97 15 56 0 130 6 164 14 58 11 64 11 79 -5 29
-33 112 -53 214 -54 78 0 95 3 95 15 0 8 -6 14 -14 12 -7 -2 -22 5 -32 14 -18
16 -19 16 -19 -2 0 -17 -2 -16 -19 5 -10 13 -23 21 -30 17 -6 -4 -11 -2 -11 4
0 6 -4 9 -9 6 -4 -3 -6 -18 -3 -32 3 -19 1 -25 -7 -20 -6 4 -11 20 -11 37 0
16 -4 29 -10 29 -5 0 -10 -11 -10 -25 0 -14 -4 -25 -10 -25 -5 0 -10 11 -10
25 0 14 -4 25 -10 25 -5 0 -10 -12 -10 -26 0 -14 -4 -23 -10 -19 -5 3 -10 21
-10 39 0 29 4 34 31 40 61 12 143 6 188 -14 35 -16 55 -19 112 -14 54 6 69 4
69 -7 0 -10 3 -10 12 -1 18 18 109 15 233 -7 147 -26 399 -42 460 -29 71 15
166 1 233 -33 64 -34 164 -59 233 -59 26 0 82 7 125 16 93 19 142 14 220 -23
40 -19 66 -40 88 -71 24 -35 47 -52 105 -78 40 -19 81 -34 91 -34 9 0 29 -9
43 -20 34 -27 62 -25 120 6 45 24 50 24 72 10 13 -9 29 -33 35 -54 10 -32 9
-46 -9 -92 -27 -72 -27 -101 4 -130 31 -29 34 -95 6 -156 -15 -33 -25 -42 -49
-46 -75 -11 -93 25 -63 122 28 89 27 113 -10 155 -22 25 -39 35 -61 35 -19 0
-37 9 -51 25 -17 20 -33 26 -69 27 -52 3 -71 -10 -119 -76 -35 -47 -36 -77 -7
-124 21 -35 21 -35 2 -90 -10 -31 -17 -67 -16 -80 3 -15 -5 -32 -22 -47 -30
-28 -31 -40 -12 -113 15 -54 9 -99 -15 -128 -17 -20 -37 -17 -64 11 -19 18
-25 35 -25 67 -1 54 -18 78 -58 78 -38 0 -44 17 -36 92 6 55 6 58 -16 58 -12
0 -33 -9 -47 -20 -33 -26 -65 -25 -88 0 -17 19 -17 25 -6 71 30 118 -20 160
-154 129 -32 -7 -515 -70 -539 -70 -3 0 -6 5 -6 10 0 6 15 10 33 10 30 0 284
31 375 46 23 4 45 11 48 16 3 5 -5 7 -18 4 -39 -9 -167 -26 -313 -41 -77 -8
-162 -19 -189 -24 -28 -5 -78 -6 -112 -3 -40 3 -64 1 -68 -7 -4 -6 0 -11 9
-11 9 0 13 -5 10 -10 -3 -6 -15 -10 -26 -10 -33 0 -76 -51 -84 -98 -6 -36 -12
-45 -40 -56 -42 -18 -48 -38 -30 -106 19 -71 19 -95 -2 -126 -13 -21 -17 -52
-18 -145 -1 -107 0 -119 16 -119 16 0 18 11 17 110 0 88 3 115 17 136 17 27
17 57 -1 166 -6 34 -4 39 19 47 14 6 33 22 43 36 15 23 22 25 98 25 131 0 393
19 503 36 112 17 156 14 80 -6 -56 -15 -79 -37 -26 -26 19 4 50 9 69 10 19 2
46 6 59 11 16 5 21 4 17 -4 -4 -6 -14 -11 -22 -11 -8 0 -14 -5 -14 -11 0 -6 8
-8 18 -5 18 5 78 20 125 30 15 4 27 3 27 -2 0 -5 -30 -14 -67 -21 -38 -8 -72
-17 -78 -21 -24 -17 -55 -18 -65 -2 -9 15 -9 16 -10 1 0 -20 -79 -36 -90 -19
-5 8 -9 7 -13 -3 -7 -20 -67 -28 -74 -10 -5 11 -7 11 -17 0 -18 -23 -74 -29
-84 -11 -8 15 -10 15 -15 0 -9 -23 -47 -21 -47 3 0 11 -4 23 -10 26 -6 4 -10
-7 -10 -25 0 -25 -4 -31 -17 -28 -10 2 -17 11 -17 21 1 9 -2 17 -7 17 -5 0 -9
-9 -9 -20 0 -15 -7 -20 -25 -20 -20 0 -25 5 -25 25 0 14 -4 25 -10 25 -5 0
-10 -13 -10 -30 0 -25 -4 -30 -25 -30 -18 0 -25 5 -25 20 0 11 -4 20 -10 20
-5 0 -10 -9 -10 -20 0 -33 -46 -27 -58 8 l-10 27 -1 -27 c-1 -21 -6 -28 -21
-28 -17 0 -20 7 -20 40 0 22 -4 40 -10 40 -5 0 -7 -13 -4 -30 4 -17 1 -36 -5
-44 -8 -10 -9 -16 -1 -21 20 -12 10 -35 -14 -35 -14 0 -28 -4 -31 -10 -4 -6 6
-10 24 -10 20 0 31 -6 34 -18 4 -16 5 -16 6 1 1 18 51 26 51 7 0 -5 5 -10 10
-10 6 0 10 7 10 15 0 17 31 20 47 4 8 -8 13 -8 17 0 4 6 16 11 27 11 14 0 19
-7 19 -26 0 -21 3 -25 18 -19 9 5 59 9 110 11 52 1 96 5 99 8 4 3 23 6 44 6
33 0 39 -3 48 -32 9 -28 41 -171 41 -184 0 -2 -9 -4 -20 -4 -27 0 -25 -18 3
-22 17 -2 22 -10 22 -33 0 -29 -2 -30 -47 -33 -27 -2 -48 -8 -48 -13 0 -6 20
-7 51 -3 38 5 53 3 60 -7 8 -12 11 -11 20 4 7 12 23 17 52 17 49 0 269 32 375
55 40 8 75 15 77 15 2 0 6 -19 10 -41 5 -30 3 -44 -6 -50 -26 -16 16 -10 133
20 62 16 129 31 148 33 32 3 35 0 38 -24 2 -19 -2 -28 -15 -31 -10 -3 10 -5
44 -6 34 0 74 4 89 9 20 8 29 8 35 -2 15 -24 23 3 11 35 -11 28 -10 34 5 45
15 11 11 16 -9 13 -5 0 -8 4 -8 10 0 6 8 9 17 7 10 -2 24 -25 36 -60 18 -55
20 -58 52 -58 l33 0 -14 47 c-19 62 -38 82 -29 31 8 -44 -6 -51 -23 -13 -16
35 -15 45 8 92 33 68 48 73 394 113 186 21 247 39 296 84 32 30 83 56 109 56
31 0 89 -57 103 -101 10 -35 9 -43 -8 -66 -34 -45 -82 -65 -139 -57 -27 3 -63
6 -79 5 -28 0 -28 0 -10 15 18 15 18 15 -6 11 -45 -8 -224 -57 -249 -68 -19
-8 -22 -12 -11 -19 9 -6 1 -14 -31 -30 -51 -26 -99 -68 -99 -87 0 -15 38 -17
60 -3 9 6 17 5 21 -2 4 -7 19 3 38 24 57 65 139 91 334 108 93 7 126 14 154
31 77 48 94 131 45 210 -39 62 -81 94 -149 115 -36 11 -110 53 -195 111 -184
123 -233 131 -315 47 -23 -24 -47 -44 -53 -44 -6 0 -9 23 -8 58 3 51 0 62 -24
91 -32 38 -33 46 -13 94 19 46 19 134 0 167 -8 14 -14 41 -15 60 -1 121 -53
176 -240 253 -316 131 -730 210 -1285 247 -177 11 -818 11 -1025 -1z m950 -39
c537 -27 873 -77 1184 -177 268 -85 386 -163 386 -253 0 -33 -3 -40 -19 -40
-11 0 -26 -2 -33 -5 -10 -4 -18 6 -26 31 -6 21 -9 41 -7 45 3 4 -2 20 -10 35
-8 16 -15 35 -15 42 0 17 -15 15 -35 -4 -15 -15 -17 -15 -30 2 -33 46 -43 54
-85 69 -25 8 -47 17 -50 18 -3 1 -7 -2 -8 -8 -2 -5 17 -17 43 -25 26 -9 51
-23 56 -31 6 -12 -14 -7 -74 17 -45 19 -97 36 -114 40 -19 3 -33 12 -33 20 0
8 -6 14 -14 14 -8 0 -21 9 -29 20 -9 13 -20 18 -31 14 -15 -6 -15 -7 1 -19 29
-22 10 -26 -43 -11 -61 18 -196 44 -301 56 -43 6 -110 14 -149 19 -140 19
-444 40 -734 50 -162 6 -338 13 -390 15 -52 2 -156 1 -230 -3 -108 -7 -137 -5
-148 5 -17 18 -32 18 -32 0 0 -14 -42 -26 -91 -26 -19 0 -29 5 -29 14 0 8 -5
18 -12 22 -7 5 -9 1 -6 -13 5 -19 -2 -21 -91 -31 -130 -15 -239 -23 -221 -15
55 22 68 26 93 24 31 -3 35 6 10 24 -14 10 -22 9 -47 -6 -34 -21 -66 -25 -66
-9 0 6 -5 10 -11 10 -7 0 -9 -10 -7 -25 5 -21 1 -25 -26 -29 -17 -3 -93 -15
-170 -26 -76 -12 -146 -24 -155 -27 -14 -4 -14 -3 -1 6 12 9 12 11 -2 16 -27
11 -53 1 -50 -18 2 -9 -3 -17 -11 -17 -8 0 -29 -3 -47 -7 -24 -4 -31 -3 -26 5
5 8 -3 12 -24 12 -24 0 -30 -4 -28 -17 2 -13 -8 -19 -46 -26 -32 -5 -53 -4
-60 3 -14 14 -26 13 -20 -3 3 -9 -12 -17 -48 -26 -29 -8 -93 -27 -143 -43 -49
-17 -108 -31 -130 -33 -22 -1 -42 -4 -45 -5 -3 -1 -15 -1 -27 0 -26 2 -28 -3
-13 -31 9 -15 7 -21 -5 -25 -22 -9 -18 -27 5 -21 24 6 26 -10 5 -33 -9 -10
-18 -33 -22 -53 l-5 -35 43 2 c41 1 44 -1 41 -23 -1 -13 3 -30 9 -38 42 -50
-61 4 -133 70 -34 31 -38 40 -36 78 1 36 7 50 34 76 89 84 512 230 818 283
146 25 152 25 159 0 3 -11 10 -20 16 -20 7 0 9 9 5 24 -5 21 -2 24 38 29 91
12 390 38 533 46 219 12 790 12 1015 1z m-235 -105 c6 -2 -16 -4 -47 -4 -32
-1 -58 3 -58 8 0 8 79 5 105 -4z m-362 -5 c105 0 127 -3 127 -15 0 -29 -108
-37 -177 -13 -29 10 -68 18 -88 18 -19 0 -35 5 -35 11 0 7 9 9 23 5 12 -3 79
-6 150 -6z m-513 -9 c0 -12 -20 -25 -27 -18 -7 7 6 27 18 27 5 0 9 -4 9 -9z
m65 -1 c-3 -5 -15 -10 -26 -10 -11 0 -17 5 -14 10 3 6 15 10 26 10 11 0 17 -4
14 -10z m625 -5 c0 -8 -7 -15 -15 -15 -16 0 -20 12 -8 23 11 12 23 8 23 -8z
m-745 -5 c-3 -5 -24 -10 -46 -10 -21 0 -39 5 -39 10 0 6 21 10 46 10 27 0 43
-4 39 -10z m907 4 c24 -4 38 -13 41 -26 5 -18 1 -18 -56 -12 -71 8 -77 10 -77
30 0 15 30 18 92 8z m216 -22 c25 -32 15 -48 -29 -44 -32 3 -42 9 -50 29 -5
13 -9 28 -9 33 0 14 74 -1 88 -18z m-1279 8 c-19 -11 -227 -26 -218 -16 7 7
132 23 194 24 30 1 36 -1 24 -8z m416 0 c-3 -5 -10 -10 -16 -10 -5 0 -9 5 -9
10 0 6 7 10 16 10 8 0 12 -4 9 -10z m751 -6 c18 -15 18 -15 -6 -10 -14 3 -29
6 -33 6 -5 0 -5 5 -2 10 9 14 18 13 41 -6z m160 8 c11 -7 34 -45 34 -56 0 -3
-9 -6 -19 -6 -15 0 -41 41 -41 66 0 6 14 4 26 -4z m269 -2 c16 -7 14 -9 -15
-9 -19 0 -42 4 -50 9 -11 7 -8 10 15 9 17 0 39 -4 50 -9z m-1235 -14 c0 -14
-37 -33 -46 -23 -2 2 -2 12 2 21 8 20 44 21 44 2z m-107 -16 c-6 -23 -43 -28
-43 -6 0 12 12 20 42 25 3 0 4 -8 1 -19z m41 5 c-4 -8 -10 -15 -15 -15 -4 0
-6 7 -3 15 4 8 10 15 15 15 4 0 6 -7 3 -15z m1116 6 c0 -5 3 -16 6 -25 9 -23
-23 -20 -36 3 -14 27 -13 31 10 31 11 0 20 -4 20 -9z m218 -7 c42 -4 72 -12
72 -18 0 -7 -41 -11 -125 -11 -101 0 -128 3 -135 15 -18 28 -10 33 53 27 34
-3 95 -9 135 -13z m-1438 -14 c0 -11 -6 -20 -13 -20 -19 0 -27 10 -20 26 8 21
33 17 33 -6z m-190 -12 c0 -21 -18 -22 -71 -6 -56 16 -48 28 16 25 45 -2 55
-5 55 -19z m80 12 c0 -5 -4 -10 -10 -10 -5 0 -10 5 -10 10 0 6 5 10 10 10 6 0
10 -4 10 -10z m-510 -29 c-19 -16 -36 -28 -38 -27 -8 8 13 39 32 46 39 16 41
10 6 -19z m870 22 c-1 -19 -16 -31 -29 -24 -7 5 -10 14 -7 20 8 12 36 15 36 4z
m1305 -3 c3 -5 1 -10 -4 -10 -6 0 -11 5 -11 10 0 6 2 10 4 10 3 0 8 -4 11 -10z
m145 -10 c11 -11 20 -24 20 -29 0 -5 3 -16 6 -25 13 -33 -35 -17 -58 19 -13
19 -31 35 -40 35 -10 0 -18 5 -18 10 0 19 69 11 90 -10z m101 -27 c15 -49 19
-54 29 -48 5 3 4 19 -2 36 -15 44 -1 49 17 6 21 -50 19 -57 -14 -57 -24 0 -31
6 -45 40 -18 46 -20 60 -7 60 5 0 15 -17 22 -37z m-2477 12 c-7 -17 -20 -20
-28 -6 -3 5 -16 7 -29 4 -18 -4 -19 -3 -7 6 8 6 27 11 42 11 20 0 26 -4 22
-15z m2431 -15 c17 -33 19 -50 6 -50 -5 0 -13 18 -19 40 -12 48 -8 51 13 10z
m-2535 10 c0 -5 -5 -10 -11 -10 -5 0 -7 5 -4 10 3 6 8 10 11 10 2 0 4 -4 4
-10z m2670 -16 c12 -31 13 -44 2 -44 -5 0 -13 16 -19 35 -13 41 2 49 17 9z
m138 0 c24 -7 50 -10 58 -7 8 3 46 -3 85 -13 64 -17 73 -22 90 -56 26 -51 24
-53 -18 -20 -21 16 -64 39 -96 52 -51 20 -69 22 -143 16 -46 -3 -84 -3 -84 1
0 5 -3 18 -6 31 -6 22 -5 23 32 16 22 -4 59 -13 82 -20z m-2908 -13 c-8 -5
-46 -14 -85 -21 -38 -7 -77 -15 -85 -18 -8 -3 -19 -6 -25 -7 -5 -1 -27 -9 -49
-18 -21 -9 -41 -17 -44 -17 -2 0 -11 -8 -18 -17 -7 -10 -16 -15 -20 -11 -4 5
1 17 11 28 17 19 74 39 205 74 62 16 134 21 110 7z m175 -24 c-7 -27 -32 -54
-41 -45 -2 3 5 22 17 42 24 41 33 42 24 3z m-105 -17 c-19 -46 -5 -47 22 -1
13 22 29 41 36 41 17 0 16 -5 -14 -50 -24 -37 -30 -40 -70 -40 -24 0 -44 5
-44 10 0 6 7 10 15 10 8 0 15 4 15 9 0 13 42 63 47 57 3 -3 0 -19 -7 -36z
m-95 -17 c-7 -21 -18 -39 -24 -41 -14 -5 -14 -1 4 42 20 47 36 47 20 -1z m-35
7 c0 -5 -4 -10 -10 -10 -5 0 -10 5 -10 10 0 6 5 10 10 10 6 0 10 -4 10 -10z
m-56 -42 c-10 -18 -19 -27 -22 -20 -4 14 26 67 35 59 2 -3 -3 -20 -13 -39z
m3318 -26 c10 -34 23 -62 28 -62 13 0 13 -2 -6 53 -24 72 -11 79 16 8 13 -36
19 -66 14 -71 -14 -13 -66 0 -60 16 3 7 -4 39 -14 69 -12 34 -15 55 -8 53 6
-2 19 -32 30 -66z m-3368 -3 c-10 -23 -19 -38 -21 -33 -4 13 26 88 33 81 3 -2
-3 -24 -12 -48z m-24 31 c0 -21 -29 -80 -39 -80 -14 0 -14 2 5 50 15 37 34 54
34 30z m3478 -52 c24 -69 28 -98 11 -81 -5 5 -16 32 -23 59 -8 27 -17 57 -21
67 -4 9 -3 17 2 17 5 0 19 -28 31 -62z m72 42 c0 -5 -2 -10 -4 -10 -3 0 -8 5
-11 10 -3 6 -1 10 4 10 6 0 11 -4 11 -10z m-3600 -4 c0 -1 -5 -17 -11 -34 -12
-34 -78 -76 -104 -66 -8 4 -23 0 -32 -7 -15 -13 -16 -11 -10 11 4 14 7 28 7
33 0 4 6 7 14 7 8 0 16 6 19 14 7 18 117 58 117 42z m3571 -12 c32 -16 68 -81
69 -123 0 -23 -1 -23 -19 -7 -10 9 -24 16 -31 14 -15 -3 -30 53 -23 83 4 12 0
19 -10 19 -8 0 -17 7 -21 15 -7 19 -2 19 35 -1z m69 -4 c0 -5 -2 -10 -4 -10
-3 0 -8 5 -11 10 -3 6 -1 10 4 10 6 0 11 -4 11 -10z m-3420 -52 c-1 -35 -3
-39 -11 -25 -6 9 -14 15 -20 12 -5 -4 -9 3 -9 14 0 26 -9 27 -26 4 -7 -10 -16
-14 -21 -10 -11 12 37 47 65 47 19 0 22 -5 22 -42z m-404 -35 c-10 -10 -19 5
-10 18 6 11 8 11 12 0 2 -7 1 -15 -2 -18z m3878 5 c3 -13 6 -32 6 -43 0 -16
-3 -14 -15 9 -8 15 -15 35 -15 42 0 22 17 16 24 -8z m-3614 2 c0 -5 -11 -10
-25 -10 -14 0 -25 5 -25 10 0 6 11 10 25 10 14 0 25 -4 25 -10z m-175 -50 c-3
-5 -11 -10 -16 -10 -6 0 -7 5 -4 10 3 6 11 10 16 10 6 0 7 -4 4 -10z m-290
-65 c6 -29 6 -29 -9 -11 -9 11 -16 29 -16 40 0 28 17 8 25 -29z m305 -138
c177 -81 393 -130 759 -172 186 -22 726 -55 783 -48 26 3 58 3 71 -1 24 -6 52
-50 42 -67 -11 -16 -37 -10 -42 11 -7 26 -23 26 -23 1 0 -28 -19 -36 -35 -15
-11 15 -16 16 -26 7 -10 -10 -15 -9 -25 5 -12 16 -13 15 -22 -7 l-9 -24 -16
23 c-13 19 -19 21 -31 11 -9 -7 -34 -10 -70 -7 -46 5 -54 3 -50 -9 5 -12 -4
-15 -42 -14 -92 1 -128 12 -143 43 -12 26 -15 28 -26 13 -9 -12 -15 -13 -23
-5 -8 8 -15 8 -27 -2 -12 -10 -18 -10 -30 0 -8 7 -15 9 -15 5 0 -5 -9 0 -20
10 -24 22 -36 14 -21 -13 16 -30 14 -34 -16 -30 -16 2 -27 8 -25 16 1 7 -5 15
-13 18 -8 4 -15 17 -15 30 0 14 -6 24 -14 24 -17 0 -31 -33 -17 -38 16 -5 13
-42 -3 -42 -7 0 -16 13 -19 30 l-6 30 -65 -5 c-39 -3 -67 -1 -71 5 -10 16 -25
2 -18 -16 5 -14 0 -15 -28 -9 -63 12 -70 17 -76 46 -6 32 -13 35 -31 17 -9 -9
-15 -9 -24 0 -8 8 -17 8 -31 1 -13 -8 -22 -8 -30 0 -7 7 -14 7 -24 0 -7 -6
-20 -8 -30 -4 -10 5 -24 7 -31 6 -7 -1 -15 5 -18 14 -8 20 -24 20 -24 -1 0
-10 -6 -14 -17 -11 -10 3 -30 8 -45 11 -23 5 -28 12 -28 36 0 29 -13 40 -24
21 -3 -5 -17 -11 -30 -13 -21 -4 -25 -1 -28 20 -5 38 -28 40 -28 3 0 -17 -4
-31 -8 -31 -4 0 -36 9 -70 21 -56 19 -62 24 -62 48 0 16 -8 35 -17 43 -23 19
-63 21 -63 3 0 -26 -19 -26 -56 -2 -19 14 -31 27 -26 31 5 3 7 17 4 31 l-4 26
48 -20 c27 -11 83 -35 124 -54z m3670 25 c0 -11 10 -24 23 -29 21 -11 21 -11
2 -19 -11 -4 -53 -20 -94 -36 -59 -23 -76 -26 -82 -16 -11 17 -11 20 1 38 9
13 12 13 21 -2 14 -24 33 -23 26 2 -6 25 1 26 19 3 12 -17 13 -16 14 5 0 13 4
20 10 17 6 -3 19 -3 30 0 15 5 19 12 14 31 -4 14 -2 24 5 24 6 0 11 -8 11 -18z
m-3223 -86 c37 -8 167 -29 288 -46 121 -17 222 -34 224 -36 7 -7 -19 -5 -219
20 -107 13 -243 29 -302 36 -104 12 -133 24 -85 33 12 2 23 5 24 6 1 0 32 -5
70 -13z m3280 -93 c-2 -112 3 -130 76 -246 26 -44 47 -80 45 -82 -2 -2 -15 -6
-30 -10 -23 -6 -29 -2 -43 27 -9 18 -28 43 -42 55 -19 15 -24 26 -18 40 6 16
8 16 18 -7 15 -32 55 -76 62 -68 3 3 -8 28 -25 54 -45 72 -70 162 -70 255 0
63 3 79 15 79 12 0 14 -17 12 -97z m-67 47 c0 -11 -4 -20 -10 -20 -5 0 -10 9
-10 20 0 11 5 20 10 20 6 0 10 -9 10 -20z m-53 -22 c-3 -7 -5 -2 -5 12 0 14 2
19 5 13 2 -7 2 -19 0 -25z m-656 -13 c-1 -6 -4 -10 -8 -11 -25 -3 -43 -19 -43
-39 0 -20 -7 -24 -62 -33 -35 -6 -88 -14 -119 -17 -55 -7 -57 -6 -63 19 -6 25
-26 37 -26 15 0 -6 -7 -8 -16 -5 -9 3 -34 1 -57 -5 -30 -8 -42 -8 -47 2 -14
21 -31 0 -19 -22 6 -12 9 -23 6 -25 -3 -3 -53 -8 -111 -11 l-107 -6 6 25 c9
33 -13 48 -32 22 -14 -18 -15 -18 -24 -1 -10 17 -12 17 -29 2 -13 -11 -20 -13
-25 -5 -4 6 -4 14 -1 17 3 4 77 12 163 19 174 14 382 38 513 58 94 15 102 15
101 1z m1281 -56 c29 -17 82 -52 117 -77 36 -25 93 -60 128 -77 l64 -31 -53
-35 c-71 -45 -78 -47 -44 -10 22 23 26 31 13 31 -8 0 -19 -5 -22 -11 -4 -6
-13 -8 -21 -5 -7 3 -20 -1 -28 -9 -8 -8 -21 -13 -29 -10 -9 4 -19 -8 -31 -37
-10 -24 -20 -37 -23 -30 -3 7 2 24 11 37 25 39 1 38 -29 -1 l-27 -36 -27 25
c-14 13 -48 37 -74 53 -129 78 -129 250 0 253 12 1 46 -13 75 -30z m-2754 14
c-32 -2 -84 -2 -115 0 -32 2 -6 3 57 3 63 0 89 -1 58 -3z m1510 -12 c3 -8 -1
-12 -9 -9 -7 2 -15 10 -17 17 -3 8 1 12 9 9 7 -2 15 -10 17 -17z m-3492 -46
c74 -57 56 -121 -66 -230 l-85 -77 -54 5 c-37 4 -68 15 -100 36 -25 17 -68 42
-94 55 l-48 24 28 19 c15 11 55 35 88 53 33 18 86 53 117 77 32 24 70 51 85
59 37 20 86 12 129 -21z m3104 -5 c0 -5 -4 -10 -10 -10 -5 0 -10 5 -10 10 0 6
5 10 10 10 6 0 10 -4 10 -10z m450 0 c0 -5 -15 -10 -32 -10 -25 0 -29 3 -18
10 20 13 50 13 50 0z m-2240 -10 c0 -5 -4 -10 -10 -10 -5 0 -10 5 -10 10 0 6
5 10 10 10 6 0 10 -4 10 -10z m2897 -48 c7 -18 11 -38 7 -43 -8 -14 -64 47
-64 70 0 44 34 28 57 -27z m-1557 33 c5 3 10 1 10 -4 0 -6 -11 -11 -25 -11
-16 0 -25 6 -25 16 0 13 3 14 15 4 8 -6 19 -9 25 -5z m60 5 c0 -5 -5 -10 -11
-10 -5 0 -7 5 -4 10 3 6 8 10 11 10 2 0 4 -4 4 -10z m55 0 c3 -6 -4 -10 -17
-10 -18 0 -20 2 -8 10 19 12 18 12 25 0z m1755 -18 c0 -15 9 -44 20 -65 23
-43 19 -57 -16 -57 -21 0 -24 4 -19 20 4 13 -3 32 -21 56 l-28 36 23 19 c32
26 41 24 41 -9z m-4400 -40 c0 -5 -11 -19 -25 -32 -31 -29 -35 -75 -5 -67 13
3 20 0 20 -9 0 -7 -6 -12 -12 -10 -7 3 -25 7 -41 10 l-27 6 19 38 c11 20 22
45 25 55 5 17 46 25 46 9z m3437 2 c-3 -3 -12 -4 -19 -1 -8 3 -5 6 6 6 11 1
17 -2 13 -5z m874 -21 c13 -16 12 -17 -3 -4 -10 7 -18 15 -18 17 0 8 8 3 21
-13z m-4137 -14 c8 -7 -32 -69 -44 -69 -5 0 -10 4 -10 9 0 5 -9 12 -19 16 -11
3 -21 16 -23 28 -3 18 -8 14 -28 -25 -25 -50 -46 -66 -30 -23 30 78 34 82 94
75 30 -3 58 -8 60 -11z m3331 11 c18 -8 17 -9 -7 -9 -16 -1 -28 4 -28 9 0 12
8 12 35 0z m786 -22 l22 -33 -31 29 c-34 32 -37 36 -23 36 5 0 20 -15 32 -32z
m-886 12 c3 -6 -1 -13 -10 -16 -19 -8 -30 0 -20 15 8 14 22 14 30 1z m40 0
c-3 -5 -10 -10 -16 -10 -5 0 -9 5 -9 10 0 6 7 10 16 10 8 0 12 -4 9 -10z m605
0 c0 -5 -4 -10 -10 -10 -5 0 -10 5 -10 10 0 6 5 10 10 10 6 0 10 -4 10 -10z
m177 -22 c32 -31 43 -58 24 -58 -9 0 -47 46 -65 78 -13 22 8 13 41 -20z m-970
-12 c-9 -23 -70 -22 -65 1 3 19 48 35 62 22 5 -4 6 -15 3 -23z m81 24 c13 0
18 -50 5 -50 -5 0 -18 -3 -30 -6 -14 -4 -23 -2 -23 5 0 6 9 11 20 11 11 0 20
5 20 10 0 6 -10 8 -24 4 -25 -6 -42 9 -30 27 3 6 16 8 28 5 11 -3 27 -6 34 -6z
m-168 -30 c0 -16 -7 -20 -35 -20 -22 0 -35 5 -35 13 0 20 10 27 42 27 21 0 28
-5 28 -20z m717 14 c-3 -3 -12 -4 -19 -1 -8 3 -5 6 6 6 11 1 17 -2 13 -5z
m-807 -24 c0 -16 -7 -20 -30 -20 -16 0 -33 0 -37 0 -19 0 -5 25 17 31 42 12
50 10 50 -11z m1028 -40 c19 -33 30 -60 25 -60 -10 0 -75 120 -65 120 4 0 22
-27 40 -60z m-178 40 c0 -15 -40 -32 -58 -25 -15 6 -15 8 2 21 23 16 56 19 56
4z m-950 -15 c0 -11 -11 -15 -40 -15 -38 0 -49 8 -33 23 3 4 21 7 40 7 23 0
33 -5 33 -15z m-160 -10 c0 -8 -7 -15 -15 -15 -8 0 -15 7 -15 15 0 8 7 15 15
15 8 0 15 -7 15 -15z m68 3 c-7 -20 -48 -23 -48 -4 0 11 9 16 26 16 16 0 24
-5 22 -12z m372 3 c0 -5 -13 -11 -30 -13 -32 -5 -42 7 -12 15 29 8 42 7 42 -2z
m153 -8 c-5 -14 -1 -15 30 -10 20 4 54 9 75 12 34 4 33 3 -13 -12 -61 -20 -37
-29 36 -14 61 13 82 14 75 2 -4 -5 -29 -12 -56 -16 -28 -4 -50 -11 -50 -16 0
-4 -23 -11 -51 -15 -29 -4 -47 -10 -41 -16 5 -5 56 -1 122 9 85 13 117 22 131
37 19 20 19 20 19 -5 0 -21 -8 -27 -52 -41 -29 -9 -129 -31 -223 -49 -93 -18
-162 -35 -153 -37 10 -2 73 8 140 21 137 28 247 47 271 47 9 0 24 -14 32 -30
22 -43 76 -68 115 -53 26 10 31 8 45 -14 9 -14 15 -26 13 -28 -9 -9 -240 -56
-252 -52 -7 3 -16 18 -19 34 -4 15 -9 37 -13 49 -5 19 0 22 45 28 28 4 51 11
51 17 0 10 -16 8 -86 -8 -12 -2 -25 1 -29 7 -5 8 -10 7 -18 -3 -7 -8 -59 -21
-122 -31 -128 -20 -271 -53 -235 -55 14 0 78 10 142 24 64 14 143 26 174 27
l58 3 14 -48 c7 -27 12 -51 9 -53 -9 -9 -335 -63 -418 -70 -85 -6 -86 -6 -92
17 -11 42 -8 48 34 59 23 6 39 14 36 16 -3 3 -21 1 -41 -4 -20 -6 -38 -7 -40
-4 -2 4 -14 53 -26 110 -19 82 -21 105 -11 111 17 11 131 22 143 15 6 -4 14
-1 18 6 4 6 25 13 46 14 22 2 47 7 57 11 9 4 26 5 38 2 11 -3 32 1 47 9 34 17
33 17 25 -3z m605 -8 c13 -29 5 -33 -14 -7 -15 20 -18 32 -6 32 5 0 14 -11 20
-25z m-1318 0 c0 -9 -9 -15 -25 -15 -24 0 -32 10 -18 23 12 13 43 7 43 -8z
m70 0 c0 -9 -9 -15 -25 -15 -16 0 -25 6 -25 15 0 9 9 15 25 15 16 0 25 -6 25
-15z m404 6 c6 -9 -26 -21 -56 -21 -26 0 -22 18 5 23 39 7 46 7 51 -2z m-614
-16 c0 -8 -9 -15 -20 -15 -11 0 -20 7 -20 15 0 8 9 15 20 15 11 0 20 -7 20
-15z m78 3 c-7 -20 -58 -23 -58 -4 0 11 10 16 31 16 20 0 29 -4 27 -12z m442
-8 c0 -4 -18 -10 -40 -12 -27 -2 -40 0 -40 9 0 6 15 13 33 15 35 4 47 1 47
-12z m1411 9 c35 -12 103 -68 93 -78 -3 -3 -57 -10 -121 -16 l-116 -11 -33 35
c-39 42 -36 45 58 65 81 18 79 18 119 5z m-1511 -13 c0 -15 -21 -26 -51 -26
-27 0 -24 28 4 33 41 8 47 7 47 -7z m940 4 c-8 -5 -22 -10 -30 -10 -13 0 -13
1 0 10 8 5 22 10 30 10 13 0 13 -1 0 -10z m-4017 -11 c59 -30 127 -84 125 -98
-2 -9 -10 -16 -18 -16 -35 1 -230 28 -230 33 0 6 90 92 97 92 2 0 14 -5 26
-11z m2987 -3 c0 -18 -30 -30 -43 -17 -5 5 -6 14 -3 20 10 16 46 13 46 -3z
m-2863 -31 c32 -19 42 -35 24 -35 -7 0 -71 47 -91 66 -8 9 35 -11 67 -31z
m2741 18 c-4 -22 -48 -31 -48 -10 0 19 10 27 32 27 13 0 18 -6 16 -17z m60 0
c2 -8 -5 -13 -17 -13 -12 0 -21 6 -21 16 0 18 31 15 38 -3z m1122 8 c0 -11
-59 -36 -66 -28 -3 3 7 12 23 21 33 18 43 19 43 7z m140 -45 c0 -5 -7 -1 -15
10 -8 10 -14 24 -14 29 0 6 6 1 14 -9 8 -11 15 -24 15 -30z m-91 -26 c17 -28
32 -56 34 -62 3 -16 -54 -30 -70 -16 -10 8 -13 6 -13 -6 0 -9 -4 -16 -9 -16
-5 0 -16 -3 -24 -6 -9 -3 -22 7 -35 30 -29 49 -13 90 43 110 22 8 41 15 42 15
1 1 15 -22 32 -49z m281 25 c13 -14 22 -26 19 -28 -2 -2 -30 -11 -61 -20 -53
-16 -108 -61 -108 -88 0 -5 -5 -9 -11 -9 -16 0 -4 57 16 76 8 9 15 20 15 25 0
6 9 7 20 4 11 -3 20 -2 20 3 0 6 14 15 30 21 41 14 38 21 -7 14 -43 -6 -36 12
7 20 14 2 28 5 31 6 3 0 16 -10 29 -24z m-180 -79 c0 -6 -7 -2 -15 8 -8 11
-15 25 -15 30 0 6 7 2 15 -8 8 -11 15 -25 15 -30z m-36 -61 c15 -20 15 -20 16
-1 0 24 15 11 25 -23 7 -22 5 -24 -23 -18 -17 4 -34 2 -37 -3 -3 -6 -14 -10
-25 -10 -21 0 -47 59 -30 70 20 12 60 4 74 -15z m-93 -21 c11 -30 12 -29 -18
-38 -18 -6 -25 -2 -35 19 -10 22 -9 28 3 36 24 15 39 10 50 -17z m-76 -15 c4
-11 5 -23 2 -25 -3 -3 -36 -10 -73 -15 -84 -12 -153 -30 -137 -36 7 -3 47 3
89 11 42 9 90 16 108 15 l31 -1 -30 -8 c-16 -5 -68 -18 -115 -29 -47 -12 -95
-23 -107 -27 -18 -5 -23 0 -32 32 -12 43 -8 54 22 55 12 0 63 11 112 24 113
29 122 30 130 4z m-4370 -29 c3 -5 -3 -10 -14 -10 -12 0 -21 -4 -21 -9 0 -5
-11 -11 -25 -13 -36 -7 -31 9 8 26 40 18 44 18 52 6z m243 -52 c63 -24 63 -36
0 -15 -23 8 -76 22 -115 32 -40 11 -73 22 -73 26 0 9 122 -18 188 -43z m4272
42 c-19 -13 -30 -13 -30 0 0 6 10 10 23 10 18 0 19 -2 7 -10z m-67 -7 c-7 -2
-19 -2 -25 0 -7 3 -2 5 12 5 14 0 19 -2 13 -5z m95 -39 c2 -15 -4 -23 -20 -27
-24 -7 -38 6 -38 36 0 28 54 19 58 -9z m-73 -5 c5 -14 2 -25 -6 -30 -17 -11
-39 -12 -39 -1 0 4 -3 17 -6 30 -5 19 -2 22 19 22 17 0 28 -7 32 -21z"/>
<path d="M2800 1506 c0 -18 45 -23 55 -6 3 6 0 10 -9 10 -8 0 -21 3 -30 6 -11
4 -16 1 -16 -10z"/>
<path d="M2920 1505 c0 -10 10 -15 27 -15 26 0 26 1 7 15 -25 19 -34 19 -34 0z"/>
<path d="M3060 1510 c0 -5 17 -10 38 -9 33 1 34 2 12 9 -36 11 -50 11 -50 0z"/>
<path d="M3230 1503 c0 -8 13 -13 35 -13 19 0 35 4 35 9 0 5 -16 11 -35 13
-24 3 -35 0 -35 -9z"/>
<path d="M2650 1496 c0 -18 27 -21 50 -6 13 8 13 10 -2 10 -9 0 -23 3 -32 6
-11 4 -16 1 -16 -10z"/>
<path d="M3380 1490 c0 -5 12 -10 28 -10 21 0 24 2 12 10 -20 13 -40 13 -40 0z"/>
<path d="M3500 1490 c0 -5 19 -10 42 -10 49 0 47 5 -4 14 -24 4 -38 3 -38 -4z"/>
<path d="M3627 1494 c-13 -13 5 -24 36 -23 21 1 25 3 12 6 -11 3 -25 9 -31 14
-6 5 -14 6 -17 3z"/>
<path d="M3770 1475 c0 -11 10 -15 38 -14 21 1 28 3 17 6 -11 3 -24 9 -29 14
-15 14 -26 11 -26 -6z"/>
<path d="M2250 1470 c0 -5 12 -10 26 -10 14 0 23 4 19 10 -3 6 -15 10 -26 10
-10 0 -19 -4 -19 -10z"/>
<path d="M3914 1469 c-10 -17 17 -29 66 -28 l45 1 -35 9 c-19 5 -43 14 -52 19
-11 6 -19 6 -24 -1z"/>
<path d="M1912 1439 c2 -7 10 -15 17 -17 8 -3 12 1 9 9 -2 7 -10 15 -17 17 -8
3 -12 -1 -9 -9z"/>
<path d="M4100 1436 c0 -16 31 -26 75 -25 30 1 30 1 -7 13 -20 6 -40 14 -44
19 -12 11 -24 8 -24 -7z"/>
<path d="M1705 1420 c-11 -18 3 -27 36 -22 30 4 31 6 14 18 -22 16 -41 18 -50
4z"/>
<path d="M4250 1405 c0 -11 11 -15 38 -15 l37 1 -34 14 c-41 18 -41 18 -41 0z"/>
<path d="M4396 1381 c-8 -13 19 -21 67 -20 l42 0 -50 14 c-27 8 -51 14 -52 15
-1 0 -4 -4 -7 -9z"/>
<path d="M864 1107 c-9 -24 6 -44 18 -22 7 11 6 21 -1 28 -7 7 -12 6 -17 -6z"/>
<path d="M5267 620 c-11 -15 -17 -44 -17 -76 0 -44 4 -54 25 -68 14 -9 30 -14
35 -11 6 3 10 -3 10 -14 0 -12 7 -21 15 -21 7 0 18 -8 24 -17 15 -27 23 -9 15
32 -5 27 -10 35 -22 30 -12 -4 -14 2 -9 35 4 29 2 40 -6 37 -7 -2 -13 -13 -15
-25 -2 -12 -8 -22 -13 -22 -6 0 -8 18 -3 46 5 34 4 45 -5 40 -6 -4 -11 -16
-11 -26 0 -10 -4 -22 -10 -25 -13 -8 -13 41 1 66 16 31 5 46 -14 19z"/>
<path d="M586 575 c17 -13 37 -38 44 -55 12 -29 30 -41 30 -20 0 21 -30 69
-52 84 -37 26 -56 18 -22 -9z"/>
<path d="M550 561 c0 -5 7 -16 15 -25 9 -8 15 -19 13 -23 -5 -22 16 -83 28
-83 25 0 26 27 6 73 -18 41 -62 82 -62 58z"/>
<path d="M3760 1270 c0 -18 -3 -19 -21 -10 -11 6 -30 10 -42 8 -17 -3 -6 -11
45 -36 59 -29 75 -33 134 -30 43 2 69 8 72 16 2 8 -10 12 -41 12 -37 0 -47 4
-52 21 -6 19 -8 19 -19 3 -9 -12 -15 -14 -20 -5 -4 6 -12 9 -17 5 -6 -3 -13 3
-16 15 -7 27 -23 27 -23 1z"/>
<path d="M3100 1246 c0 -9 -7 -19 -15 -22 -8 -4 -15 -12 -15 -20 0 -16 16 -19
25 -4 3 6 25 10 48 10 86 0 89 35 4 46 -40 6 -47 4 -47 -10z m63 -13 c-7 -2
-21 -2 -30 0 -10 3 -4 5 12 5 17 0 24 -2 18 -5z"/>
<path d="M2073 1217 c-52 -15 -79 -37 -44 -37 43 0 111 22 111 36 0 16 -10 16
-67 1z"/>
<path d="M4475 1161 l4 -54 -42 6 c-23 3 -62 9 -87 12 l-45 5 42 -20 c81 -39
185 -38 222 2 17 18 18 23 6 34 -8 8 -18 13 -24 12 -5 -2 -16 6 -24 17 -21 27
-33 12 -18 -21 8 -18 9 -30 2 -37 -6 -6 -13 6 -21 34 -17 67 -21 69 -15 10z"/>
<path d="M2357 1170 c-54 -14 -92 -36 -116 -66 -40 -51 -17 -75 28 -29 24 25
41 25 41 -1 0 -8 -10 -14 -22 -14 -23 -1 -23 -1 -3 -16 15 -12 36 -15 82 -11
38 3 66 0 73 -7 8 -8 14 -7 20 5 6 9 21 20 36 23 38 10 13 37 -27 29 -21 -4
-30 -1 -35 11 -3 9 -10 13 -15 10 -5 -3 -7 -10 -4 -15 11 -16 -7 -9 -21 9 -12
16 -13 15 -14 -8 -1 -22 -2 -23 -11 -7 -14 24 -32 22 -24 -3 9 -29 -10 -25
-24 6 -14 31 -9 39 31 60 42 22 97 12 182 -32 38 -19 71 -33 73 -30 9 9 -33
56 -64 71 -40 19 -137 27 -186 15z"/>
<path d="M3430 1152 c-118 -40 -207 -104 -172 -126 4 -2 27 8 51 24 68 46 145
70 250 78 108 8 133 6 129 -11 -1 -7 4 -36 10 -66 7 -30 11 -55 10 -56 -2 -1
-13 -5 -24 -9 -19 -6 -22 -2 -28 33 -4 27 -14 44 -32 56 l-27 17 8 -33 c13
-59 11 -83 -7 -87 -14 -3 -18 3 -19 25 0 15 -4 37 -9 48 -6 15 -9 8 -9 -27
l-1 -48 -35 0 c-23 0 -38 6 -41 15 -5 12 -10 13 -20 4 -11 -9 -14 -6 -14 17 0
30 -15 23 -22 -11 -4 -18 -6 -18 -11 -2 -20 53 -21 53 -24 26 -4 -28 14 -85
24 -75 3 3 11 2 17 -3 18 -14 66 -22 66 -11 0 6 28 10 68 10 57 0 245 38 274
56 14 9 -2 24 -25 24 -15 0 -26 10 -35 30 -19 42 -36 38 -18 -4 8 -19 12 -37
8 -40 -14 -15 -30 -3 -36 28 -4 19 -13 39 -21 46 -21 17 -19 40 4 40 25 0 108
-45 149 -81 33 -29 62 -38 62 -19 0 17 -118 98 -178 121 -80 31 -244 37 -322
11z"/>
<path d="M2763 1125 c-34 -15 -41 -33 -21 -53 31 -31 112 1 106 41 -4 27 -40
32 -85 12z m34 -21 c29 -8 20 -24 -13 -24 -15 0 -24 6 -24 15 0 17 4 18 37 9z"/>
<path d="M3015 1100 c-3 -5 -17 -10 -30 -10 -18 0 -26 -7 -31 -24 -9 -36 2
-46 46 -46 38 0 110 33 110 50 0 27 -81 52 -95 30z m65 -29 c0 -13 -26 -21
-66 -21 -32 0 -42 8 -27 23 10 10 93 8 93 -2z"/>
<path d="M4037 1093 c-4 -3 -7 -13 -7 -21 0 -11 3 -12 15 -2 16 13 59 4 50
-11 -4 -5 -16 -9 -28 -9 -21 -1 -21 -1 -3 -11 23 -14 68 4 60 24 -9 25 -71 46
-87 30z"/>
<path d="M1977 1053 c-4 -3 -7 -10 -7 -14 0 -13 79 -48 86 -38 3 5 -6 13 -20
19 -38 14 -32 23 12 16 34 -6 36 -5 18 9 -20 15 -77 21 -89 8z"/>
<path d="M1677 1033 c-4 -3 -7 -19 -7 -34 0 -34 38 -46 78 -25 23 13 24 15 6
16 -26 0 -66 29 -44 31 8 1 25 0 38 -1 12 -1 22 3 22 9 0 12 -82 15 -93 4z"/>
<path d="M4480 975 c-7 -8 -10 -21 -7 -28 6 -17 82 -31 102 -19 13 7 13 11 -1
30 -19 28 -34 29 -27 1 5 -18 2 -19 -23 -13 -39 9 -42 14 -16 21 12 3 22 9 22
14 0 15 -37 10 -50 -6z"/>
<path d="M4988 979 c-25 -14 -23 -32 2 -19 17 9 22 7 32 -15 16 -36 28 -31 17
7 -5 18 -9 34 -9 35 0 7 -27 2 -42 -8z"/>
<path d="M4600 964 c0 -11 5 -14 16 -10 9 3 24 6 35 6 10 0 19 5 19 10 0 6
-16 10 -35 10 -25 0 -35 -4 -35 -16z"/>
<path d="M3136 954 c-33 -32 -20 -48 34 -44 39 3 49 20 11 20 -19 0 -30 4 -26
10 3 6 15 10 26 10 11 0 17 5 14 10 -9 15 -42 12 -59 -6z"/>
<path d="M1428 939 c29 -26 22 -36 -23 -33 -31 3 -35 1 -25 -11 16 -20 64 -19
80 0 19 22 -2 65 -32 65 l-22 0 22 -21z"/>
<path d="M4073 933 c-62 -42 18 -71 107 -39 53 19 51 42 -6 50 -64 8 -76 7
-101 -11z m77 -13 c0 -5 -4 -10 -9 -10 -6 0 -13 5 -16 10 -3 6 1 10 9 10 9 0
16 -4 16 -10z"/>
<path d="M4895 930 c3 -5 14 -10 23 -10 10 0 28 -7 40 -16 12 -8 22 -10 22 -5
0 13 -52 41 -75 41 -9 0 -13 -4 -10 -10z"/>
<path d="M2060 919 c0 -6 -9 -8 -20 -4 -24 8 -28 -20 -4 -29 46 -18 115 3 96
29 -10 14 -72 17 -72 4z"/>
<path d="M2652 919 c-107 -19 -249 -79 -319 -136 -26 -22 -34 -58 -13 -59 8 0
24 -5 35 -10 29 -13 336 -10 430 5 112 18 125 21 125 37 0 16 -17 17 -91 5
-127 -22 -139 -21 -149 5 -13 32 -32 31 -24 -1 5 -20 3 -24 -9 -19 -8 3 -18
15 -22 27 -7 22 -7 22 -14 -3 l-8 -25 -12 28 c-6 16 -11 33 -11 38 0 5 -5 9
-11 9 -7 0 -8 -14 -4 -41 9 -52 -10 -45 -20 7 -8 47 -20 35 -16 -18 2 -27 -1
-38 -8 -34 -6 4 -11 20 -11 37 0 16 -5 29 -11 29 -8 0 -10 -12 -6 -35 3 -19 2
-35 -4 -35 -8 0 -13 18 -12 48 1 6 -6 12 -14 12 -11 0 -13 -7 -8 -31 6 -24 4
-30 -6 -27 -8 3 -13 12 -11 22 4 20 -17 21 -24 1 -6 -16 -44 -21 -44 -7 0 15
44 49 99 77 107 53 274 69 435 40 83 -15 180 -56 190 -80 7 -19 36 -19 36 0 0
25 -71 64 -181 100 -117 38 -207 49 -287 34z"/>
<path d="M1715 895 c-44 -16 -78 -50 -73 -73 4 -21 28 -28 28 -8 0 8 9 20 20
26 17 9 20 7 26 -15 7 -30 31 -37 100 -33 36 2 50 7 52 19 3 15 -5 16 -61 12
-60 -5 -64 -4 -70 16 -7 28 11 36 78 36 32 0 65 -8 92 -22 48 -25 64 -17 29
16 -44 41 -144 53 -221 26z"/>
<path d="M3655 849 c-4 -5 -26 -9 -50 -9 -51 0 -59 -8 -42 -43 11 -25 15 -26
72 -20 72 7 95 17 95 43 0 11 -1 20 -3 20 -1 0 -17 4 -34 9 -20 6 -35 6 -38 0z
m49 -28 c5 -8 -43 -35 -51 -28 -2 2 -1 12 3 21 6 17 39 22 48 7z m-79 -11 c3
-5 -1 -10 -9 -10 -9 0 -16 5 -16 10 0 6 4 10 9 10 6 0 13 -4 16 -10z"/>
<path d="M4380 842 c0 -4 5 -13 12 -20 17 -17 10 -20 -48 -23 -35 -2 -58 3
-74 14 -46 32 -50 18 -14 -43 31 -51 35 -66 31 -107 -2 -26 -8 -58 -12 -70
-11 -34 10 -28 25 6 6 16 10 52 9 80 -3 49 13 74 19 31 2 -11 10 -20 18 -20
17 0 17 8 -1 40 -24 43 -19 50 35 50 54 0 61 10 34 48 -15 22 -34 30 -34 14z"/>
<path d="M3983 815 c-4 -13 -15 -14 -49 -9 -27 4 -44 2 -44 -4 0 -5 21 -13 46
-17 47 -7 74 4 74 31 0 19 -19 18 -27 -1z"/>
<path d="M4483 781 c33 -51 47 -62 47 -36 0 16 -57 85 -70 85 -5 0 6 -22 23
-49z"/>
<path d="M3178 763 c-16 -2 -28 -11 -28 -19 0 -13 14 -19 35 -14 6 1 26 4 45
5 23 2 36 8 38 19 4 16 -23 19 -90 9z"/>
<path d="M1041 710 c2 -14 -1 -31 -6 -39 -5 -10 -4 -16 3 -19 17 -5 15 -48 -4
-88 -19 -39 -11 -58 11 -28 12 16 14 17 15 2 0 -28 -38 -107 -95 -195 -46 -70
-59 -83 -75 -78 -22 7 -28 -10 -6 -18 7 -3 34 -9 60 -12 41 -7 46 -10 41 -29
-6 -20 -5 -20 9 -3 14 18 15 18 19 -5 l4 -23 2 23 c0 13 6 20 11 17 6 -4 8
-10 5 -15 -3 -5 -7 -26 -9 -47 -2 -21 -7 -65 -10 -98 l-6 -60 14 40 15 40 -6
-37 c-5 -36 -4 -37 26 -36 32 1 33 3 56 131 4 20 11 37 16 37 12 0 11 -25 -6
-95 -18 -74 -18 -75 -1 -75 9 0 17 24 25 75 7 41 16 77 20 79 13 8 83 -17 88
-31 3 -7 2 -29 -1 -47 -5 -25 -13 -36 -29 -39 l-22 -4 23 -8 c12 -4 22 -12 22
-17 0 -7 5 -7 13 0 8 7 35 8 82 2 121 -16 145 -8 30 9 l-110 16 3 40 c2 22 7
43 10 47 7 6 91 -11 157 -32 23 -7 15 -8 -33 -4 -39 3 -62 2 -58 -4 3 -5 48
-13 100 -17 96 -7 113 -15 100 -50 -4 -8 -1 -15 5 -15 6 0 11 11 11 25 0 29 6
30 98 15 119 -20 227 -30 347 -34 l120 -4 -99 8 c-55 5 -103 13 -109 19 -6 6
-5 23 3 46 11 34 14 37 44 31 17 -3 116 -18 219 -33 186 -26 188 -27 182 -50
-3 -13 -1 -23 5 -23 5 0 10 9 10 19 0 28 9 31 81 23 53 -6 63 -10 61 -25 -2
-9 2 -17 8 -17 5 0 10 7 10 15 0 12 16 15 83 15 45 0 89 5 97 10 10 7 -9 10
-62 10 l-77 0 -4 33 -4 32 -1 -34 -2 -34 -67 6 c-38 4 -78 7 -91 7 -25 0 -25
1 -5 88 3 12 1 22 -5 22 -5 0 -13 -24 -18 -53 l-9 -52 -50 3 c-44 3 -227 29
-338 48 -24 4 -41 14 -45 25 -13 33 -37 -1 -39 -55 -1 -27 -5 -51 -8 -54 -6
-7 -183 14 -270 32 -58 11 -60 13 -63 45 -3 31 -2 33 20 27 49 -14 277 -66
289 -66 29 0 -3 10 -91 29 -52 11 -123 28 -158 37 -58 16 -63 19 -60 43 3 29
6 29 98 18 70 -8 35 8 -38 18 -49 6 -53 9 -48 29 15 53 19 99 8 92 -6 -3 -14
-27 -18 -51 -3 -25 -10 -47 -14 -50 -8 -5 -116 15 -193 36 -21 5 -35 14 -32
18 2 5 -17 14 -43 21 -48 13 -70 26 -60 35 3 3 41 -7 84 -23 51 -19 99 -29
134 -29 30 0 46 2 35 6 -64 20 -245 96 -245 103 0 16 38 8 153 -32 63 -22 124
-40 134 -39 10 0 -12 10 -49 21 -38 12 -68 25 -68 30 0 5 8 7 18 5 40 -12 101
-20 152 -22 30 -1 78 -4 105 -8 33 -4 25 -1 -26 11 -42 9 -87 25 -100 34 -23
16 -21 16 31 2 30 -7 64 -14 74 -14 20 0 20 0 0 15 -25 19 -20 19 78 -4 46
-10 139 -29 208 -40 69 -12 133 -26 143 -32 11 -6 17 -6 17 1 0 18 22 10 27
-10 5 -18 7 -19 17 -5 11 15 21 15 124 1 120 -17 180 -20 169 -9 -4 3 -64 12
-134 20 -70 7 -134 15 -141 18 -8 3 -12 17 -10 37 4 38 -16 37 206 12 l152
-17 1 -46 1 -46 10 48 c9 41 13 47 35 47 22 0 24 -3 18 -30 -8 -37 5 -63 17
-34 5 11 6 -5 3 -41 -14 -140 -13 -154 3 -58 9 56 20 105 25 109 4 4 14 -1 22
-12 13 -17 14 -17 15 -1 0 22 38 23 47 0 6 -15 7 -14 14 3 3 10 2 25 -3 31 -7
9 -5 15 7 19 20 8 35 -11 35 -43 0 -12 5 -25 12 -29 8 -5 9 4 5 34 -5 28 -3
42 6 45 6 3 -5 6 -25 6 -20 1 -39 5 -42 9 -3 5 -26 8 -51 7 -44 -2 -46 -1 -41
21 4 14 2 24 -4 24 -5 0 -10 -9 -10 -19 0 -13 -9 -21 -30 -26 -35 -8 -54 1
-46 22 3 8 3 20 -1 26 -5 7 -10 0 -13 -18 -5 -29 -7 -30 -50 -27 -64 4 -215
21 -280 32 -30 5 -75 12 -100 15 -24 3 -48 11 -52 18 -6 9 -10 9 -15 1 -11
-16 -102 -2 -114 17 -6 10 -9 4 -9 -18 0 -18 -4 -33 -8 -33 -16 0 -296 60
-384 82 -56 14 -88 27 -88 35 0 15 -1 15 140 -23 47 -12 88 -19 92 -15 5 4
-44 20 -107 35 -79 19 -115 32 -115 42 0 17 -12 18 -27 3 -8 -8 -17 -5 -34 12
-15 15 -24 19 -27 10 -3 -9 -7 -9 -18 0 -8 7 -27 13 -42 14 -15 1 -43 6 -62
10 -34 7 -34 7 -15 -9 20 -16 20 -17 -5 -14 -15 2 -29 12 -35 26 -10 23 -25
30 -25 12 0 -20 -28 -10 -35 13 -4 13 -8 17 -12 10 -8 -22 -23 -14 -23 11 0
13 -7 30 -16 37 -14 11 -16 10 -13 -11z m49 -89 c0 -6 -4 -13 -10 -16 -5 -3
-10 1 -10 9 0 9 5 16 10 16 6 0 10 -4 10 -9z m40 -16 c0 -8 -4 -15 -10 -15 -5
0 -10 7 -10 15 0 8 5 15 10 15 6 0 10 -7 10 -15z m155 -5 c3 -5 -3 -10 -14
-10 -12 0 -21 5 -21 10 0 6 6 10 14 10 8 0 18 -4 21 -10z m-91 -6 c16 -6 23
-34 9 -34 -25 1 -53 14 -53 26 0 15 18 18 44 8z m146 -14 c0 -5 -7 -10 -15
-10 -8 0 -15 5 -15 10 0 6 7 10 15 10 8 0 15 -4 15 -10z m60 -25 c0 -8 -8 -11
-20 -8 -20 5 -25 15 -14 26 9 9 34 -4 34 -18z m-140 5 c0 -5 -4 -10 -10 -10
-5 0 -10 5 -10 10 0 6 5 10 10 10 6 0 10 -4 10 -10z m-55 -20 l20 -9 -20 0
c-11 0 -27 4 -35 9 -13 9 -13 10 0 9 8 0 24 -4 35 -9z m126 -3 c-1 -12 -15 -9
-19 4 -3 6 1 10 8 8 6 -3 11 -8 11 -12z m-231 -2 c0 -13 -51 -117 -55 -113 -8
7 36 118 46 118 5 0 9 -2 9 -5z m300 -20 c0 -3 -9 -5 -20 -5 -11 0 -20 7 -20
15 0 13 4 14 20 5 11 -6 20 -13 20 -15z m-225 -15 c3 -5 -1 -10 -9 -10 -9 0
-16 5 -16 10 0 6 4 10 9 10 6 0 13 -4 16 -10z m330 -6 c33 -8 109 -24 169 -35
137 -25 226 -49 226 -62 0 -6 -21 -7 -52 -4 -71 9 -409 94 -422 107 -14 14 9
13 79 -6z m-265 -8 c0 -3 -4 -8 -10 -11 -5 -3 -10 -1 -10 4 0 6 5 11 10 11 6
0 10 -2 10 -4z m165 -48 c151 -54 120 -65 -38 -12 -62 20 -114 38 -116 40 -7
6 11 23 22 19 7 -2 66 -23 132 -47z m225 -19 c0 -8 -66 5 -135 28 -90 28 -69
31 34 4 56 -14 101 -29 101 -32z m-400 31 c0 -5 -7 -10 -16 -10 -8 0 -12 5 -9
10 3 6 10 10 16 10 5 0 9 -4 9 -10z m88 -21 c63 -21 78 -44 20 -29 -70 18 -92
27 -96 38 -5 16 4 15 76 -9z m640 4 c2 -8 -5 -13 -17 -13 -21 0 -35 13 -24 24
10 10 36 3 41 -11z m60 -17 c3 -13 -1 -17 -14 -14 -11 2 -20 11 -22 22 -3 13
1 17 14 14 11 -2 20 -11 22 -22z m62 -6 c0 -13 -7 -20 -20 -20 -13 0 -20 7
-20 20 0 13 7 20 20 20 13 0 20 -7 20 -20z m56 -14 c-3 -11 -6 -27 -6 -33 0
-7 -7 -13 -15 -13 -10 0 -15 10 -15 33 0 39 6 48 27 40 9 -4 13 -13 9 -27z
m-916 14 c0 -5 -7 -10 -15 -10 -8 0 -15 5 -15 10 0 6 7 10 15 10 8 0 15 -4 15
-10z m740 -31 c0 -6 -9 -8 -22 -3 -29 8 -31 10 -23 23 7 13 45 -4 45 -20z
m-755 1 c3 -5 1 -10 -4 -10 -6 0 -11 5 -11 10 0 6 2 10 4 10 3 0 8 -4 11 -10z
m799 4 c9 -3 14 -10 11 -15 -7 -10 -35 0 -35 12 0 11 3 11 24 3z m-979 -14 c3
-5 1 -10 -4 -10 -6 0 -11 5 -11 10 0 6 2 10 4 10 3 0 8 -4 11 -10z m365 -53
c43 -19 15 -22 -31 -4 -19 8 -55 22 -81 31 -27 10 -48 22 -48 27 0 8 79 -18
160 -54z m680 47 c0 -2 -7 -4 -15 -4 -8 0 -15 4 -15 10 0 5 7 7 15 4 8 -4 15
-8 15 -10z m540 -4 c0 -5 -4 -10 -10 -10 -5 0 -10 5 -10 10 0 6 5 10 10 10 6
0 10 -4 10 -10z m25 0 c3 -5 1 -10 -4 -10 -6 0 -11 5 -11 10 0 6 2 10 4 10 3
0 8 -4 11 -10z m63 -7 c2 -8 -6 -13 -22 -13 -17 0 -26 5 -26 16 0 19 41 16 48
-3z m-1498 -3 c0 -5 -4 -10 -10 -10 -5 0 -10 5 -10 10 0 6 5 10 10 10 6 0 10
-4 10 -10z m-80 -10 c0 -5 -5 -10 -11 -10 -5 0 -7 5 -4 10 3 6 8 10 11 10 2 0
4 -4 4 -10z m30 -10 c0 -5 -4 -10 -10 -10 -5 0 -10 5 -10 10 0 6 5 10 10 10 6
0 10 -4 10 -10z m40 -10 c0 -5 -7 -10 -15 -10 -8 0 -15 5 -15 10 0 6 7 10 15
10 8 0 15 -4 15 -10z m-204 -27 c-10 -10 -19 5 -10 18 6 11 8 11 12 0 2 -7 1
-15 -2 -18z m44 -4 c0 -5 -7 -9 -15 -9 -15 0 -20 12 -9 23 8 8 24 -1 24 -14z
m153 -4 c1 -5 -6 -11 -15 -13 -11 -2 -18 3 -18 13 0 17 30 18 33 0z m-123 1
c0 -3 -4 -8 -10 -11 -5 -3 -10 -1 -10 4 0 6 5 11 10 11 6 0 10 -2 10 -4z m382
-48 c95 -20 108 -25 108 -44 0 -29 -8 -34 -40 -22 -16 5 -37 8 -47 6 -11 -3 2
-10 32 -19 47 -14 50 -17 47 -44 -2 -17 -5 -31 -6 -32 -2 -3 -246 56 -255 62
-4 2 -6 18 -3 35 4 28 7 31 31 26 18 -4 21 -3 11 3 -26 15 -63 24 -56 13 3 -5
3 -24 0 -41 -6 -30 -9 -32 -38 -25 -17 3 -35 11 -41 17 -7 7 -5 8 7 4 10 -3
20 -2 23 3 4 6 -3 10 -14 10 -12 0 -21 5 -21 11 0 8 13 9 38 4 24 -4 34 -3 27
3 -5 6 -19 12 -29 14 -11 1 -21 9 -24 16 -3 9 3 10 23 2 38 -14 44 -12 13 6
-27 14 -34 25 -23 36 3 3 34 -1 68 -8 34 -7 110 -23 169 -36z m-441 17 c0 -14
-31 -19 -43 -7 -6 6 -7 15 -4 21 8 12 48 0 47 -14z m99 21 c0 -3 -4 -8 -10
-11 -5 -3 -10 -1 -10 4 0 6 5 11 10 11 6 0 10 -2 10 -4z m30 -10 c0 -3 -4 -8
-10 -11 -5 -3 -10 -1 -10 4 0 6 5 11 10 11 6 0 10 -2 10 -4z m40 -16 c0 -5 -7
-10 -15 -10 -8 0 -15 5 -15 10 0 6 7 10 15 10 8 0 15 -4 15 -10z m-120 -4 c0
-3 -4 -8 -10 -11 -5 -3 -10 -1 -10 4 0 6 5 11 10 11 6 0 10 -2 10 -4z m26 -23
c-10 -10 -19 5 -10 18 6 11 8 11 12 0 2 -7 1 -15 -2 -18z m79 -4 c10 -15 -1
-23 -20 -15 -9 3 -13 10 -10 16 8 13 22 13 30 -1z m-85 -21 c0 -7 -5 -20 -10
-28 -8 -12 -10 -9 -10 13 0 15 5 27 10 27 6 0 10 -6 10 -12z m13 -68 c-3 -11
-10 -23 -16 -27 -7 -4 -8 0 -4 11 4 10 7 22 7 27 0 5 4 9 9 9 5 0 7 -9 4 -20z"/>
<path d="M4990 701 c0 -38 -19 -91 -33 -91 -7 0 -8 -3 -1 -10 16 -16 62 11 69
40 4 14 2 26 -4 28 -6 2 -11 17 -11 33 0 16 -4 29 -10 29 -5 0 -10 -13 -10
-29z"/>
<path d="M3183 688 c-27 -30 -39 -55 -47 -100 -8 -43 5 -50 22 -14 6 14 23 32
37 42 14 9 25 23 25 30 0 17 -12 18 -28 2 -7 -7 -12 -8 -12 -2 0 6 9 19 20 29
21 19 26 35 12 35 -5 0 -18 -10 -29 -22z"/>
<path d="M4593 669 c-1 -25 2 -38 7 -33 13 13 17 66 5 71 -6 2 -11 -15 -12
-38z"/>
<path d="M2890 683 c0 -5 22 -15 48 -22 53 -13 135 -5 129 13 -2 6 -15 9 -28
6 -33 -6 -88 -4 -121 5 -16 4 -28 3 -28 -2z"/>
<path d="M4544 659 c3 -17 6 -40 6 -50 0 -11 5 -19 10 -19 11 0 14 59 4 84
-11 29 -27 17 -20 -15z"/>
<path d="M4463 599 c-12 -15 -10 -27 13 -91 4 -10 10 -18 15 -18 12 0 11 23 0
36 -5 5 -11 27 -13 48 -2 33 -5 37 -15 25z"/>
<path d="M3076 498 c-10 -38 -7 -67 10 -99 8 -17 16 -48 17 -69 0 -21 5 -36 9
-34 14 9 9 84 -8 116 -11 21 -14 43 -10 70 7 41 -8 53 -18 16z"/>
<path d="M2847 354 c-4 -4 -7 -23 -6 -43 l1 -36 9 33 c11 36 9 58 -4 46z"/>
<path d="M5676 339 c-30 -23 -33 -49 -10 -84 31 -47 104 -22 104 36 0 32 -26
69 -49 69 -10 0 -30 -9 -45 -21z m58 -36 c9 -22 -5 -34 -32 -27 -26 8 -28 19
-4 33 24 14 29 13 36 -6z"/>
<path d="M1738 343 c6 -2 18 -2 25 0 6 3 1 5 -13 5 -14 0 -19 -2 -12 -5z"/>
<path d="M1798 333 c7 -3 16 -2 19 1 4 3 -2 6 -13 5 -11 0 -14 -3 -6 -6z"/>
<path d="M1790 290 c0 -5 35 -11 78 -14 42 -3 133 -15 202 -26 204 -31 215
-33 209 -26 -10 10 -333 63 -416 69 -40 2 -73 1 -73 -3z"/>
<path d="M112 270 c-19 -31 -15 -46 22 -74 42 -31 51 -32 69 -5 17 23 7 76
-15 91 -24 14 -63 8 -76 -12z"/>
<path d="M5460 234 c-25 -8 -101 -16 -169 -19 -75 -3 -129 -9 -135 -16 -8 -9
9 -10 69 -5 44 3 91 9 104 13 16 4 22 3 17 -5 -3 -6 -27 -14 -52 -18 -25 -3
-42 -10 -37 -15 16 -16 253 52 253 72 0 5 -1 9 -2 8 -2 0 -23 -7 -48 -15z"/>
<path d="M1641 226 c6 -6 414 -46 458 -45 65 1 19 8 -200 29 -220 20 -266 23
-258 16z"/>
<path d="M3071 160 l1 -45 10 34 c6 23 6 37 -1 44 -8 8 -11 -2 -10 -33z"/>
<path d="M363 183 c-29 -6 -30 -23 -2 -23 35 0 172 -38 230 -64 30 -13 70 -40
88 -60 41 -42 46 -44 49 -13 1 17 -10 29 -43 50 -49 29 -62 53 -20 37 38 -15
87 -41 117 -63 37 -27 47 -15 15 17 -14 14 -27 33 -29 43 -6 34 -324 94 -405
76z m183 -31 c79 -29 64 -44 -18 -18 -40 13 -89 29 -108 35 -32 10 -30 10 22
6 32 -3 78 -13 104 -23z m179 -37 l30 -14 -30 6 c-16 3 -39 10 -50 14 l-20 8
20 0 c11 0 34 -6 50 -14z"/>
<path d="M5185 70 c-53 -55 -41 -57 20 -4 27 24 43 44 34 44 -8 0 -32 -18 -54
-40z"/>
<path d="M992 75 c-1 -16 -5 -41 -8 -55 -5 -22 -4 -23 6 -7 6 9 9 34 7 55 -3
32 -4 33 -5 7z"/>
<path d="M895 47 c-45 -17 -62 -47 -27 -47 11 0 27 9 37 20 10 11 24 20 32 20
7 0 13 5 13 10 0 12 -16 11 -55 -3z"/>
<path d="M4035 19 c-91 -13 -98 -19 -18 -14 65 5 152 25 98 23 -11 0 -47 -4
-80 -9z"/>
<path d="M5000 10 c0 -5 5 -10 11 -10 5 0 7 5 4 10 -3 6 -8 10 -11 10 -2 0 -4
-4 -4 -10z"/>
</g>
</svg>
