<?xml version="1.0" standalone="no"?>
<!DOCTYPE svg PUBLIC "-//W3C//DTD SVG 20010904//EN"
 "http://www.w3.org/TR/2001/REC-SVG-20010904/DTD/svg10.dtd">
<svg version="1.0" xmlns="http://www.w3.org/2000/svg"
 width="577.000000pt" height="432.000000pt" viewBox="0 0 577.000000 432.000000"
 preserveAspectRatio="xMidYMid meet">

<g transform="translate(0.000000,432.000000) scale(0.100000,-0.100000)"
fill="#000000" stroke="none">
<path d="M3650 4310 c0 -5 7 -10 15 -10 8 0 15 5 15 10 0 6 -7 10 -15 10 -8 0
-15 -4 -15 -10z"/>
<path d="M5340 4295 c0 -8 2 -15 4 -15 2 0 6 7 10 15 3 8 1 15 -4 15 -6 0 -10
-7 -10 -15z"/>
<path d="M3620 4276 c0 -8 4 -17 9 -20 5 -4 7 3 4 14 -6 23 -13 26 -13 6z"/>
<path d="M110 4260 c0 -5 5 -10 11 -10 5 0 7 5 4 10 -3 6 -8 10 -11 10 -2 0
-4 -4 -4 -10z"/>
<path d="M3880 4266 c0 -2 7 -7 16 -10 8 -3 12 -2 9 4 -6 10 -25 14 -25 6z"/>
<path d="M260 4240 c0 -5 5 -10 10 -10 6 0 10 5 10 10 0 6 -4 10 -10 10 -5 0
-10 -4 -10 -10z"/>
<path d="M5283 4224 c-4 -11 1 -22 12 -30 30 -22 40 -16 16 10 -17 18 -19 25
-9 29 10 4 10 6 0 6 -7 1 -15 -6 -19 -15z"/>
<path d="M225 4210 c-3 -5 -1 -10 4 -10 6 0 11 5 11 10 0 6 -2 10 -4 10 -3 0
-8 -4 -11 -10z"/>
<path d="M4930 4205 c7 -9 15 -13 17 -11 7 7 -7 26 -19 26 -6 0 -6 -6 2 -15z"/>
<path d="M98 4178 c16 -35 18 -36 32 -17 12 15 18 17 28 7 6 -6 12 -9 12 -4 0
4 -6 14 -14 22 -13 12 -16 12 -25 -3 -8 -16 -11 -15 -30 7 l-20 25 17 -37z"/>
<path d="M177 4153 c-9 -20 -14 -39 -12 -42 3 -2 5 1 5 9 0 10 3 10 15 0 12
-10 15 -7 21 14 3 14 10 23 15 20 14 -8 29 5 23 21 -5 11 -11 12 -26 4 -15 -8
-19 -8 -14 0 4 6 3 11 -1 11 -5 0 -16 -17 -26 -37z"/>
<path d="M299 4159 c-23 -17 -20 -21 16 -21 29 0 35 2 35 16 0 23 -25 25 -51
5z m41 -3 c0 -3 -4 -8 -10 -11 -5 -3 -10 -1 -10 4 0 6 5 11 10 11 6 0 10 -2
10 -4z"/>
<path d="M390 4156 c0 -8 4 -17 9 -21 6 -3 9 4 8 15 -1 23 -17 28 -17 6z"/>
<path d="M60 4144 c0 -14 3 -14 15 -4 8 7 15 14 15 16 0 2 -7 4 -15 4 -8 0
-15 -7 -15 -16z"/>
<path d="M1430 4135 c0 -8 9 -19 19 -25 25 -13 61 -13 61 0 0 6 -13 10 -30 10
-20 0 -30 5 -30 15 0 8 -4 15 -10 15 -5 0 -10 -7 -10 -15z"/>
<path d="M280 4120 c0 -5 5 -10 11 -10 5 0 7 -4 4 -10 -3 -5 -2 -10 3 -10 17
0 21 13 7 26 -16 16 -25 18 -25 4z"/>
<path d="M250 4110 c0 -5 5 -10 11 -10 5 0 7 5 4 10 -3 6 -8 10 -11 10 -2 0
-4 -4 -4 -10z"/>
<path d="M370 4116 c0 -2 7 -6 15 -10 8 -3 15 -1 15 4 0 6 -7 10 -15 10 -8 0
-15 -2 -15 -4z"/>
<path d="M210 4080 c0 -5 5 -10 11 -10 5 0 7 5 4 10 -3 6 -8 10 -11 10 -2 0
-4 -4 -4 -10z"/>
<path d="M517 4076 c-4 -10 1 -12 14 -9 23 6 24 9 5 16 -8 3 -17 0 -19 -7z"/>
<path d="M620 4079 c0 -5 4 -8 10 -4 5 3 18 0 29 -7 17 -10 23 -10 33 0 11 11
10 12 -3 7 -10 -4 -20 -2 -24 4 -8 14 -45 14 -45 0z"/>
<path d="M560 4069 c0 -5 5 -7 10 -4 6 3 10 8 10 11 0 2 -4 4 -10 4 -5 0 -10
-5 -10 -11z"/>
<path d="M74 4059 c-11 -19 12 -31 26 -14 11 13 10 14 -5 9 -13 -5 -16 -4 -11
4 4 7 5 12 2 12 -3 0 -8 -5 -12 -11z"/>
<path d="M585 4050 c-3 -5 -1 -10 4 -10 6 0 11 5 11 10 0 6 -2 10 -4 10 -3 0
-8 -4 -11 -10z"/>
<path d="M225 4040 c-3 -5 -20 -7 -37 -3 -22 4 -29 3 -24 -5 4 -7 17 -12 29
-12 21 -1 21 -1 -3 -15 -28 -16 -19 -20 10 -5 11 6 24 19 30 30 11 20 6 29 -5
10z"/>
<path d="M537 4014 c-3 -5 3 -19 13 -31 16 -21 19 -21 25 -5 6 15 8 14 16 -6
11 -30 35 -38 54 -18 15 15 15 17 -1 23 -10 4 -19 2 -22 -5 -6 -19 -23 -14
-20 5 2 12 -4 18 -21 19 -13 1 -27 7 -31 14 -4 7 -10 8 -13 4z"/>
<path d="M700 4016 c0 -2 7 -7 16 -10 8 -3 12 -2 9 4 -6 10 -25 14 -25 6z"/>
<path d="M3980 4010 c0 -5 5 -10 10 -10 6 0 10 5 10 10 0 6 -4 10 -10 10 -5 0
-10 -4 -10 -10z"/>
<path d="M7 3994 c2 -7 11 -10 19 -7 19 7 18 10 -5 16 -13 3 -18 1 -14 -9z"/>
<path d="M635 4000 c-3 -5 -1 -10 4 -10 6 0 11 5 11 10 0 6 -2 10 -4 10 -3 0
-8 -4 -11 -10z"/>
<path d="M4400 3985 c-8 -9 -6 -14 6 -19 24 -9 31 -7 37 8 7 19 -29 28 -43 11z"/>
<path d="M1961 3953 c1 -10 5 -31 9 -48 7 -28 8 -28 9 12 0 23 -3 45 -9 48 -5
3 -9 -2 -9 -12z"/>
<path d="M570 3942 c0 -14 27 -22 68 -21 l37 2 -40 6 c-22 4 -46 10 -52 14 -7
5 -13 4 -13 -1z"/>
<path d="M102 3916 c7 -8 15 -12 17 -11 5 6 -10 25 -20 25 -5 0 -4 -6 3 -14z"/>
<path d="M220 3923 c0 -5 5 -15 10 -23 7 -12 9 -10 7 8 -1 19 -17 33 -17 15z"/>
<path d="M134 3898 c-4 -7 -4 -10 1 -6 4 4 15 2 24 -5 14 -11 14 -10 2 6 -16
20 -18 21 -27 5z"/>
<path d="M499 3903 c-11 -3 -15 -11 -12 -27 6 -31 -21 -53 -43 -35 -13 10 -17
10 -25 -2 -5 -8 -7 -22 -5 -31 2 -10 1 -17 -3 -16 -3 0 -13 0 -21 -1 -12 -1
-11 -4 3 -12 19 -11 57 -3 57 11 0 5 -7 13 -15 17 -8 5 -11 13 -6 21 5 9 13 7
29 -8 26 -24 52 -26 52 -3 0 9 3 13 7 10 8 -8 33 11 33 25 0 6 -11 8 -24 6
-18 -4 -23 -1 -19 9 3 8 12 12 19 9 8 -3 14 -2 14 3 0 14 -24 28 -41 24z m-4
-91 c-3 -3 -11 0 -18 7 -9 10 -8 11 6 5 10 -3 15 -9 12 -12z"/>
<path d="M5370 3900 c8 -5 20 -10 25 -10 6 0 3 5 -5 10 -8 5 -19 10 -25 10 -5
0 -3 -5 5 -10z"/>
<path d="M182 3848 c-15 -15 -16 -32 -2 -23 6 3 10 2 10 -3 0 -6 7 -13 16 -16
12 -4 15 -2 10 9 -3 8 -1 15 4 15 6 0 10 7 10 15 0 8 -4 15 -10 15 -5 0 -10
-6 -10 -12 0 -10 -2 -10 -8 -1 -6 10 -11 10 -20 1z"/>
<path d="M277 3825 c-4 -8 -1 -17 5 -21 7 -4 8 -3 4 4 -4 7 -2 12 3 12 6 0 11
5 11 10 0 15 -17 12 -23 -5z"/>
<path d="M5204 3814 c-18 -14 -18 -15 4 -4 12 6 22 13 22 15 0 8 -5 6 -26 -11z"/>
<path d="M116 3798 c3 -5 10 -6 15 -3 13 9 11 12 -6 12 -8 0 -12 -4 -9 -9z"/>
<path d="M248 3793 c7 -3 16 -2 19 1 4 3 -2 6 -13 5 -11 0 -14 -3 -6 -6z"/>
<path d="M4115 3780 c-3 -5 -1 -10 4 -10 6 0 11 5 11 10 0 6 -2 10 -4 10 -3 0
-8 -4 -11 -10z"/>
<path d="M185 3769 c-4 -6 -5 -12 -2 -15 2 -3 7 2 10 11 7 17 1 20 -8 4z"/>
<path d="M130 3748 c0 -5 -5 -6 -12 -2 -7 5 -8 3 -4 -5 5 -7 14 -10 21 -7 8 3
16 0 18 -7 3 -7 5 -3 4 9 -1 19 -27 31 -27 12z"/>
<path d="M4196 3752 c-4 -7 -3 -19 4 -27 9 -10 7 -15 -10 -20 -11 -3 -18 -11
-15 -16 8 -12 -8 -12 -21 1 -14 14 -46 1 -40 -16 3 -8 0 -14 -6 -14 -14 0 -4
-66 13 -86 10 -12 14 -12 21 -2 8 10 11 10 15 1 8 -22 21 -14 21 14 0 14 7 32
16 39 16 11 16 13 1 21 -12 7 -14 15 -6 34 5 13 10 20 10 16 1 -5 8 -2 16 7
16 16 21 51 6 42 -5 -4 -11 -1 -13 6 -3 9 -6 9 -12 0z"/>
<path d="M5465 3740 c3 -5 8 -10 11 -10 2 0 4 5 4 10 0 6 -5 10 -11 10 -5 0
-7 -4 -4 -10z"/>
<path d="M199 3713 c-13 -16 -12 -17 4 -4 9 7 17 15 17 17 0 8 -8 3 -21 -13z"/>
<path d="M5747 3719 c-9 -6 -17 -14 -17 -19 0 -16 30 -11 37 5 8 21 1 25 -20
14z"/>
<path d="M5495 3690 c3 -5 8 -10 11 -10 2 0 4 5 4 10 0 6 -5 10 -11 10 -5 0
-7 -4 -4 -10z"/>
<path d="M4217 3683 c-12 -12 -7 -22 8 -17 8 4 15 10 15 15 0 11 -14 12 -23 2z"/>
<path d="M4844 3682 c3 -5 0 -12 -6 -15 -7 -2 -10 -7 -7 -11 3 -4 12 0 18 8 9
11 9 16 0 22 -7 4 -9 3 -5 -4z"/>
<path d="M4223 3602 c0 -12 5 -22 9 -22 11 0 10 12 -2 30 -7 12 -9 10 -7 -8z"/>
<path d="M4831 3554 c0 -11 3 -14 6 -6 3 7 2 16 -1 19 -3 4 -6 -2 -5 -13z"/>
<path d="M5180 3550 c0 -25 20 -36 31 -19 13 21 11 26 -11 32 -15 4 -20 0 -20
-13z"/>
<path d="M4110 3466 c0 -8 7 -16 15 -20 17 -6 18 -4 9 18 -8 20 -24 21 -24 2z"/>
<path d="M4104 3381 c3 -5 -1 -14 -9 -21 -12 -10 -15 -9 -15 4 0 9 -4 16 -10
16 -11 0 -9 -28 4 -49 5 -7 11 -9 15 -5 3 5 15 14 26 20 29 16 32 44 5 44 -12
0 -19 -4 -16 -9z"/>
<path d="M2661 3364 c0 -11 3 -14 6 -6 3 7 2 16 -1 19 -3 4 -6 -2 -5 -13z"/>
<path d="M5630 3340 c0 -5 5 -10 11 -10 5 0 7 5 4 10 -3 6 -8 10 -11 10 -2 0
-4 -4 -4 -10z"/>
<path d="M4970 3236 c0 -2 7 -9 15 -16 9 -7 15 -8 15 -2 0 5 -7 12 -15 16 -8
3 -15 4 -15 2z"/>
<path d="M4550 3166 c0 -2 7 -6 15 -10 8 -3 15 -1 15 4 0 6 -7 10 -15 10 -8 0
-15 -2 -15 -4z"/>
<path d="M4467 3144 c6 -15 23 -19 23 -5 0 5 -7 11 -14 14 -10 4 -13 1 -9 -9z"/>
<path d="M257 3054 c-3 -3 -3 -12 0 -20 3 -8 0 -14 -6 -14 -6 0 -11 -7 -11
-15 0 -8 -6 -15 -14 -15 -16 0 -31 -34 -22 -49 9 -14 -4 -39 -22 -44 -10 -2 3
-3 28 -2 28 1 44 6 42 13 -1 7 3 12 10 12 6 0 3 7 -8 15 -18 14 -18 14 3 8 19
-4 21 -2 17 22 -9 52 -7 66 6 45 9 -13 10 -13 10 0 -1 19 -25 52 -33 44z"/>
<path d="M5322 3000 c0 -14 2 -19 5 -12 2 6 2 18 0 25 -3 6 -5 1 -5 -13z"/>
<path d="M5120 2999 c0 -5 5 -7 10 -4 6 3 10 8 10 11 0 2 -4 4 -10 4 -5 0 -10
-5 -10 -11z"/>
<path d="M320 2994 c0 -3 7 -12 15 -20 13 -13 15 -13 15 -1 0 8 -7 17 -15 21
-8 3 -15 3 -15 0z"/>
<path d="M4710 2968 c0 -11 22 -10 39 1 10 7 7 9 -12 8 -15 -1 -27 -5 -27 -9z"/>
<path d="M5105 2970 c-3 -5 -2 -18 4 -27 7 -14 9 -12 8 10 -2 30 -3 31 -12 17z"/>
<path d="M5380 2936 c0 -9 5 -16 10 -16 6 0 10 4 10 9 0 6 -4 13 -10 16 -5 3
-10 -1 -10 -9z"/>
<path d="M4150 2900 c0 -5 5 -10 10 -10 6 0 10 5 10 10 0 6 -4 10 -10 10 -5 0
-10 -4 -10 -10z"/>
<path d="M8 2853 c6 -3 10 -8 7 -12 -2 -5 7 -6 21 -3 30 6 24 14 -13 18 -16 1
-22 0 -15 -3z"/>
<path d="M20 2791 c0 -5 5 -13 10 -16 6 -3 10 -2 10 4 0 5 -4 13 -10 16 -5 3
-10 2 -10 -4z"/>
<path d="M5645 2790 c3 -5 11 -10 16 -10 6 0 7 5 4 10 -3 6 -11 10 -16 10 -6
0 -7 -4 -4 -10z"/>
<path d="M2197 2767 c-3 -8 1 -14 8 -14 7 0 11 6 8 14 -3 7 -6 13 -8 13 -2 0
-5 -6 -8 -13z"/>
<path d="M40 2716 c0 -9 5 -16 10 -16 6 0 10 4 10 9 0 6 -4 13 -10 16 -5 3
-10 -1 -10 -9z"/>
<path d="M3780 2699 c0 -5 -5 -7 -12 -3 -6 4 -8 3 -5 -4 8 -12 47 -4 47 9 0 5
-7 9 -15 9 -8 0 -15 -5 -15 -11z"/>
<path d="M5590 2675 c0 -8 5 -15 10 -15 6 0 10 7 10 15 0 8 -4 15 -10 15 -5 0
-10 -7 -10 -15z"/>
<path d="M1636 2621 c-3 -5 1 -14 9 -21 12 -10 15 -10 15 3 0 19 -16 31 -24
18z"/>
<path d="M4356 2403 c-6 -14 -5 -15 5 -6 7 7 10 15 7 18 -3 3 -9 -2 -12 -12z"/>
<path d="M5110 2399 c0 -5 5 -7 10 -4 6 3 10 8 10 11 0 2 -4 4 -10 4 -5 0 -10
-5 -10 -11z"/>
<path d="M4390 2370 c-9 -6 -10 -10 -3 -10 6 0 15 5 18 10 8 12 4 12 -15 0z"/>
<path d="M4260 2346 c0 -2 7 -9 15 -16 13 -11 14 -10 9 4 -5 14 -24 23 -24 12z"/>
<path d="M4308 2343 c7 -3 16 -2 19 1 4 3 -2 6 -13 5 -11 0 -14 -3 -6 -6z"/>
<path d="M10 2320 c8 -5 20 -10 25 -10 6 0 3 5 -5 10 -8 5 -19 10 -25 10 -6 0
-3 -5 5 -10z"/>
<path d="M4437 2323 c-13 -12 -7 -33 8 -33 8 0 15 5 15 10 0 6 -6 10 -12 10
-9 0 -8 4 2 10 8 5 10 10 4 10 -6 0 -14 -3 -17 -7z"/>
<path d="M351 2274 c0 -11 3 -14 6 -6 3 7 2 16 -1 19 -3 4 -6 -2 -5 -13z"/>
<path d="M4110 2266 c7 -7 13 -7 20 0 6 6 3 10 -10 10 -13 0 -16 -4 -10 -10z"/>
<path d="M306 2254 c-8 -20 -8 -19 27 -28 16 -4 27 -2 27 4 0 10 -14 14 -39
10 -13 -1 -13 1 -2 14 8 9 9 16 3 16 -5 0 -13 -7 -16 -16z"/>
<path d="M608 2193 c7 -3 16 -2 19 1 4 3 -2 6 -13 5 -11 0 -14 -3 -6 -6z"/>
<path d="M355 2180 c-3 -5 -1 -10 4 -10 6 0 11 5 11 10 0 6 -2 10 -4 10 -3 0
-8 -4 -11 -10z"/>
<path d="M735 2140 c-3 -5 -1 -10 4 -10 6 0 11 5 11 10 0 6 -2 10 -4 10 -3 0
-8 -4 -11 -10z"/>
<path d="M680 2126 c0 -2 7 -6 15 -10 8 -3 15 -1 15 4 0 6 -7 10 -15 10 -8 0
-15 -2 -15 -4z"/>
<path d="M180 2100 c0 -13 5 -18 15 -14 8 4 15 12 15 20 0 8 -7 14 -15 14 -8
0 -15 -9 -15 -20z"/>
<path d="M252 2100 c0 -14 2 -19 5 -12 2 6 2 18 0 25 -3 6 -5 1 -5 -13z"/>
<path d="M620 2105 c0 -8 2 -15 4 -15 2 0 6 7 10 15 3 8 1 15 -4 15 -6 0 -10
-7 -10 -15z"/>
<path d="M735 2109 c-11 -17 -2 -18 19 -3 17 12 17 14 4 14 -9 0 -20 -5 -23
-11z"/>
<path d="M312 2102 c-13 -9 -6 -42 9 -42 5 0 9 -7 9 -15 0 -8 5 -15 11 -15 6
0 9 9 6 19 -3 12 1 22 11 26 13 5 12 8 -4 20 -22 17 -25 17 -42 7z m28 -11 c0
-6 -4 -12 -8 -15 -5 -3 -9 1 -9 9 0 8 4 15 9 15 4 0 8 -4 8 -9z"/>
<path d="M70 2090 c0 -4 7 -7 15 -6 23 3 26 12 5 13 -11 1 -20 -2 -20 -7z"/>
<path d="M400 2091 c0 -6 5 -13 10 -16 6 -3 10 1 10 9 0 9 -4 16 -10 16 -5 0
-10 -4 -10 -9z"/>
<path d="M670 2084 c-13 -15 -6 -17 24 -5 17 6 17 8 3 14 -8 3 -21 -1 -27 -9z"/>
<path d="M195 2076 c-11 -7 -34 -13 -51 -12 -27 1 -32 -3 -32 -23 0 -13 3 -19
7 -14 11 18 72 33 90 24 24 -13 51 3 33 21 -6 6 -12 8 -12 3 0 -6 -4 -4 -8 2
-6 10 -12 10 -27 -1z"/>
<path d="M37 2073 c-4 -3 -7 -11 -7 -17 0 -6 5 -5 12 2 6 6 9 14 7 17 -3 3 -9
2 -12 -2z"/>
<path d="M280 2041 c0 -7 -5 -9 -12 -5 -7 5 -8 3 -3 -5 5 -9 10 -10 18 -2 6 6
8 14 4 18 -4 3 -7 1 -7 -6z"/>
<path d="M182 2024 c-15 -16 -16 -34 -2 -34 6 0 10 5 10 10 0 6 7 10 15 10 14
0 20 -12 16 -33 -1 -4 5 -17 13 -28 13 -19 14 -19 18 11 3 17 1 33 -4 36 -5 4
-7 13 -3 22 3 9 3 13 0 10 -4 -4 -17 -3 -29 1 -14 6 -25 4 -34 -5z"/>
<path d="M1556 2013 c-6 -14 -5 -15 5 -6 7 7 10 15 7 18 -3 3 -9 -2 -12 -12z"/>
<path d="M55 2000 c3 -5 8 -10 11 -10 2 0 4 5 4 10 0 6 -5 10 -11 10 -5 0 -7
-4 -4 -10z"/>
<path d="M410 1990 c0 -5 5 -10 11 -10 5 0 7 5 4 10 -3 6 -8 10 -11 10 -2 0
-4 -4 -4 -10z"/>
<path d="M2847 1986 c-3 -6 7 -11 23 -11 31 0 31 10 1 18 -11 2 -22 0 -24 -7z"/>
<path d="M110 1970 c-8 -5 -12 -11 -9 -14 7 -8 49 5 49 15 0 12 -21 11 -40 -1z"/>
<path d="M54 1947 c-7 -18 1 -62 12 -62 5 -1 19 -7 32 -14 20 -11 26 -10 39 6
13 17 14 16 8 -9 -4 -21 -2 -28 10 -28 9 0 13 5 10 10 -3 6 -1 10 6 10 8 0 7
5 -2 17 -12 15 -12 16 4 10 13 -5 17 -1 17 14 0 14 -5 19 -14 16 -8 -3 -20 0
-26 7 -13 17 -59 27 -66 15 -9 -15 -26 -10 -20 6 3 8 3 15 0 15 -2 0 -7 -6
-10 -13z m56 -31 c0 -2 -7 -7 -16 -10 -8 -3 -12 -2 -9 4 6 10 25 14 25 6z"/>
<path d="M420 1930 c-9 -6 -10 -10 -3 -10 6 0 15 5 18 10 8 12 4 12 -15 0z"/>
<path d="M836 1925 c4 -8 10 -12 15 -9 11 6 2 24 -11 24 -5 0 -7 -7 -4 -15z"/>
<path d="M258 1872 c-27 -6 -23 -42 5 -41 20 0 21 1 2 8 -19 8 -19 8 0 19 23
12 18 20 -7 14z"/>
<path d="M195 1860 c3 -5 10 -10 16 -10 5 0 9 5 9 10 0 6 -7 10 -16 10 -8 0
-12 -4 -9 -10z"/>
<path d="M293 1855 c0 -7 6 -12 13 -11 23 3 26 13 6 18 -11 3 -19 0 -19 -7z"/>
<path d="M282 1808 c5 -15 28 -18 29 -3 0 6 -7 12 -17 13 -10 3 -15 -1 -12
-10z"/>
<path d="M420 1810 c0 -5 5 -10 11 -10 5 0 7 5 4 10 -3 6 -8 10 -11 10 -2 0
-4 -4 -4 -10z"/>
<path d="M13 1791 c-10 -16 -9 -19 13 -24 13 -2 24 0 24 4 0 5 -4 9 -9 9 -5 0
-11 7 -13 15 -2 13 -5 12 -15 -4z"/>
<path d="M255 1790 c3 -5 11 -10 16 -10 6 0 7 5 4 10 -3 6 -11 10 -16 10 -6 0
-7 -4 -4 -10z"/>
<path d="M100 1740 c0 -5 6 -10 14 -10 8 0 18 5 21 10 3 6 -3 10 -14 10 -12 0
-21 -4 -21 -10z"/>
<path d="M4115 1740 c-3 -5 -2 -10 4 -10 5 0 13 5 16 10 3 6 2 10 -4 10 -5 0
-13 -4 -16 -10z"/>
<path d="M1340 1605 c0 -8 -9 -15 -20 -15 -11 0 -20 5 -20 11 0 5 -4 8 -10 4
-5 -3 -7 -12 -3 -20 6 -17 53 -20 53 -4 0 6 6 9 13 6 8 -3 14 1 14 9 0 7 -6
15 -14 18 -7 3 -13 -1 -13 -9z"/>
<path d="M4360 1480 c0 -5 5 -10 10 -10 6 0 10 5 10 10 0 6 -4 10 -10 10 -5 0
-10 -4 -10 -10z"/>
<path d="M2743 1463 c9 -2 15 -9 12 -14 -3 -5 1 -6 10 -2 13 5 14 7 3 14 -7 5
-20 8 -28 8 -11 -1 -10 -3 3 -6z"/>
<path d="M1185 1370 c-4 -6 -17 -15 -29 -20 -14 -6 -16 -9 -5 -9 19 -1 56 25
47 34 -3 3 -9 1 -13 -5z"/>
<path d="M1066 1315 c-3 -8 -1 -15 4 -15 6 0 10 7 10 15 0 8 -2 15 -4 15 -2 0
-6 -7 -10 -15z"/>
<path d="M1280 1320 c0 -5 5 -10 10 -10 6 0 10 5 10 10 0 6 -4 10 -10 10 -5 0
-10 -4 -10 -10z"/>
<path d="M780 1300 c0 -5 5 -10 10 -10 6 0 10 5 10 10 0 6 -4 10 -10 10 -5 0
-10 -4 -10 -10z"/>
<path d="M805 1190 c-3 -5 1 -10 10 -10 9 0 13 5 10 10 -3 6 -8 10 -10 10 -2
0 -7 -4 -10 -10z"/>
<path d="M1557 1119 c-4 -16 -3 -18 9 -8 7 6 11 15 8 20 -8 13 -11 11 -17 -12z"/>
<path d="M25 1104 c-9 -14 -15 -27 -13 -30 2 -2 12 10 22 26 21 37 15 40 -9 4z"/>
<path d="M1495 1101 c-3 -5 -1 -12 5 -16 5 -3 10 1 10 9 0 18 -6 21 -15 7z"/>
<path d="M1745 1050 c-3 -5 1 -10 9 -10 9 0 16 5 16 10 0 6 -4 10 -9 10 -6 0
-13 -4 -16 -10z"/>
<path d="M3420 975 c-9 -11 -10 -19 -3 -26 7 -7 14 -5 23 6 9 11 9 15 1 15 -7
0 -9 5 -6 10 10 16 -1 12 -15 -5z"/>
<path d="M1302 971 c2 -7 7 -12 11 -12 12 1 9 15 -3 20 -7 2 -11 -2 -8 -8z"/>
<path d="M3342 960 c0 -14 2 -19 5 -12 2 6 2 18 0 25 -3 6 -5 1 -5 -13z"/>
<path d="M3236 954 c-4 -9 -4 -19 -1 -22 3 -3 5 0 5 7 0 7 4 9 10 6 6 -3 7 1
4 9 -8 20 -10 20 -18 0z"/>
<path d="M560 949 c0 -5 5 -7 10 -4 6 3 10 8 10 11 0 2 -4 4 -10 4 -5 0 -10
-5 -10 -11z"/>
<path d="M710 910 c0 -5 5 -10 11 -10 5 0 7 5 4 10 -3 6 -8 10 -11 10 -2 0 -4
-4 -4 -10z"/>
<path d="M1600 895 c0 -9 5 -15 11 -13 6 2 11 8 11 13 0 5 -5 11 -11 13 -6 2
-11 -4 -11 -13z"/>
<path d="M3546 892 c-3 -6 -1 -14 5 -17 15 -10 25 3 12 16 -7 7 -13 7 -17 1z"/>
<path d="M3245 880 c4 -6 11 -8 16 -5 14 9 11 15 -7 15 -8 0 -12 -5 -9 -10z"/>
<path d="M3862 884 c4 -3 1 -13 -7 -21 -22 -21 -18 -35 8 -31 26 4 33 44 8 53
-8 3 -12 3 -9 -1z"/>
<path d="M567 863 c8 -3 9 -12 3 -28 -12 -31 11 -40 34 -14 25 30 20 46 -16
46 -18 0 -28 -2 -21 -4z m43 -7 c0 -2 -8 -10 -17 -17 -16 -13 -17 -12 -4 4 13
16 21 21 21 13z"/>
<path d="M2375 847 c-20 -28 -1 -51 34 -42 40 10 48 23 25 41 -10 8 -12 12 -4
8 8 -4 12 -3 7 1 -14 16 -48 12 -62 -8z m29 -30 c-9 -5 -18 -6 -21 -3 -4 3 -1
6 5 6 7 0 12 8 12 18 0 14 2 15 10 2 6 -10 4 -17 -6 -23z"/>
<path d="M5230 840 c0 -5 7 -10 16 -10 8 0 12 5 9 10 -3 6 -10 10 -16 10 -5 0
-9 -4 -9 -10z"/>
<path d="M1601 824 c0 -11 3 -14 6 -6 3 7 2 16 -1 19 -3 4 -6 -2 -5 -13z"/>
<path d="M2138 816 c-3 -14 -1 -26 4 -26 14 0 22 30 11 41 -7 7 -12 2 -15 -15z"/>
<path d="M1788 812 c-4 -12 -2 -25 4 -28 16 -10 22 4 11 28 l-10 22 -5 -22z"/>
<path d="M1480 807 c0 -8 7 -14 15 -14 11 0 12 4 4 14 -6 7 -13 13 -15 13 -2
0 -4 -6 -4 -13z"/>
<path d="M2025 811 c-3 -5 -1 -12 5 -16 5 -3 10 1 10 9 0 18 -6 21 -15 7z"/>
<path d="M1820 788 c0 -10 4 -18 9 -18 5 0 11 8 13 18 3 11 0 19 -8 19 -8 0
-14 -9 -14 -19z"/>
<path d="M4080 790 c0 -13 7 -20 20 -20 11 0 20 4 20 10 0 5 -9 14 -20 20 -17
9 -20 8 -20 -10z"/>
<path d="M1433 780 c-1 -16 1 -18 17 -8 20 13 18 28 -3 28 -7 0 -13 -9 -14
-20z"/>
<path d="M3390 768 c0 -8 7 -15 15 -15 18 0 15 19 -3 25 -7 2 -12 -3 -12 -10z"/>
<path d="M1250 766 c0 -2 7 -9 15 -16 13 -11 14 -10 9 4 -5 14 -24 23 -24 12z"/>
<path d="M1470 766 c0 -2 8 -10 18 -17 15 -13 16 -12 3 4 -13 16 -21 21 -21
13z"/>
<path d="M1385 750 c3 -5 8 -10 11 -10 2 0 4 5 4 10 0 6 -5 10 -11 10 -5 0 -7
-4 -4 -10z"/>
<path d="M740 739 c0 -5 5 -7 10 -4 6 3 10 8 10 11 0 2 -4 4 -10 4 -5 0 -10
-5 -10 -11z"/>
<path d="M4125 740 c-3 -5 1 -10 9 -10 8 0 18 5 21 10 3 6 -1 10 -9 10 -8 0
-18 -4 -21 -10z"/>
<path d="M3357 723 c3 -7 9 -13 13 -13 4 0 12 6 18 13 8 9 5 12 -13 12 -14 0
-21 -5 -18 -12z"/>
<path d="M3469 707 c-14 -7 -24 -18 -22 -24 6 -18 23 -16 23 3 0 11 6 14 20 9
15 -5 18 -3 14 9 -3 9 -7 16 -8 15 0 0 -13 -6 -27 -12z"/>
<path d="M5151 694 c0 -11 3 -14 6 -6 3 7 2 16 -1 19 -3 4 -6 -2 -5 -13z"/>
<path d="M1216 675 c-18 -14 -14 -36 7 -34 8 0 8 2 -1 6 -10 4 -8 8 5 18 10 7
16 16 13 18 -3 3 -13 -1 -24 -8z"/>
<path d="M1290 680 c0 -5 5 -10 10 -10 6 0 10 5 10 10 0 6 -4 10 -10 10 -5 0
-10 -4 -10 -10z"/>
<path d="M3295 679 c4 -5 -5 -9 -19 -9 -18 0 -26 -5 -26 -18 0 -10 -5 -23 -12
-30 -9 -9 -9 -12 3 -12 21 0 18 -43 -5 -69 -17 -19 -17 -21 -3 -22 36 -3 40
-4 44 -16 3 -9 -7 -11 -37 -7 -37 5 -41 4 -38 -12 4 -22 43 -31 62 -15 17 14
29 2 15 -16 -9 -10 -8 -13 4 -13 8 0 17 -5 19 -11 2 -7 17 -8 43 -3 35 6 37 8
17 15 -12 5 -22 14 -22 21 0 10 2 10 9 0 6 -11 10 -10 15 3 3 10 2 23 -2 29
-5 6 -8 21 -7 33 1 12 -5 25 -13 28 -13 5 -12 8 4 21 10 9 12 12 4 8 -12 -6
-13 -5 -4 7 6 8 14 29 17 47 6 27 4 32 -13 32 -11 0 -20 4 -20 8 0 4 -9 8 -20
9 -11 1 -18 -2 -15 -8z m28 -61 c8 -29 -15 -44 -25 -17 -8 22 -3 39 11 39 5 0
11 -10 14 -22z m-33 -48 c0 -5 -4 -10 -10 -10 -5 0 -10 5 -10 10 0 6 5 10 10
10 6 0 10 -4 10 -10z"/>
<path d="M1370 669 c0 -5 5 -7 10 -4 6 3 10 8 10 11 0 2 -4 4 -10 4 -5 0 -10
-5 -10 -11z"/>
<path d="M3480 670 c0 -5 7 -7 15 -4 8 4 15 8 15 10 0 2 -7 4 -15 4 -8 0 -15
-4 -15 -10z"/>
<path d="M1625 650 c-16 -7 -17 -9 -3 -9 9 -1 20 4 23 9 7 11 7 11 -20 0z"/>
<path d="M2395 650 c-3 -5 -1 -10 4 -10 6 0 11 5 11 10 0 6 -2 10 -4 10 -3 0
-8 -4 -11 -10z"/>
<path d="M3680 644 c0 -8 5 -12 10 -9 6 4 8 11 5 16 -9 14 -15 11 -15 -7z"/>
<path d="M670 630 c0 -5 5 -10 11 -10 5 0 7 5 4 10 -3 6 -8 10 -11 10 -2 0 -4
-4 -4 -10z"/>
<path d="M2982 624 c-6 -7 -11 -24 -10 -37 2 -19 7 -23 26 -19 32 6 39 29 15
51 -15 14 -21 15 -31 5z"/>
<path d="M1261 564 c0 -11 3 -14 6 -6 3 7 2 16 -1 19 -3 4 -6 -2 -5 -13z"/>
<path d="M3157 560 c-3 -12 0 -20 8 -20 14 0 27 25 18 34 -11 11 -21 6 -26
-14z"/>
<path d="M3420 569 c0 -5 5 -7 10 -4 6 3 10 8 10 11 0 2 -4 4 -10 4 -5 0 -10
-5 -10 -11z"/>
<path d="M2941 536 c-10 -11 -7 -14 14 -12 14 0 24 5 22 10 -5 16 -23 17 -36
2z"/>
<path d="M3675 529 c-11 -17 1 -21 15 -4 8 9 8 15 2 15 -6 0 -14 -5 -17 -11z"/>
<path d="M5150 530 c0 -5 5 -10 11 -10 5 0 7 5 4 10 -3 6 -8 10 -11 10 -2 0
-4 -4 -4 -10z"/>
<path d="M1125 520 c-3 -5 -1 -10 4 -10 6 0 11 5 11 10 0 6 -2 10 -4 10 -3 0
-8 -4 -11 -10z"/>
<path d="M2866 521 c-3 -5 -5 -21 -4 -36 2 -20 5 -23 13 -13 6 7 17 18 24 25
11 9 9 13 -7 22 -12 6 -23 7 -26 2z"/>
<path d="M3060 500 c4 -18 13 -25 30 -25 17 0 24 6 27 25 3 22 -1 25 -30 25
-31 0 -33 -2 -27 -25z"/>
<path d="M1055 509 c-4 -6 -5 -13 -2 -16 7 -7 27 6 27 18 0 12 -17 12 -25 -2z"/>
<path d="M3375 510 c-3 -6 1 -7 9 -4 18 7 21 14 7 14 -6 0 -13 -4 -16 -10z"/>
<path d="M1885 490 c-3 -6 1 -7 9 -4 18 7 21 14 7 14 -6 0 -13 -4 -16 -10z"/>
<path d="M3018 473 c7 -3 16 -2 19 1 4 3 -2 6 -13 5 -11 0 -14 -3 -6 -6z"/>
<path d="M4740 465 c-11 -13 -10 -14 4 -9 9 3 16 10 16 15 0 13 -6 11 -20 -6z"/>
<path d="M3635 460 c-3 -5 -1 -10 4 -10 6 0 11 5 11 10 0 6 -2 10 -4 10 -3 0
-8 -4 -11 -10z"/>
<path d="M3785 460 c-3 -5 -2 -10 4 -10 5 0 13 5 16 10 3 6 2 10 -4 10 -5 0
-13 -4 -16 -10z"/>
<path d="M3740 450 c0 -5 7 -7 15 -4 8 4 15 8 15 10 0 2 -7 4 -15 4 -8 0 -15
-4 -15 -10z"/>
<path d="M3191 434 c0 -11 3 -14 6 -6 3 7 2 16 -1 19 -3 4 -6 -2 -5 -13z"/>
<path d="M3413 434 c0 -16 6 -17 25 -5 11 6 9 9 -5 13 -12 3 -20 0 -20 -8z"/>
<path d="M2823 425 c-9 -10 -10 -21 -3 -40 5 -14 12 -25 15 -25 4 0 3 5 0 10
-11 19 5 30 25 18 22 -14 35 -6 26 18 -3 9 -13 14 -21 11 -9 -4 -12 -1 -8 9 7
18 -18 18 -34 -1z"/>
<path d="M3787 434 c-8 -8 1 -24 14 -24 5 0 9 7 9 15 0 15 -12 20 -23 9z"/>
<path d="M1475 420 c-3 -5 -1 -10 4 -10 6 0 11 5 11 10 0 6 -2 10 -4 10 -3 0
-8 -4 -11 -10z"/>
<path d="M1973 405 c0 -8 4 -12 9 -9 5 3 6 10 3 15 -9 13 -12 11 -12 -6z"/>
<path d="M2785 400 c-3 -5 -1 -10 4 -10 6 0 11 5 11 10 0 6 -2 10 -4 10 -3 0
-8 -4 -11 -10z"/>
<path d="M2919 388 c-1 -5 -3 -12 -4 -18 -1 -5 -4 -12 -5 -15 -3 -5 -7 -20 -9
-32 0 -4 -7 2 -15 12 -8 12 -19 16 -31 12 -27 -11 1 -38 37 -35 36 3 52 27 39
60 -6 13 -11 20 -12 16z"/>
<path d="M3360 380 c0 -6 -4 -8 -10 -5 -5 3 -10 2 -10 -4 0 -17 17 -21 29 -7
8 10 9 16 1 21 -5 3 -10 1 -10 -5z"/>
<path d="M550 369 c0 -5 5 -9 10 -9 6 0 12 0 15 0 14 0 8 13 -7 16 -10 1 -18
-2 -18 -7z"/>
<path d="M1421 364 c0 -11 3 -14 6 -6 3 7 2 16 -1 19 -3 4 -6 -2 -5 -13z"/>
<path d="M2345 360 c3 -5 8 -10 11 -10 2 0 4 5 4 10 0 6 -5 10 -11 10 -5 0 -7
-4 -4 -10z"/>
<path d="M3223 358 c-8 -9 -7 -17 3 -26 12 -11 15 -10 20 3 9 22 -10 40 -23
23z"/>
<path d="M3137 353 c-4 -3 -7 -11 -7 -17 0 -6 5 -5 12 2 6 6 9 14 7 17 -3 3
-9 2 -12 -2z"/>
<path d="M2806 338 c3 -5 10 -6 15 -3 13 9 11 12 -6 12 -8 0 -12 -4 -9 -9z"/>
<path d="M3660 340 c0 -5 5 -10 10 -10 6 0 10 5 10 10 0 6 -4 10 -10 10 -5 0
-10 -4 -10 -10z"/>
<path d="M3355 326 c-24 -17 -14 -46 15 -41 11 2 20 -1 20 -7 0 -6 6 -6 15 2
14 11 13 15 -5 27 -17 12 -24 13 -38 2 -13 -11 -12 -8 2 9 22 25 18 28 -9 8z"/>
<path d="M2317 311 c12 -10 19 -22 15 -26 -4 -5 -1 -5 6 -1 17 10 15 26 -3 26
-8 0 -15 5 -15 10 0 6 -6 10 -12 10 -7 -1 -3 -9 9 -19z"/>
<path d="M1360 311 c0 -6 5 -13 10 -16 6 -3 10 1 10 9 0 9 -4 16 -10 16 -5 0
-10 -4 -10 -9z"/>
<path d="M2413 305 c-3 -9 -3 -18 -1 -21 3 -3 8 4 11 16 6 23 -1 27 -10 5z"/>
<path d="M2550 310 c0 -5 5 -10 10 -10 6 0 10 5 10 10 0 6 -4 10 -10 10 -5 0
-10 -4 -10 -10z"/>
<path d="M3902 308 c5 -15 28 -18 29 -3 0 6 -7 12 -17 13 -10 3 -15 -1 -12
-10z"/>
<path d="M2110 299 c0 -5 5 -7 10 -4 6 3 10 8 10 11 0 2 -4 4 -10 4 -5 0 -10
-5 -10 -11z"/>
<path d="M4580 303 c0 -5 5 -15 10 -23 8 -12 10 -11 10 8 0 12 -4 22 -10 22
-5 0 -10 -3 -10 -7z"/>
<path d="M2474 279 c-3 -6 -2 -15 3 -20 5 -5 9 -1 9 11 0 23 -2 24 -12 9z"/>
<path d="M2804 282 c11 -18 66 -44 66 -32 0 5 8 11 18 11 9 1 1 5 -18 9 -19 4
-44 11 -54 15 -14 6 -17 5 -12 -3z"/>
<path d="M3885 280 c-3 -5 -1 -10 4 -10 6 0 11 5 11 10 0 6 -2 10 -4 10 -3 0
-8 -4 -11 -10z"/>
<path d="M4530 281 c0 -6 4 -12 8 -15 5 -3 9 1 9 9 0 8 -4 15 -9 15 -4 0 -8
-4 -8 -9z"/>
<path d="M1745 269 c-11 -16 -1 -19 13 -3 7 8 8 14 3 14 -5 0 -13 -5 -16 -11z"/>
<path d="M1785 270 c3 -5 8 -10 11 -10 2 0 4 5 4 10 0 6 -5 10 -11 10 -5 0 -7
-4 -4 -10z"/>
<path d="M2675 272 c-11 -12 -4 -18 26 -20 21 -2 30 1 27 10 -5 13 -43 20 -53
10z"/>
<path d="M3164 269 c-6 -11 13 -39 27 -39 5 0 9 9 9 19 0 21 -26 36 -36 20z"/>
<path d="M3230 270 c20 -13 33 -13 25 0 -3 6 -14 10 -23 10 -15 0 -15 -2 -2
-10z"/>
<path d="M3411 266 c-16 -9 -20 -16 -12 -20 6 -4 9 -11 6 -16 -5 -8 17 -20 40
-20 7 0 16 7 19 16 3 8 2 12 -4 9 -13 -8 -13 1 0 26 9 15 7 19 -7 19 -10 -1
-29 -7 -42 -14z"/>
<path d="M3750 260 c0 -11 5 -20 11 -20 5 0 7 -4 4 -10 -3 -5 1 -10 9 -10 9 0
16 -4 16 -10 0 -5 5 -10 11 -10 5 0 7 5 4 10 -4 6 -1 17 5 25 16 19 5 34 -20
28 -11 -3 -20 0 -20 6 0 6 -4 11 -10 11 -5 0 -10 -9 -10 -20z"/>
<path d="M2230 259 c0 -5 5 -7 10 -4 6 3 10 8 10 11 0 2 -4 4 -10 4 -5 0 -10
-5 -10 -11z"/>
<path d="M2420 256 c0 -18 16 -29 30 -21 13 8 1 35 -16 35 -8 0 -14 -6 -14
-14z"/>
<path d="M3685 261 c-6 -11 9 -23 19 -14 9 9 7 23 -3 23 -6 0 -12 -4 -16 -9z"/>
<path d="M2360 236 c0 -8 -6 -17 -12 -19 -7 -3 -1 -5 15 -4 15 1 27 2 27 3 0
1 -3 9 -6 18 -8 20 -24 21 -24 2z"/>
<path d="M2608 243 c7 -3 16 -2 19 1 4 3 -2 6 -13 5 -11 0 -14 -3 -6 -6z"/>
<path d="M435 230 c3 -5 8 -10 11 -10 2 0 4 5 4 10 0 6 -5 10 -11 10 -5 0 -7
-4 -4 -10z"/>
<path d="M2715 231 c-3 -5 -1 -12 5 -16 5 -3 10 1 10 9 0 18 -6 21 -15 7z"/>
<path d="M2917 234 c-10 -11 6 -44 22 -44 13 0 13 2 2 9 -7 5 -11 13 -7 19 7
11 -8 25 -17 16z"/>
<path d="M3227 226 c-6 -15 19 -30 34 -20 6 3 5 11 -2 20 -15 18 -25 18 -32 0z"/>
<path d="M1629 223 c-1 -4 -1 -12 0 -17 1 -5 -5 -4 -13 4 -11 8 -16 9 -16 1 0
-6 -7 -11 -15 -11 -8 0 -15 -8 -15 -17 0 -15 2 -16 10 -3 7 12 11 10 19 -10 5
-14 10 -19 10 -12 1 7 5 10 11 7 5 -3 7 0 4 8 -2 7 4 18 15 23 17 8 17 11 5
22 -8 7 -15 9 -15 5z"/>
<path d="M2290 220 c0 -5 7 -10 16 -10 8 0 12 5 9 10 -3 6 -10 10 -16 10 -5 0
-9 -4 -9 -10z"/>
<path d="M2510 190 c0 -11 2 -20 4 -20 2 0 6 9 9 20 3 11 1 20 -4 20 -5 0 -9
-9 -9 -20z"/>
<path d="M2815 200 c-3 -5 1 -10 9 -10 9 0 16 5 16 10 0 6 -4 10 -9 10 -6 0
-13 -4 -16 -10z"/>
<path d="M4553 198 c3 -9 1 -19 -6 -22 -7 -2 -5 -5 5 -5 24 -1 29 12 10 29
-14 13 -15 12 -9 -2z"/>
<path d="M3126 184 c-8 -22 -8 -24 8 -24 8 0 18 -4 21 -10 4 -6 -1 -7 -12 -4
-15 5 -15 4 -3 -4 10 -8 22 -6 41 5 23 14 25 19 16 35 -14 22 -63 24 -71 2z"/>
<path d="M2215 170 c-10 -11 -16 -22 -14 -24 2 -2 12 7 22 20 22 29 17 32 -8
4z"/>
<path d="M2580 174 c0 -8 5 -12 10 -9 6 4 8 11 5 16 -9 14 -15 11 -15 -7z"/>
<path d="M2645 180 c-3 -5 -1 -10 4 -10 6 0 11 5 11 10 0 6 -2 10 -4 10 -3 0
-8 -4 -11 -10z"/>
<path d="M3819 190 c-7 -37 -4 -50 12 -50 24 0 32 16 20 37 -8 14 -10 15 -11
3 0 -13 -1 -13 -10 0 -5 8 -10 13 -11 10z"/>
<path d="M565 170 c3 -5 8 -10 11 -10 2 0 4 5 4 10 0 6 -5 10 -11 10 -5 0 -7
-4 -4 -10z"/>
<path d="M3391 167 c-6 -8 -7 -18 -3 -22 4 -5 -1 -5 -10 -2 -12 4 -21 -1 -28
-13 -9 -16 -8 -20 5 -20 8 0 15 5 15 10 0 6 9 10 19 10 17 0 31 18 31 41 0 13
-16 11 -29 -4z"/>
<path d="M3457 174 c-9 -10 4 -34 19 -34 8 0 14 9 14 20 0 19 -19 27 -33 14z"/>
<path d="M2375 160 c3 -5 8 -10 11 -10 2 0 4 5 4 10 0 6 -5 10 -11 10 -5 0 -7
-4 -4 -10z"/>
<path d="M476 145 c-3 -8 -1 -15 4 -15 6 0 10 7 10 15 0 8 -2 15 -4 15 -2 0
-6 -7 -10 -15z"/>
<path d="M2235 150 c3 -5 8 -10 11 -10 2 0 4 5 4 10 0 6 -5 10 -11 10 -5 0 -7
-4 -4 -10z"/>
<path d="M418 124 c-26 -25 10 -51 39 -28 17 14 17 15 -4 9 -15 -4 -22 -1 -25
10 -2 9 -6 13 -10 9z"/>
<path d="M1790 120 c0 -5 5 -10 10 -10 6 0 10 5 10 10 0 6 -4 10 -10 10 -5 0
-10 -4 -10 -10z"/>
<path d="M2653 113 c9 -9 20 -13 24 -9 4 4 1 11 -7 16 -25 16 -35 11 -17 -7z"/>
<path d="M2305 100 c-3 -5 -3 -10 2 -10 4 0 18 -3 31 -6 18 -5 21 -3 16 10 -7
18 -39 22 -49 6z"/>
<path d="M5580 70 c-6 -12 -9 -24 -7 -27 3 -2 11 5 17 17 6 12 9 24 7 27 -3 2
-11 -5 -17 -17z"/>
<path d="M5745 80 c3 -5 1 -10 -4 -10 -6 0 -11 -7 -11 -15 0 -18 12 -19 27 -4
13 13 6 39 -9 39 -5 0 -6 -4 -3 -10z"/>
<path d="M1750 70 c0 -5 5 -10 11 -10 5 0 7 5 4 10 -3 6 -8 10 -11 10 -2 0 -4
-4 -4 -10z"/>
<path d="M2525 64 c9 -9 13 -19 9 -23 -4 -3 -9 0 -11 7 -6 17 -23 15 -23 -3 0
-22 34 -37 54 -22 15 11 15 14 1 35 -9 12 -23 22 -31 22 -13 0 -13 -2 1 -16z"/>
<path d="M2650 70 c0 -5 5 -10 11 -10 5 0 7 5 4 10 -3 6 -8 10 -11 10 -2 0 -4
-4 -4 -10z"/>
<path d="M3094 55 c-8 -20 3 -48 16 -40 6 4 8 10 5 15 -3 4 5 10 16 13 12 3
18 10 14 16 -9 16 -45 13 -51 -4z"/>
<path d="M790 45 c0 -18 -12 -19 -28 -3 -9 9 -12 6 -12 -15 0 -20 5 -27 19
-27 11 0 23 9 26 20 3 11 11 20 16 20 5 0 9 5 9 10 0 6 -7 10 -15 10 -8 0 -15
-7 -15 -15z"/>
<path d="M1775 39 c-7 -20 -8 -20 -17 -6 -5 10 -16 17 -23 17 -20 0 -19 -36 0
-44 20 -7 45 3 45 19 0 7 5 15 12 17 9 3 9 6 1 11 -7 4 -14 -2 -18 -14z m-25
-3 c0 -3 -4 -8 -10 -11 -5 -3 -10 -1 -10 4 0 6 5 11 10 11 6 0 10 -2 10 -4z"/>
<path d="M5440 29 c0 -11 4 -18 10 -14 5 3 7 12 3 20 -7 21 -13 19 -13 -6z"/>
<path d="M5540 46 c0 -2 8 -10 18 -17 15 -13 16 -12 3 4 -13 16 -21 21 -21 13z"/>
<path d="M5495 30 c3 -5 8 -10 11 -10 2 0 4 5 4 10 0 6 -5 10 -11 10 -5 0 -7
-4 -4 -10z"/>
<path d="M5685 30 c-3 -6 1 -7 9 -4 18 7 21 14 7 14 -6 0 -13 -4 -16 -10z"/>
<path d="M1030 10 c0 -5 7 -10 16 -10 8 0 12 5 9 10 -3 6 -10 10 -16 10 -5 0
-9 -4 -9 -10z"/>
</g>
</svg>
