<?xml version="1.0" encoding="UTF-8" standalone="no"?>
<!-- Created with Inkscape (http://www.inkscape.org/) -->

<svg
   width="133.61366mm"
   height="26.006645mm"
   viewBox="0 0 133.61366 26.006645"
   version="1.1"
   id="svg5"
   sodipodi:docname="dibujo.svg"
   inkscape:version="1.2.1 (9c6d41e410, 2022-07-14)"
   xmlns:inkscape="http://www.inkscape.org/namespaces/inkscape"
   xmlns:sodipodi="http://sodipodi.sourceforge.net/DTD/sodipodi-0.dtd"
   xmlns="http://www.w3.org/2000/svg"
   xmlns:svg="http://www.w3.org/2000/svg">
  <sodipodi:namedview
     id="namedview7"
     pagecolor="#505050"
     bordercolor="#eeeeee"
     borderopacity="1"
     inkscape:showpageshadow="0"
     inkscape:pageopacity="0"
     inkscape:pagecheckerboard="0"
     inkscape:deskcolor="#d1d1d1"
     inkscape:document-units="mm"
     showgrid="false"
     inkscape:zoom="1.5625561"
     inkscape:cx="83.197012"
     inkscape:cy="22.079207"
     inkscape:window-width="958"
     inkscape:window-height="508"
     inkscape:window-x="-7"
     inkscape:window-y="0"
     inkscape:window-maximized="1"
     inkscape:current-layer="layer1" />
  <defs
     id="defs2">
    <filter
       y="0"
       height="1"
       x="0"
       width="1"
       inkscape:menu-tooltip="Aquarelle paper effect which can be used for pictures as for objects"
       inkscape:menu="Textures"
       inkscape:label="Rough Paper"
       style="color-interpolation-filters:sRGB"
       id="filter6820">
      <feTurbulence
         type="fractalNoise"
         baseFrequency="0.04"
         numOctaves="5"
         seed="0"
         result="result4"
         id="feTurbulence6806" />
      <feDisplacementMap
         in="SourceGraphic"
         in2="result4"
         yChannelSelector="G"
         xChannelSelector="R"
         scale="10"
         result="result3"
         id="feDisplacementMap6808" />
      <feDiffuseLighting
         lighting-color="#e9e6d7"
         diffuseConstant="1"
         surfaceScale="2"
         result="result1"
         in="result4"
         id="feDiffuseLighting6812">
        <feDistantLight
           azimuth="235"
           elevation="40"
           id="feDistantLight6810" />
      </feDiffuseLighting>
      <feComposite
         operator="in"
         in="result3"
         in2="result1"
         result="result2"
         id="feComposite6814" />
      <feComposite
         in2="result1"
         result="result5"
         operator="arithmetic"
         k1="1.7"
         id="feComposite6816"
         k2="0"
         k3="0"
         k4="0" />
      <feBlend
         in="result5"
         in2="result3"
         mode="normal"
         id="feBlend6818" />
    </filter>
    <filter
       y="0"
       height="1"
       x="0"
       width="1"
       inkscape:menu-tooltip="Aquarelle paper effect which can be used for pictures as for objects"
       inkscape:menu="Textures"
       inkscape:label="Rough Paper"
       style="color-interpolation-filters:sRGB"
       id="filter6836">
      <feTurbulence
         type="fractalNoise"
         baseFrequency="0.04"
         numOctaves="5"
         seed="0"
         result="result4"
         id="feTurbulence6822" />
      <feDisplacementMap
         in="SourceGraphic"
         in2="result4"
         yChannelSelector="G"
         xChannelSelector="R"
         scale="10"
         result="result3"
         id="feDisplacementMap6824" />
      <feDiffuseLighting
         lighting-color="#e9e6d7"
         diffuseConstant="1"
         surfaceScale="2"
         result="result1"
         in="result4"
         id="feDiffuseLighting6828">
        <feDistantLight
           azimuth="235"
           elevation="40"
           id="feDistantLight6826" />
      </feDiffuseLighting>
      <feComposite
         operator="in"
         in="result3"
         in2="result1"
         result="result2"
         id="feComposite6830" />
      <feComposite
         in2="result1"
         result="result5"
         operator="arithmetic"
         k1="1.7"
         id="feComposite6832"
         k2="0"
         k3="0"
         k4="0" />
      <feBlend
         in="result5"
         in2="result3"
         mode="normal"
         id="feBlend6834" />
    </filter>
    <filter
       y="0"
       height="1"
       x="0"
       width="1"
       inkscape:menu-tooltip="Aquarelle paper effect which can be used for pictures as for objects"
       inkscape:menu="Textures"
       inkscape:label="Rough Paper"
       style="color-interpolation-filters:sRGB"
       id="filter6852">
      <feTurbulence
         type="fractalNoise"
         baseFrequency="0.04"
         numOctaves="5"
         seed="0"
         result="result4"
         id="feTurbulence6838" />
      <feDisplacementMap
         in="SourceGraphic"
         in2="result4"
         yChannelSelector="G"
         xChannelSelector="R"
         scale="10"
         result="result3"
         id="feDisplacementMap6840" />
      <feDiffuseLighting
         lighting-color="#e9e6d7"
         diffuseConstant="1"
         surfaceScale="2"
         result="result1"
         in="result4"
         id="feDiffuseLighting6844">
        <feDistantLight
           azimuth="235"
           elevation="40"
           id="feDistantLight6842" />
      </feDiffuseLighting>
      <feComposite
         operator="in"
         in="result3"
         in2="result1"
         result="result2"
         id="feComposite6846" />
      <feComposite
         in2="result1"
         result="result5"
         operator="arithmetic"
         k1="1.7"
         id="feComposite6848"
         k2="0"
         k3="0"
         k4="0" />
      <feBlend
         in="result5"
         in2="result3"
         mode="normal"
         id="feBlend6850" />
    </filter>
    <filter
       y="0"
       height="1"
       x="0"
       width="1"
       inkscape:menu-tooltip="Aquarelle paper effect which can be used for pictures as for objects"
       inkscape:menu="Textures"
       inkscape:label="Rough Paper"
       style="color-interpolation-filters:sRGB"
       id="filter6868">
      <feTurbulence
         type="fractalNoise"
         baseFrequency="0.04"
         numOctaves="5"
         seed="0"
         result="result4"
         id="feTurbulence6854" />
      <feDisplacementMap
         in="SourceGraphic"
         in2="result4"
         yChannelSelector="G"
         xChannelSelector="R"
         scale="10"
         result="result3"
         id="feDisplacementMap6856" />
      <feDiffuseLighting
         lighting-color="#e9e6d7"
         diffuseConstant="1"
         surfaceScale="2"
         result="result1"
         in="result4"
         id="feDiffuseLighting6860">
        <feDistantLight
           azimuth="235"
           elevation="40"
           id="feDistantLight6858" />
      </feDiffuseLighting>
      <feComposite
         operator="in"
         in="result3"
         in2="result1"
         result="result2"
         id="feComposite6862" />
      <feComposite
         in2="result1"
         result="result5"
         operator="arithmetic"
         k1="1.7"
         id="feComposite6864"
         k2="0"
         k3="0"
         k4="0" />
      <feBlend
         in="result5"
         in2="result3"
         mode="normal"
         id="feBlend6866" />
    </filter>
    <filter
       y="0"
       height="1"
       x="0"
       width="1"
       inkscape:menu-tooltip="Aquarelle paper effect which can be used for pictures as for objects"
       inkscape:menu="Textures"
       inkscape:label="Rough Paper"
       style="color-interpolation-filters:sRGB"
       id="filter6884">
      <feTurbulence
         type="fractalNoise"
         baseFrequency="0.04"
         numOctaves="5"
         seed="0"
         result="result4"
         id="feTurbulence6870" />
      <feDisplacementMap
         in="SourceGraphic"
         in2="result4"
         yChannelSelector="G"
         xChannelSelector="R"
         scale="10"
         result="result3"
         id="feDisplacementMap6872" />
      <feDiffuseLighting
         lighting-color="#e9e6d7"
         diffuseConstant="1"
         surfaceScale="2"
         result="result1"
         in="result4"
         id="feDiffuseLighting6876">
        <feDistantLight
           azimuth="235"
           elevation="40"
           id="feDistantLight6874" />
      </feDiffuseLighting>
      <feComposite
         operator="in"
         in="result3"
         in2="result1"
         result="result2"
         id="feComposite6878" />
      <feComposite
         in2="result1"
         result="result5"
         operator="arithmetic"
         k1="1.7"
         id="feComposite6880"
         k2="0"
         k3="0"
         k4="0" />
      <feBlend
         in="result5"
         in2="result3"
         mode="normal"
         id="feBlend6882" />
    </filter>
  </defs>
  <g
     inkscape:label="Capa 1"
     inkscape:groupmode="layer"
     id="layer1"
     transform="translate(-38.474042,-110.83382)">
    <path
       style="font-variation-settings:normal;opacity:1;vector-effect:none;fill:#d4b599;fill-opacity:0.72177422;stroke-width:0.264583;stroke-linecap:butt;stroke-linejoin:miter;stroke-miterlimit:4;stroke-dasharray:none;stroke-dashoffset:0;stroke-opacity:1;-inkscape-stroke:none;filter:url(#filter6820);stop-color:#000000;stop-opacity:1"
       id="path6136"
       d="m 148.61375,111.24207 c -3.7488,-0.12884 -7.5005,-0.17293 -11.25086,-0.24477 -7.64713,-0.22936 -15.2979,-0.1855 -22.94699,-0.0625 -1.31834,0.0212 -5.62873,0.28586 -6.9409,0.36219 -6.94519,0.39836 -13.877991,0.97154 -20.805952,1.59605 -5.718955,0.53052 -11.446878,0.91004 -17.186066,1.12188 -5.119994,0.12142 -10.240279,0.23769 -15.361192,0.31546 -1.273633,0.0143 -2.047454,0.0271 -3.286683,0.0268 -0.302855,-8e-5 -0.605684,-0.006 -0.908534,-0.007 -0.123685,-5.3e-4 -0.375357,-0.12279 -0.37106,7.9e-4 0.06965,2.00292 0.130596,1.66292 1.477219,1.64828 4.632108,-0.12272 9.26125,0.0305 13.888286,0.23443 4.519247,0.21042 9.04191,0.34234 13.565436,0.41056 7.730342,0.14738 15.45558,-0.11731 23.183816,-0.1928 4.33907,-0.0376 8.67822,-5.3e-4 13.01732,-0.008 3.33767,0.0337 11.08377,-0.11799 -3.97426,0.0102 -0.77693,0.007 1.55383,0.0179 2.33069,0.03 1.62171,0.0253 2.6484,0.0502 4.2479,0.0854 3.2145,0.0835 6.43,0.10279 9.64535,0.12317 5.54455,0.0563 11.08952,0.0276 16.63429,0.0213 1.81162,0.004 3.62327,0.004 5.43488,0.0142 0.79977,0.0113 1.5996,0.002 2.39939,0.002 0.19581,1.1e-4 0.39486,0.0386 0.58742,0.003 0.12349,-0.0228 0.22306,-0.1154 0.33459,-0.1731 0.009,-0.36492 0.13164,-0.74464 0.0283,-1.09476 -0.12653,-0.42883 -0.77171,-0.60593 -1.10825,-0.71642 -0.90955,-0.29861 -1.84609,-0.44905 -2.78664,-0.6123 -4.03473,-0.53486 -8.09491,-0.85296 -12.15452,-1.12721 -7.61944,-0.35075 -15.25513,-0.31535 -22.87985,-0.20115 -4.17482,0.0774 -8.33722,0.38096 -12.49572,0.73759 -4.139651,0.37562 -8.28415,0.63807 -12.438222,0.7745 -5.26732,0.20005 -10.541336,-0.0142 -15.80579,0.24658 -3.605726,0.19381 -7.104994,1.18402 -10.580407,2.09817 0.04074,-0.12686 -1.555009,0.34213 -1.36238,0.83957 0.192823,0.49793 0.510308,1.17038 1.042279,1.21642 4.11381,0.35605 8.258839,0.015 12.38745,-0.0541 1.107022,-0.0185 2.209546,-0.14637 3.314975,-0.20856 1.412499,-0.0795 2.825785,-0.14427 4.238675,-0.2164 11.015316,-0.50976 22.04328,-0.62772 33.06862,-0.68137 1.60502,-0.003 3.21291,-0.10433 4.81506,-0.008 1.27701,0.0764 -5.0642,-0.29536 -3.83728,0.067 1.44387,0.42639 3.01005,0.0787 4.51459,0.13305 3.79097,0.13686 7.5783,0.34767 11.3649,0.57122 1.93502,0.13555 3.87342,0.2272 5.80719,0.38142 0.24803,0.0198 0.49546,0.0465 0.74305,0.0713 0.0889,0.009 0.27998,0.11805 0.2664,0.0297 -0.0628,-0.40811 -0.2933,-0.77199 -0.43995,-1.15798 -0.39161,0.10029 -0.78518,0.19317 -1.17482,0.30087 -3.57932,0.98939 -2.46957,0.79361 -6.79534,1.75424 -3.83996,0.85274 -6.85486,1.41257 -10.76163,2.05497 -1.79769,0.29561 -3.60215,0.54852 -5.40323,0.82279 -6.43302,0.97167 -12.9059,1.61685 -19.401446,1.95298 -5.812692,0.22776 -11.63158,0.22385 -17.447823,0.23182 2.058419,-0.009 4.117313,0.0177 6.175253,-0.0276 0.932958,-0.0205 -1.866228,-0.0252 -2.799164,-0.0467 -3.154276,-0.0727 -6.287363,-0.25784 -9.427303,-0.56191 -3.630652,-0.36107 -7.213227,-1.05997 -10.803779,-1.68691 -2.216385,-0.45675 -4.488346,-0.50635 -6.722591,-0.81669 0.09914,0.43098 0.01225,0.95493 0.297418,1.29295 0.169238,0.20061 0.525857,0.0154 0.787352,-0.007 0.535816,-0.0461 1.06653,-0.13994 1.601134,-0.19846 3.251968,-0.35597 6.510071,-0.54993 9.775137,-0.73923 7.593111,-0.37514 15.195897,-0.48518 22.797095,-0.52398 -1.709769,0.006 -3.420525,-0.041 -5.129307,0.0174 -1.321356,0.0451 2.644219,0.0137 3.966315,0.0223 4.740045,0.0308 9.479783,0.0908 14.219819,0.12458 6.31842,0.028 12.63553,0.161 18.95362,0.22641 5.26661,0.056 10.53111,0.22195 15.79686,0.32128 1.23085,0.0179 2.46177,0.0316 3.69248,0.0578 0.24778,0.005 0.73569,-0.0184 1.0152,0.0403 18.51612,-2.15258 11.86606,-1.69545 7.74761,-1.64926 -2.3398,0.0263 -4.67963,0.0372 -7.01955,0.047 -5.44081,0.0284 -10.88166,0.0257 -16.32237,-0.0174 -5.64465,-0.0401 -11.28961,-0.0268 -16.93439,-0.0544 -1.85716,-7.9e-4 -3.71428,0.0107 -5.57143,0.0126 -2.38433,-0.0862 -4.753324,0.12468 -7.116564,0.41384 -3.081467,0.4322 -6.154316,0.91754 -9.246761,1.26623 -3.199186,0.35264 -6.407923,0.56101 -9.62401,0.66353 -2.572382,0.044 -5.145894,0.10546 -7.714167,0.26262 -0.537814,0.20533 -1.174901,-0.0462 -1.722184,0.13264 -0.563592,0.18416 -0.176194,1.18785 0.437851,1.66198 0.314225,0.24262 0.793552,0.0294 1.190532,0.0326 0.718074,0.006 1.436193,-0.004 2.154288,-0.006 9.248405,-0.12157 18.495499,-0.10348 27.74215,0.1105 7.932455,0.24516 15.866965,0.40123 23.800965,0.58479 5.20925,0.15345 10.42015,0.22354 15.63058,0.32068 3.48089,0.082 6.96327,0.11604 10.44316,0.2369 0.44796,0.022 0.29634,-0.02 0.47092,0.0318 -0.10852,-0.55535 -0.88266,-1.56703 -0.32554,-1.66604 3.17679,-0.56453 6.45313,0.01 9.67969,0.004 0.52039,-0.001 -1.0407,-0.0129 -1.56105,-0.0189 -0.88323,-0.0102 -1.76648,-0.0198 -2.64971,-0.0296 -12.52294,-0.20445 -25.04805,-0.15295 -37.57181,-0.0902 -8.46705,0.15139 -16.92861,0.50191 -25.392822,0.75648 -3.043462,0.0984 -6.088277,0.12751 -9.133096,0.13485 17.796428,0.49143 7.168403,-0.15401 3.048515,-0.35341 -2.424281,-0.0911 -4.850436,-0.10142 -7.275589,-0.1541 -3.454241,-0.15673 -6.91289,-0.12886 -10.369687,-0.14179 -3.231462,-0.094 -6.474579,0.0665 -9.704099,-0.10243 0.61023,4.95383 0.775105,1.7124 -9.703588,1.65561 -0.458219,-0.002 0.916323,-0.0151 1.374502,-0.0216 2.735956,-0.0386 5.47202,-0.0574 8.208158,-0.078 8.464722,0.046 16.926494,0.30577 25.388551,0.50701 7.837011,0.25767 15.675097,0.47672 23.513805,0.67549 9.08509,0.24459 18.17062,0.51899 27.24845,0.96252 2.19117,0.13348 4.38382,0.26347 6.56898,0.47807 0.3185,0.0313 0.63644,0.0684 0.95399,0.10816 0.16305,0.0204 0.46883,0.2357 0.48762,0.0724 0.0569,-0.49409 -0.21897,-0.9703 -0.32846,-1.45544 -0.30963,-0.01 -0.61926,-0.0398 -0.92888,-0.0297 -0.72368,0.0237 -1.445,0.0966 -2.16824,0.13127 -1.00064,0.048 -2.00191,0.0822 -3.00311,0.11649 -4.32112,0.14803 -8.64157,0.21993 -12.96473,0.27231 -6.05052,0.075 -12.10133,0.007 -18.15197,0.0174 -4.25654,0.0517 -8.50855,0.25622 -12.763752,0.36376 -4.1921,0.0976 -8.385473,0.0978 -12.578437,0.0992 -0.552852,5e-5 -1.105707,-2.5e-4 -1.658561,1.4e-4 -0.555824,2.7e-4 -1.11165,-5.3e-4 -1.667465,0.002 -0.655265,0.003 -2.621018,0.0131 -1.965751,0.0156 14.834195,0.0571 6.779175,0.008 3.470841,-0.005 -2.230326,-0.01 -4.460605,-0.0277 -6.690791,-0.0542 -0.650063,0.0181 -3.310906,-0.41863 -1.062562,1.51538 0.291677,0.2509 0.767475,-0.0556 1.151213,-0.0834 5.795653,-0.36089 11.584686,-0.81116 17.383133,-1.12982 4.491251,-0.24683 8.886425,-0.43446 13.379542,-0.63744 9.59475,-0.41669 19.18959,-0.84023 28.77979,-1.35263 4.82254,-0.19121 9.63469,-0.5631 14.45251,-0.83738 1.06399,-0.0519 1.19137,-0.062 2.18606,-0.0976 0.23655,-0.008 0.47952,0.0329 0.70978,-0.0219 0.62876,-0.14977 0.52926,-1.06213 0.21369,-1.48317 -0.24035,-0.32067 -0.75221,-0.27671 -1.12832,-0.41507 -0.69435,-0.0763 -1.38713,-0.16854 -2.08305,-0.22891 -3.98204,-0.34545 -7.98438,-0.49082 -11.97444,-0.70426 -5.04802,-0.27002 -5.13038,-0.28209 -10.12999,-0.57861 -6.50563,-0.33872 -12.9878,-0.98983 -19.47823,-1.52759 -3.496046,-0.25645 -6.988739,-0.55365 -10.482692,-0.8363 -0.334515,-0.0228 -0.66893,-0.0472 -1.003548,-0.0685 -0.288327,-0.0184 -0.576866,-0.0332 -0.865262,-0.0504 -0.20203,-0.0121 -0.404119,-0.0233 -0.60602,-0.0374 -0.01871,-0.001 -0.05715,-0.0275 -0.05559,-0.009 0.153328,1.83873 -0.325052,1.65617 0.851331,1.55917 5.223094,-0.27549 10.453091,-0.38416 15.681201,-0.52089 5.96952,-0.15569 11.94096,-0.17976 17.91211,-0.183 -15.25366,-0.0314 -6.68185,-0.0105 -3.31962,0.10653 1.59964,0.0557 3.19805,0.14194 4.79637,0.22601 2.12318,0.11596 4.25002,0.13172 6.37538,0.18107 0.5831,0.0622 2.10228,0.28006 -0.50019,-1.635 -0.40555,-0.29842 -2.01359,0.0303 -1.51011,0.0366 2.37702,0.0293 4.75464,-0.005 7.13154,0.0328 1.13967,0.0183 -2.27957,0.0194 -3.41936,0.0268 -1.30129,0.008 -2.60258,0.0136 -3.90387,0.0204 -6.27603,0.0445 -12.55183,-0.0119 -18.82748,-0.0725 -4.35062,0.006 -8.70113,0.021 -13.051736,-8e-4 -7.623455,-0.0102 -15.246577,0.0503 -22.869802,-0.0153 1.367078,0.0107 -3.102084,-0.0271 -2.326519,-0.0291 3.364328,-0.009 6.757556,-0.44889 10.093013,-0.009 4.426548,0.5838 -1.956546,1.82059 0.822727,1.32323 0.447532,-0.0801 0.887989,-0.19564 1.331984,-0.29346 7.016403,-1.43821 14.08099,-2.63349 21.164763,-3.68669 6.00027,-0.89535 12.0516,-1.30221 18.11078,-1.46931 6.72566,0.005 -2.95558,-0.005 -5.39233,0.0285 -0.54097,0.007 1.08164,0.0315 1.62205,0.0573 1.29207,0.0618 2.5636,0.19531 3.84531,0.36099 0.66387,0.0976 0.89001,0.12124 1.50321,0.24169 0.0957,0.0188 0.26612,0.16192 0.28507,0.0662 0.0409,-0.20646 -0.11501,-0.94927 -0.48304,-1.01994 -0.22747,-0.0437 -0.45765,0.0719 -0.68648,0.1078 -3.59837,0.63072 -7.19547,1.25727 -10.81198,1.77621 -7.312,1.03332 -14.67669,1.63601 -22.041077,2.14241 -9.045644,0.51982 -18.107851,0.65818 -27.166652,0.67988 -0.81448,-0.003 -1.628987,-0.003 -2.44344,-0.0102 -0.516631,-0.005 -1.036199,-0.0822 -1.549742,-0.0256 -0.147254,0.0162 -0.489526,0.14314 -0.37551,0.23772 0.713177,0.59164 1.489105,1.19051 2.384542,1.42892 1.127289,0.30016 2.332072,0.0756 3.497011,0.13712 1.635683,0.0864 3.269538,0.20462 4.904306,0.30693 6.705298,0.54165 13.405696,1.21057 20.067084,2.1583 3.10823,0.44222 5.977933,0.93659 9.071188,1.45024 1.38108,0.2299 2.76275,0.4563 4.14325,0.68969 3.78617,0.64008 3.30931,0.60248 7.05244,1.14946 2.63645,0.38526 5.28105,0.70277 7.926,1.0222 -0.56248,-1.50201 1.71395,0.88642 1.76588,0.29206 0.0436,-0.49864 -0.0753,-1.09058 -0.43692,-1.43664 -0.25869,-0.24755 -0.71609,-0.0134 -1.07412,-0.009 -1.60867,0.0181 -3.21705,0.0582 -4.82572,0.077 -1.13381,0.007 -4.53486,-0.008 -3.40142,0.0212 1.61779,0.0421 3.23756,-0.0382 4.85496,0.0166 1.4199,0.0482 -2.84141,0.003 -4.26212,0.003 -4.24944,5.3e-4 -8.49888,-0.005 -12.74831,-0.0121 -9.065169,-0.0579 -18.130233,-0.007 -27.194641,0.10545 -2.803647,0.0922 -5.626145,-0.0474 -8.425878,0.17266 -0.319162,0.0251 -0.78285,-0.14398 -0.951881,0.1279 -0.24375,0.39207 0.0076,0.92329 0.01132,1.38493 0.438407,0.13014 0.863219,0.32089 1.315217,0.39041 0.593212,0.0912 4.119856,0.2041 4.520798,0.21698 3.718996,0.11954 7.437654,0.23448 11.15627,0.36768 8.551463,0.31289 17.097266,0.75749 25.646555,1.122 6.79788,0.2986 13.60967,0.33771 20.41112,0.14009 4.63574,-0.14274 9.27329,-0.16996 13.91084,-0.16691 1.75516,0.0161 3.51103,-0.001 5.26603,0.0345 0.1535,0.003 0.61237,0.0371 0.46031,0.0159 -3.68597,-0.51362 -7.37626,-0.99568 -11.0644,-1.49352 -0.30805,0.0486 -0.61847,0.0841 -0.92416,0.14593 -0.62107,0.12559 -1.23532,0.28302 -1.85485,0.41604 -1.53877,0.3304 -4.92926,1.02281 -6.31633,1.2817 -4.02494,0.75125 -4.77688,0.82881 -8.96574,1.46899 -7.43023,1.02256 -14.90985,1.6481 -22.400898,1.98398 -1.759662,0.0646 -3.520546,0.0979 -5.281324,0.11056 -0.587801,0.004 -2.351233,0.009 -1.763443,0.004 8.461626,-0.0758 10.655657,0.1183 5.966225,-0.19162 -1.850949,-0.18359 -3.719283,-0.29697 -5.539386,-0.70437 -0.76691,-0.17167 -1.018929,-0.26506 -1.747427,-0.49145 -2.622997,-0.9732 -5.379408,-1.49341 -8.1153,-2.03719 -1.580941,-0.30211 -3.151963,-0.65015 -4.704548,-1.07437 -0.496044,-0.16169 -0.717937,-0.32395 -0.08244,0.94728 0.05919,0.1184 0.247968,0.1122 0.380323,0.11426 0.320955,0.005 0.638852,-0.0634 0.95844,-0.0934 2.419606,-0.22739 1.836658,-0.16804 4.883171,-0.41081 9.888971,-0.62263 19.796365,-0.82817 29.701797,-0.96712 4.95196,-0.0598 9.90432,-0.0725 14.85658,-0.0774 1.04162,-0.001 4.16648,-0.0101 3.12488,-0.003 -2.06233,0.0149 -4.12474,0.0165 -6.18711,0.0247 4.55201,0.0221 9.10499,0.14679 13.64604,0.46958 0.34091,0.0278 0.68199,0.0536 1.02273,0.0834 0.57788,0.0505 1.68165,0.39127 0.6682,-1.01326 -0.13047,-0.18082 -0.43993,-0.10317 -0.66261,-0.0916 -0.45761,0.0237 -0.90705,0.13092 -1.36058,0.19638 -6.79298,0.79408 -13.63809,1.04414 -20.46549,1.3781 -8.1138,0.36696 -16.227993,0.73732 -24.344534,1.04013 -5.033896,0.24885 -10.071216,0.39362 -15.110648,0.45333 -2.59666,0.0223 -5.193485,0.0133 -7.790037,-0.0162 16.570992,-0.0168 10.350812,-0.52645 -0.280572,1.61047 -0.563499,0.11326 1.145704,0.0992 1.720062,0.12102 1.169585,0.0444 2.340247,0.0534 3.510428,0.0773 8.690861,0.178 2.408547,0.0231 11.726275,0.27661 9.367528,0.24367 18.727946,0.69069 28.094546,0.95975 4.66237,0.13117 9.32581,0.21272 13.98992,0.23663 6.48225,0.0102 12.96449,0.006 19.44672,0.0229 2.23816,0.0127 4.47632,0.002 6.71449,10e-4 0.36503,0.001 0.73006,0.002 1.09509,0.004 0.30386,0.002 0.60776,0.003 0.91158,0.008 0.17037,0.003 0.45875,0.18083 0.51088,0.0186 0.17243,-0.53669 0.58427,-1.60984 0.0264,-1.69093 -1.30379,-0.18954 -8.96783,-0.0192 -12.88154,0.0633 -6.95079,0.0804 -13.90219,0.10947 -20.85342,0.12034 -4.51249,-0.0567 -9.02744,0.0556 -13.53976,-0.006 -1.20936,-0.0165 4.83785,-0.005 3.6284,-0.0135 -3.97934,-0.0266 -7.95887,-0.0132 -11.938232,-0.0353 -8.409001,-0.0191 -16.817668,-0.1104 -25.22515,-0.2693 -5.172951,-0.1089 -10.351053,-0.0596 -15.523075,-0.007 -1.082127,0.011 -2.16122,0.11671 -3.242,0.17178 -2.413717,0.0561 -4.813467,0.40102 -7.228898,0.37983 3.502646,0.0957 7.005293,0.19132 10.507937,0.28698 0.156274,0.30411 0.135972,0.83411 0.468815,0.91233 0.589249,0.13847 1.179849,-0.27258 1.774595,-0.38511 1.084397,-0.20518 2.171729,-0.39567 3.261855,-0.56782 2.956806,-0.46693 5.24646,-0.73968 8.226594,-1.12373 1.371822,-0.15171 2.742187,-0.31721 4.115461,-0.45512 1.338395,-0.13441 2.677346,-0.26701 4.019127,-0.36179 6.096627,-0.43062 12.224896,-0.39188 18.33255,-0.4375 -0.555529,-0.0103 -2.222201,-0.0283 -1.666584,-0.031 9.044705,-0.0437 18.091055,0.0816 27.135485,0.14199 5.84112,0.0528 11.68183,0.0304 17.51803,0.29959 3.97099,0.20705 7.94013,0.44758 11.90804,0.70639 2.67775,0.20996 5.35967,0.39519 8.02888,0.69988 0.63268,0.094 0.72558,0.18925 0.084,-1.37218 -0.0616,-0.1499 -0.30685,-0.11914 -0.46856,-0.12969 -0.37206,-0.0243 -0.74546,0.0187 -1.11824,0.0261 -1.90263,0.0379 -2.40889,0.0403 -4.48823,0.0673 -7.45617,-0.005 -14.90609,0.30002 -22.35499,0.59017 -4.61338,0.21112 -9.23058,0.30199 -13.84845,0.30656 -0.42461,-0.004 -1.69847,-0.009 -1.27384,-0.011 3.32197,-0.008 6.64394,-0.015 9.96592,-0.0225 0.13213,0.40982 0.0283,1.00604 0.3964,1.22946 0.37535,0.22782 0.86784,-0.13436 1.30222,-0.19847 3.27299,-0.48303 1.99302,-0.30345 5.72593,-0.72905 6.8221,-0.72456 13.6759,-1.07162 20.53156,-1.2533 1.81851,-0.0331 3.63952,-0.0357 5.45372,-0.18208 0.29947,-0.0242 0.61569,0.0115 0.89622,-0.0961 0.15385,-0.059 0.40434,-0.22779 0.32517,-0.3723 -0.30441,-0.55574 -0.86174,-0.92922 -1.2926,-1.39382 -0.77056,-0.0634 -1.54055,-0.13433 -2.31168,-0.19032 -2.11061,-0.15326 -4.54589,-0.28337 -6.64055,-0.41673 -3.78666,-0.24109 -7.56896,-0.52756 -11.35124,-0.82853 -4.59533,-0.39592 -9.18538,-0.85476 -13.77377,-1.32438 -0.19225,-0.0337 -0.38168,-0.0945 -0.57675,-0.1012 -0.032,-0.001 -0.065,0.0494 -0.054,0.0795 0.11643,0.3179 0.12202,0.76616 0.42149,0.92406 0.28347,0.14947 0.62604,-0.13733 0.93889,-0.20677 2.08468,-0.4627 0.86271,-0.21208 3.20993,-0.65398 4.83594,-0.76728 9.74361,-0.89277 14.62769,-1.09138 4.69105,-0.28163 9.39009,-0.47072 14.07405,-0.85796 0.47456,-0.0625 0.95281,-0.10147 1.4237,-0.18741 0.30504,-0.0557 0.70525,0.005 0.89965,-0.23658 0.85752,-1.06563 -0.60503,-1.70023 -1.27115,-1.949 -0.62053,-0.23174 -4.21378,-0.66445 -4.6014,-0.71596 -5.86548,-0.64748 -11.73676,-1.24223 -17.60603,-1.85506 -1.68351,-0.23913 -3.39678,-0.31814 -5.06896,-0.6425 -0.17497,-0.0339 -0.42413,-0.30655 -0.51266,-0.15187 -0.3841,0.67107 0.77891,0.70861 0.91263,0.73476 4.89621,-1.29096 9.92071,-1.88998 14.94944,-2.36653 4.00913,-0.37079 8.04108,-0.43852 12.05145,-0.78359 0.007,-0.5189 1.08717,0.21776 1.24198,-0.17038 0.3563,-0.89326 0.24596,-1.40939 -0.59703,-1.63315 -0.0354,-0.009 -1.89708,-0.0697 -1.9252,-0.0707 -2.06921,-0.0626 -4.11555,-0.39104 -6.16586,-0.64954 -3.20574,-0.37115 -6.43616,-0.43453 -9.65937,-0.50473 -4.68173,0.0489 -11.26261,-0.69475 -15.10935,-0.0949 -0.55773,0.087 0.0416,1.12818 0.0625,1.69227 3.4561,-0.0951 6.91391,-0.0684 10.37084,-0.0555 2.12907,0.037 4.26227,-0.0357 6.38946,0.0801 0.1569,0.012 0.3138,0.0241 0.4707,0.0361 0,0 10.54741,-1.58466 10.54741,-1.58466 v 0 c -0.17986,-0.0148 -0.35972,-0.0296 -0.53957,-0.0444 -2.31347,-0.15939 -4.63209,-0.0329 -6.9493,-0.0578 -3.18191,0.01 -6.36603,0.0495 -9.54642,-0.066 -0.39638,5.12344 0.43294,1.71079 -10.46947,1.67233 -0.25214,-8e-4 0.50414,-0.0124 0.75626,-0.0155 1.34357,-0.0165 2.68734,-0.007 4.0309,0.002 3.1657,0.0378 6.33778,0.0845 9.48885,0.41913 2.00453,0.25053 3.98937,0.67849 6.01264,0.75266 0.03,0.002 1.55188,0.11226 1.68828,0.0766 0.55239,-0.14431 0.56483,-1.17346 0.52857,-1.45026 -0.0405,-0.30904 -1.12589,0.7918 -0.92563,0.13212 -3.6282,0.36505 -7.26857,0.60146 -10.89744,0.96032 -5.42879,0.54941 -10.8727,1.16198 -16.18543,2.44706 -0.62017,0.44107 -1.71891,0.77829 -1.00265,1.87694 0.16558,0.25398 0.56848,0.21961 0.86593,0.27826 0.48584,0.0958 0.98196,0.12942 1.47423,0.18315 1.39589,0.15237 2.79716,0.25259 4.19245,0.41084 5.86034,0.53266 11.72395,1.06626 17.56045,1.82005 0.76119,0.11408 1.52467,0.21382 2.28356,0.34224 0.55126,0.0933 1.0871,0.30599 1.64594,0.32271 0.63407,0.019 1.38724,-0.49065 1.07833,-0.76116 -0.45072,-0.39468 -1.39223,1.27242 -1.76586,0.33464 -4.59701,0.45737 -9.21495,0.58678 -13.82536,0.8518 -4.96168,0.26023 -9.9468,0.41074 -14.8616,1.18862 -0.93089,0.16153 -2.64599,0.44626 -3.60913,0.65915 -0.42019,0.0929 -0.9297,0.035 -1.25014,0.3222 -0.41758,0.3743 -1.02283,1.38222 -0.24183,1.72468 0.27451,0.12037 0.5903,0.10456 0.88545,0.15684 4.99826,0.29841 9.98424,0.75221 14.97559,1.14502 6.32018,0.48001 12.65057,0.88219 18.95316,1.55771 0.26272,-0.35643 0.54039,-0.70232 0.78816,-1.0693 0.0297,-0.044 0.0909,-0.14831 0.0382,-0.15461 -0.20723,-0.0248 -0.4126,0.0649 -0.62033,0.085 -1.58776,0.15415 -3.18518,0.16616 -4.77691,0.25176 -6.71511,0.30515 -13.42108,0.74849 -20.1141,1.38021 -1.09419,0.10229 -5.37261,0.48571 -6.64813,0.66291 -0.6638,0.0922 -1.46121,-0.0586 -1.97612,0.37036 -0.4071,0.33913 -0.85748,1.47264 -0.33393,1.55406 2.45586,0.3819 8.02959,0.17635 11.83546,0.0455 4.42087,-0.10519 8.84457,-0.15939 13.25932,-0.43494 7.44293,-0.44988 14.89588,-0.71209 22.35371,-0.54429 1.7601,0.0167 3.52017,0.0381 5.28031,0.0501 0.48444,0.003 0.97018,0.0391 1.45335,0.004 0.26842,-0.0195 0.67274,0.0752 0.78989,-0.16712 0.213,-0.44052 0.13681,-0.99795 8e-4,-1.46795 -0.0411,-0.14205 -0.29381,-0.0341 -0.44071,-0.0512 -2.89407,-0.19299 -5.78605,-0.41026 -8.67887,-0.62021 -4.02469,-0.30139 -8.05483,-0.5121 -12.08619,-0.70216 -2.11272,-0.10033 -2.76616,-0.14725 -4.91314,-0.18245 -4.57777,-0.0751 -9.15725,0.0382 -13.73516,0.0181 -14.01935,0.0155 -28.03861,0.0162 -42.057881,-0.0504 -6.329926,-0.002 -12.682977,-0.0662 -19.000243,0.41253 -1.330494,0.10083 -2.657715,0.2424 -3.984267,0.38606 -1.340988,0.14522 -2.678568,0.32034 -4.017849,0.48051 -2.847549,0.36081 -5.693495,0.7342 -8.541118,1.0944 -1.334958,0.16886 -2.673077,0.313 -4.006482,0.49371 -0.86156,0.11676 -1.801027,0.008 -2.577671,0.39861 -0.452276,0.22759 -1.289577,1.20781 -0.791118,1.29665 3.512304,0.62598 7.128479,0.31204 10.692718,0.46806 2.269323,-0.13683 4.531709,-0.37075 6.803315,-0.47041 0.562296,-0.0251 1.124419,-0.0544 1.686886,-0.0751 0.558549,-0.0206 2.234975,-0.0444 1.676066,-0.0491 -2.89911,-0.0243 -5.798428,-0.004 -8.697634,-0.01 -0.417206,-8e-4 0.834408,-0.004 1.251611,-0.006 1.967976,-0.0104 1.08,-0.004 3.26431,-0.0293 9.018837,-0.0881 18.03848,-0.11423 27.057443,-0.0231 3.793042,0.0306 7.585733,0.0999 11.378814,0.12426 8.90442,0.0573 17.80894,0.0472 26.71344,0.0376 7.45763,0.0114 14.91537,0.0441 22.37263,0.12027 0.61161,0.0102 2.44648,0.0256 1.83481,0.0305 -3.225,0.0261 -6.49788,0.58549 -9.67527,0.0328 -0.55728,-0.0969 0.0953,-1.12728 0.14288,-1.69093 -0.0919,0.006 -0.18368,0.0163 -0.27579,0.0186 -0.26849,0.007 -0.53712,0.007 -0.80569,0.008 -0.34712,0.002 -0.69425,0.003 -1.04137,0.004 -2.22439,-5.3e-4 -4.44878,-0.0104 -6.67315,0.006 -0.28861,0.001 -2.32616,0.0104 -2.56498,0.0116 -0.48248,0.002 -1.92993,0.007 -1.44745,0.008 15.97877,0.0326 8.08666,-0.003 4.56735,0.008 -4.94714,8e-4 -9.89455,0.003 -14.84114,-0.0825 -9.77404,-0.18457 -19.54706,-0.44163 -29.317581,-0.76034 -1.911882,-0.0814 -3.824247,-0.15208 -5.735648,-0.24411 -1.509363,-0.0727 -3.018231,-0.15631 -4.526438,-0.24998 -3.487727,-0.21662 -14.726825,-1.2031 -14.663484,1.27621 0.09304,3.64197 7.286305,-0.006 10.929459,-0.009 2.347724,-0.0312 4.69534,-0.0698 7.042777,-0.1184 4.874,-0.10371 9.746853,-0.25907 14.613403,-0.55721 7.879322,-0.4034 15.757812,-0.81882 23.640652,-1.15072 7.33481,-0.32598 14.68047,-0.55614 21.99402,-1.22815 0.16397,-0.0195 2.48182,-0.15818 2.79381,-0.61246 1.04268,-1.51826 -0.51334,-1.44437 -1.22632,-1.48616 -0.39223,-0.023 -0.78454,-0.0446 -1.17681,-0.0669 -4.82418,-0.2568 -9.65625,-0.31023 -14.48592,-0.39224 -9.8425,-0.021 -19.68604,-0.0668 -29.5265,0.18529 -10.079663,0.23702 -20.158517,0.52985 -30.233491,0.91857 -1.307732,0.0491 -2.615925,0.0872 -3.923194,0.14735 -0.247779,0.0114 -2.868737,0.13486 -3.474826,0.28961 -0.221382,0.0565 -0.511421,0.11799 -0.602014,0.32774 -0.511098,1.18335 -0.318799,1.13395 0.286136,1.40613 1.689952,0.57634 3.488267,0.77626 5.231569,1.12966 2.640841,0.44189 5.302361,0.90942 7.787828,1.943 1.003329,0.33671 2.010103,0.65526 3.053834,0.84688 1.593308,0.29253 3.21573,0.3347 4.822616,0.5113 5.813623,0.50003 1.659282,0.19303 13.736103,0.27912 2.290628,0.0163 4.584159,-0.0438 6.869639,-0.19712 7.01027,-0.5452 13.99735,-1.36391 20.96871,-2.27375 1.6887,-0.23525 3.37948,-0.45609 5.06611,-0.70576 5.09487,-0.75418 10.15364,-1.75874 15.27631,-2.31781 -3.37499,-0.55498 -6.74699,-1.1285 -10.12498,-1.66493 -0.0822,-0.013 -0.16587,0.0147 -0.24904,0.0175 -0.23163,0.008 -0.46342,0.0103 -0.69515,0.0144 -1.30608,0.0231 -2.61232,0.0369 -3.91842,0.0581 -4.68624,0.0635 -9.3729,0.0853 -14.05891,0.15821 -4.57171,0.0582 -2.87895,0.0273 6.63947,0.0445 0.53379,0.001 -1.06755,-0.005 -1.60133,-0.009 -2.0859,-0.0131 -4.17174,-0.035 -6.25738,-0.0721 -8.76846,-0.18194 -17.535691,-0.47674 -26.290443,-1.01078 -3.399949,-0.17877 -6.799189,-0.35948 -10.200172,-0.51644 -0.740241,-0.0342 -1.480746,-0.0637 -2.220505,-0.10703 -0.547719,-0.0321 -1.092994,-0.11745 -1.64165,-0.11924 -0.27587,-7.9e-4 -0.546737,0.0742 -0.820107,0.11124 -0.118073,0.36797 -0.44204,0.72757 -0.354217,1.10391 0.04528,0.19401 0.39247,-0.072 0.590918,-0.0896 0.447604,-0.0396 0.896676,-0.0615 1.34557,-0.0817 2.175137,-0.0978 4.353513,-0.11322 6.530295,-0.13543 2.503144,-0.026 5.004835,-0.0744 7.507587,-0.12406 0.97396,-0.0193 3.895389,-0.0172 2.92195,-0.0544 -1.607408,-0.0616 -11.011694,-0.0294 -1.413463,-0.0491 11.169497,-0.002 22.339127,0.0253 33.508507,0.0661 1.8874,0.0122 3.77506,0.0621 5.66224,0.0307 0.53559,-0.009 1.20559,0.27853 1.60509,-0.0783 0.39177,-0.34992 0.42823,-1.0735 0.22827,-1.55924 -0.3226,-0.78364 -2.61849,1.08202 -2.53306,-0.21676 -2.13586,-0.17834 -3.07156,-0.2438 -5.28633,-0.48805 -5.0184,-0.55345 -10.00111,-1.37511 -14.98871,-2.14905 -2.62945,-0.42311 -6.62581,-1.07753 -9.24426,-1.45197 -6.61601,-0.94609 -13.27444,-1.53569 -19.920398,-2.223 -1.400876,-0.14452 -2.800596,-0.30072 -4.202628,-0.43356 -0.946476,-0.0897 -1.915761,-0.44594 -2.84253,-0.23392 -0.591886,0.13541 -0.903417,0.81204 -1.372055,1.19809 -0.109416,0.0901 -0.496655,0.19395 -0.359035,0.22796 1.010812,0.24985 2.135503,-0.66091 3.121925,-0.10512 8.771236,-0.21878 17.54324,-0.43124 26.307491,-0.85795 7.70696,-0.44721 15.40728,-1.04931 23.06377,-2.05775 3.94458,-0.51973 7.8829,-1.08948 11.81302,-1.70861 0.29038,-0.0742 0.61259,-0.071 0.87115,-0.22259 0.60177,-0.35277 0.79164,-0.97906 0.51787,-1.64196 -0.0624,-0.15121 -0.30154,-0.12993 -0.45959,-0.17216 -0.57335,-0.15322 -1.14577,-0.20174 -1.73361,-0.27636 -0.7013,-0.0868 -1.87603,-0.23731 -2.55496,-0.29785 -0.98132,-0.0875 -2.39314,-0.16833 -3.36286,-0.17298 -9.89685,-0.0475 -8.29095,-0.0619 -13.93625,0.0338 -2.02692,0.0768 -2.94806,0.0955 -4.98345,0.23855 -4.13018,0.29019 -8.2382,0.83502 -12.329259,1.46152 -7.480316,1.18646 -14.947921,2.45636 -22.446448,3.5254 -0.581152,0.082 -1.165678,0.14286 -1.743454,0.24597 -0.303688,0.0542 -0.744429,-0.0424 -0.897599,0.22536 -0.250137,0.4373 -0.592735,1.43632 -0.09414,1.50841 4.040333,0.58417 8.582779,0.0242 12.81944,0.0192 2.695372,-0.026 5.390812,-0.0397 8.086323,-0.0348 0.848908,0.002 3.395604,0.008 2.546702,0.0109 -2.508427,0.01 -5.016892,0.006 -7.525337,0.009 4.353234,-0.0205 8.706365,-0.008 13.059612,-5.3e-4 6.57284,-0.0558 13.14585,-0.11421 19.71901,-0.0687 6.329,0.0373 12.65696,0.0516 18.98632,0.0821 0.65905,0.003 1.40044,0.35505 1.97686,0.0355 3.34269,-1.85292 1.07455,-1.66232 0.52844,-1.64533 -2.2284,0.01 -4.45682,-0.0181 -6.68395,-0.0973 -7.10284,-0.23512 -14.20384,-0.53272 -21.31504,-0.31323 -5.73231,0.0807 -11.4641,0.2008 -17.195872,0.31169 -5.678871,0.12561 -11.357764,0.25063 -17.037571,0.32676 -1.308272,0.0157 -1.304886,-0.30747 -1.181696,1.64357 0.0065,0.10266 0.204947,0.0192 0.307745,0.0229 0.552712,0.0197 1.106332,0.007 1.658657,0.042 0.358683,0.0131 0.717206,0.0302 1.075809,0.0454 3.709787,0.19805 7.415028,0.47394 11.121094,0.7299 6.922264,0.48539 13.840304,1.04799 20.774304,1.34709 4.79472,0.28059 9.58842,0.56107 14.37798,0.92127 2.28582,0.17191 3.90711,0.29107 6.12222,0.54424 0.53559,0.0612 1.06851,0.14386 1.60277,0.2158 0.23188,-0.0158 0.54831,0.1324 0.69563,-0.0474 0.21768,-0.26563 0.14473,-0.67321 0.17523,-1.01529 0.003,-0.035 -0.0434,-0.069 -0.0785,-0.0703 -0.19336,-0.007 -0.38573,0.0311 -0.57864,0.0461 -0.28072,0.0218 -0.56155,0.0423 -0.84225,0.0644 -0.36048,0.0284 -0.72086,0.0581 -1.08129,0.0872 -4.45677,0.37979 -8.91258,0.77394 -13.38148,0.98778 -9.06936,0.56362 -18.13929,1.1248 -27.214686,1.58275 -11.143265,0.53203 -22.286822,1.14038 -33.441756,1.35753 -0.506759,0.0152 -1.111477,-0.25432 -1.520279,0.0455 -2.509068,1.84045 0.281381,1.78907 1.091342,1.73262 2.450468,-0.0245 4.901004,-0.0419 7.35158,-0.0505 7.184583,-0.0237 14.369174,0.0125 21.553683,0.004 4.088122,-0.0281 8.176004,-0.0876 12.263386,-0.16989 4.30126,-0.10425 8.60053,-0.28801 12.90329,-0.31962 5.61269,-0.0162 11.2237,-0.17702 16.83601,-0.23454 5.68672,-0.0761 11.37324,-0.1524 17.0598,-0.23515 0.94405,-0.0137 1.88855,0.002 2.83235,-0.024 0.48187,-0.0133 0.96207,-0.0626 1.4431,-0.0939 0.0382,-0.51712 0.30226,-1.06801 0.11449,-1.55134 -0.0899,-0.23138 -0.49434,-0.0465 -0.74197,-0.0638 -0.42111,-0.0294 -0.84263,-0.0528 -1.26413,-0.0761 -2.52312,-0.13969 -5.0478,-0.25118 -7.5727,-0.35296 -9.11862,-0.28039 -18.23657,-0.56783 -27.3515,-0.95555 -7.92174,-0.26693 -15.84797,-0.36269 -23.769583,-0.63976 -8.26225,-0.21466 -16.524703,-0.42136 -24.787251,-0.62402 -2.769757,-0.0234 -5.541013,-0.0911 -8.310642,-0.10167 -3.763502,-0.0143 -7.567417,-0.57496 -11.290557,-0.0251 -0.554794,0.0819 0.0551,1.12027 0.08265,1.6804 3.539638,-0.10817 7.083226,-0.0334 10.623756,-0.0487 3.217809,0.03 6.43637,0.07 9.650933,0.22868 2.447915,0.10111 4.900687,0.0141 7.348951,0.12932 5.773089,0.23401 11.487835,0.98656 17.302405,0.38836 2.856744,-0.0218 5.713421,-0.0821 8.565338,-0.26093 7.85749,-0.43879 15.71625,-0.90317 23.58729,-1.00935 -0.62029,-0.0181 -2.48139,-0.0536 -1.86084,-0.0545 7.35705,-0.01 14.71555,0.17957 22.06826,0.40977 1.13539,0.0573 2.26957,0.15721 3.40635,0.16794 6.96763,0.0658 11.05474,3.69047 11.7591,-1.61163 0.0379,-0.28519 -1.43337,0.76283 -0.86304,0.009 -3.75114,0.0212 -7.50233,-0.0254 -11.25268,-0.10156 -5.38887,-0.12094 -10.7782,-0.15988 -16.16787,-0.23636 -8.17142,-0.15318 -16.34322,-0.28635 -24.514,-0.47263 -8.73314,-0.17914 -17.467377,-0.22598 -26.201053,-0.36246 -0.569958,-0.0155 -1.139918,-0.0309 -1.70987,-0.0464 -0.30829,-0.008 -0.705326,-0.24216 -0.924859,-0.0256 -0.331504,0.32709 -0.265107,0.89293 -0.404564,1.33727 -0.01553,0.0494 -0.111085,0.13389 -0.06013,0.14336 0.469566,0.0873 0.957164,-0.37068 1.427062,-0.12836 2.51823,-0.12683 5.03877,-0.18515 7.558614,-0.26892 3.164152,-0.14578 6.323208,-0.37488 9.467781,-0.76452 3.170822,-0.3738 6.329509,-0.83618 9.498439,-1.22436 2.39713,-0.23689 4.79799,-0.34588 7.20758,-0.28519 1.91023,0.002 3.82043,0.0134 5.73066,0.0126 0.85572,-0.004 1.71147,-0.007 2.56718,-0.0136 0.35469,-0.003 1.41874,-0.008 1.06404,-0.01 -8.09138,-0.0265 -11.77254,0.012 -6.79809,-0.0313 5.51217,-0.0396 11.02447,-0.0482 16.53673,-0.0166 2.13796,0.01 4.27586,0.0195 6.41367,0.0487 0.41358,0.006 0.82715,0.0129 1.2407,0.0207 0.25084,0.005 0.50403,0.0521 0.75247,0.0172 3.7007,-0.52121 7.38962,-1.12285 11.08443,-1.68427 -1.83646,0.10422 -3.6818,0.002 -5.51938,0.0392 -5.55921,-0.0203 -11.11865,-0.048 -16.67665,-0.17732 -6.29112,-0.15186 -12.58483,-0.21443 -18.87755,-0.24919 -10.35571,-0.0374 -20.710781,-0.14309 -31.066659,-0.13471 -1.293593,-0.004 -2.587215,-0.0203 -3.880776,-0.0107 -6.234221,0.0461 -12.463936,0.39707 -18.692961,0.61531 -3.664738,0.17053 -7.328479,0.32865 -10.987336,0.60152 -0.672002,0.0501 -1.346404,0.0786 -2.015117,0.16185 -0.407823,0.0508 -0.953619,-0.0822 -1.209442,0.2394 -0.30929,0.38886 -0.106482,0.988 -0.159724,1.482 0.967642,0.16555 0.299263,0.075 1.601013,0.15077 1.895411,0.11035 3.788595,0.27965 5.664774,0.57662 3.726653,0.63048 7.455032,1.26598 11.211316,1.69616 2.000877,0.2174 2.627344,0.30967 4.640366,0.43109 6.741718,0.40662 13.512813,0.045 20.255166,0.23732 5.930178,-0.008 11.862948,0.009 17.78948,-0.23029 2.09945,-0.12285 2.78868,-0.14178 4.86553,-0.34666 4.39009,-0.43307 8.73521,-1.2237 13.08925,-1.91275 1.78082,-0.29798 9.45105,-1.57856 10.99341,-1.84906 3.74175,-0.65623 6.6953,-1.22761 10.39114,-1.92565 1.18253,-0.22335 2.36977,-0.42289 3.54775,-0.66907 0.57375,-0.11991 1.13691,-0.28585 1.70537,-0.42877 0.14807,-0.52202 0.47295,-1.02421 0.44422,-1.56606 -0.01,-0.18005 -0.35263,-0.0814 -0.53234,-0.0959 -0.35017,-0.0283 -0.70231,-0.0213 -1.05346,-0.0323 -2.24459,-0.0703 -4.48888,-0.14966 -6.73277,-0.23983 -6.17802,-0.24763 -0.79439,-0.0292 -7.57018,-0.31265 -2.1304,-0.0891 -6.85059,-0.29767 -8.95412,-0.32257 -4.35046,-0.0515 -8.70134,-0.0639 -13.0521,-0.0679 -1.51741,-0.001 -3.03463,0.0347 -4.55195,0.052 -11.152177,0.14672 -22.305778,0.2757 -33.453248,0.64923 -1.552786,0.0507 -3.10538,0.10756 -4.658357,0.15203 -1.307608,0.0374 -5.230527,0.0444 -3.923313,0.0937 2.519259,0.095 5.070126,-0.33212 7.563025,0.0436 0.394694,0.0595 -0.449281,0.66 -0.664657,0.99606 -0.01185,0.0185 -0.03596,0.0705 -0.01487,0.0642 0.259389,-0.0767 0.506627,-0.18977 0.759941,-0.28466 3.32408,-0.98197 6.721089,-1.78623 10.1986,-1.92587 5.214686,-0.24394 10.437927,-0.14195 15.656214,-0.25193 2.018115,-0.0562 2.572875,-0.0547 4.515185,-0.16937 2.66935,-0.15761 5.32896,-0.44645 7.99529,-0.6439 4.1721,-0.31793 8.34722,-0.59783 12.53235,-0.66635 4.03336,-0.0575 4.804,-0.0568 -5.33354,-0.0473 -0.75282,7.9e-4 1.50559,0.0117 2.25834,0.022 2.16189,0.0297 4.32354,0.084 6.48328,0.18738 3.89739,0.21094 7.79316,0.49951 11.65469,1.08695 0.83623,0.14479 1.68168,0.27919 2.50576,0.48657 0.0921,0.0232 0.6636,0.33215 0.78602,-0.003 0.10805,-0.29588 0.0837,-0.6244 0.12561,-0.9366 -0.2998,-0.1339 -0.0766,-0.0558 -0.67984,-0.0554 -0.7898,5.3e-4 -1.57965,-0.009 -2.36943,0.003 -1.74712,0.011 -3.4943,0.0115 -5.24144,0.0165 -4.354,-0.003 0.1644,5.3e-4 8.11465,-0.003 0.3278,-1.6e-4 -0.65558,-0.002 -0.98337,-10e-4 -1.15811,0.003 -2.31621,0.0168 -3.47433,0.0169 -3.31333,-8e-4 -6.62662,-0.0219 -9.93971,-0.0624 -2.19668,-0.0292 -4.39483,-0.10294 -6.59141,-0.11714 -5.21613,-0.0337 -10.43256,-0.0431 -15.64883,-0.0448 -4.18578,0.001 -8.371155,0.0619 -12.55681,0.0882 -2.618767,0.0185 -5.237644,0.0339 -7.856321,0.0629 -0.695447,0.008 -1.390864,0.0176 -2.086274,0.028 -0.611711,0.009 -2.446845,0.0259 -1.835084,0.0306 2.602926,0.0202 5.206,0.0105 7.809,0.0158 -4.631248,-0.0416 -9.26262,-0.11351 -13.889651,-0.32868 -4.341688,-0.18996 -8.683276,-0.39836 -13.03025,-0.40904 -1.285751,-0.0298 -0.848503,-0.27559 -1.130059,1.62959 -0.0054,0.0363 0.07189,-0.0161 0.108489,-0.019 0.198573,-0.016 0.397402,-0.0296 0.596445,-0.0377 0.423318,-0.0173 0.846913,-0.0271 1.270426,-0.0387 0.565571,-0.0155 1.13121,-0.0284 1.696818,-0.0426 4.965388,-0.13455 9.930823,-0.26766 14.896057,-0.40544 5.725631,-0.23675 11.44618,-0.59408 17.147781,-1.18016 6.842673,-0.67852 13.695163,-1.25707 20.564053,-1.59679 1.16252,-0.0631 2.32468,-0.13302 3.48755,-0.18918 1.14802,-0.0554 4.58771,-0.0221 3.44501,-0.14563 -1.83039,-0.19784 -3.68297,-0.006 -5.52256,-0.0789 -1.17128,-0.0465 2.34447,-0.0144 3.51658,-5.3e-4 1.13999,0.0134 2.27958,0.051 3.41922,0.0821 1.06894,0.0291 2.13767,0.0658 3.2065,0.0987 3.3118,0.13122 6.62511,0.2335 9.93535,0.39716 0,0 10.61438,-1.59772 10.61438,-1.59772 z" />
    <path
       style="font-variation-settings:normal;opacity:1;vector-effect:none;fill:#d4b599;fill-opacity:0.72177422;stroke-width:0.264583;stroke-linecap:butt;stroke-linejoin:miter;stroke-miterlimit:4;stroke-dasharray:none;stroke-dashoffset:0;stroke-opacity:1;-inkscape-stroke:none;filter:url(#filter6836);stop-color:#000000;stop-opacity:1"
       id="path6138"
       d="m 159.08413,131.33927 c -7.44249,0.11629 -14.88878,-0.0274 -22.33138,-0.11668 -8.61411,-0.0435 -17.22512,-0.21124 -25.83274,-0.54425 -4.97111,-0.19272 -9.93995,-0.43715 -14.909546,-0.6642 -2.102419,-0.10245 -4.207549,-0.0834 -6.311617,-0.0775 -0.403039,0.10555 -32.574708,-0.13703 -4.707511,0.053 0.295277,0.45213 0.388779,1.14533 0.885835,1.35639 0.558792,0.23727 1.205445,-0.14538 1.808832,-0.2122 1.031275,-0.11421 2.06297,-0.22471 3.095099,-0.3309 5.728419,-0.58938 11.461028,-1.02159 17.204918,-1.43022 10.0934,-0.71399 20.20706,-1.056 30.31327,-1.52663 3.66109,-0.17442 7.32439,-0.30944 10.98958,-0.34816 -3.2273,0.009 -6.45461,0.0143 -9.68189,0.0261 -0.41585,0.002 0.6253,0.10778 0.49861,-0.0994 -0.11637,-0.19026 -0.23886,-0.47356 -0.46163,-0.48432 -0.40015,-0.0193 -0.74816,0.2884 -1.13069,0.40742 -0.6246,0.19436 -1.25927,0.35477 -1.88891,0.53215 -6.74267,1.43129 -13.65804,1.69242 -20.51923,2.08145 -7.06112,0.28408 -14.03706,1.43792 -21.017122,2.45462 -4.605695,0.6837 -9.251987,0.9823 -13.902328,1.10942 -0.54098,0.008 -1.081934,0.0189 -1.622943,0.0251 -1.13859,0.0131 -1.777349,0.012 -2.903593,0.0119 -0.451385,-4e-5 -1.805533,-7.9e-4 -1.354148,-0.001 8.901464,-0.007 11.864903,0.0125 7.737234,-0.0117 -2.068883,0.003 -4.136255,-0.0238 -6.202849,-0.12239 -2.133746,-0.14795 -4.26906,-0.27326 -6.401753,-0.43587 -1.005155,-0.0958 -2.01163,-0.17347 -3.018345,-0.25002 -0.243451,-0.0185 -0.486236,-0.0471 -0.730131,-0.0583 -0.0312,-10e-4 -0.100325,-0.009 -0.09137,0.0206 0.144364,0.48252 0.347869,0.94533 0.521803,1.41799 8.848132,-0.71485 17.726104,-0.89085 26.597385,-1.07671 11.73603,-0.2681 23.47482,-0.34455 35.2134,-0.38652 6.20903,0.0202 12.41762,-0.0301 18.6263,-0.0868 1.89044,0.0503 3.76869,-0.13191 5.60868,-0.55619 1.56228,-0.29257 3.10363,-0.73536 4.5888,-1.30162 0.2243,-0.41828 1.09519,-0.15544 1.33789,-0.57597 0.35573,-0.61636 0.054,-1.45705 -0.6561,-1.67075 -0.75652,-0.22767 -5.72221,-0.22742 -5.8529,-0.22934 -11.91267,-0.005 -23.82393,5.3e-4 -35.73495,-0.21624 -9.0279,-0.17857 -18.048358,-0.58591 -27.071454,-0.91118 -5.289809,-0.15061 -10.577946,-0.32778 -15.869623,-0.39515 -2.515487,-0.0592 -5.033182,-0.0377 -7.548356,-0.11338 -0.760016,-0.0229 -0.746496,-0.28345 -0.733145,0.0368 0.197842,0.41625 0.178205,1.04897 0.593532,1.24876 0.490657,0.23602 1.081559,-0.12702 1.623206,-0.18243 0.973595,-0.0996 1.948103,-0.19011 2.922397,-0.28261 5.432559,-0.51578 10.869937,-0.94807 16.310125,-1.37515 6.27584,-0.5223 12.566274,-0.82505 18.851508,-1.20201 5.66403,-0.33969 11.32392,-0.68874 16.99145,-0.96781 5.07209,-0.19643 10.14656,-0.41116 15.22304,-0.45756 0.83214,-0.008 3.32866,-0.004 2.49652,0.005 -2.50116,0.025 -5.00248,0.0303 -7.50372,0.0455 3.05237,0.0545 6.06813,0.5136 9.06876,1.03417 3.03031,0.55537 6.11531,0.64416 9.18586,0.76123 1.26296,0.0472 0.69987,0.0128 1.53651,0.0748 0.0164,0.001 -0.0426,0.0111 -0.0493,-0.004 -0.2289,-0.52009 -0.15701,-1.28895 -0.64665,-1.5773 -0.51204,-0.30155 -1.18345,0.11057 -1.77635,0.15035 -0.86149,0.0578 -1.72424,0.0949 -2.58636,0.1423 -9.47047,0.62726 -18.96388,0.76882 -28.45135,0.90576 -9.44036,0.11443 -18.88147,0.0801 -28.322248,0.0832 -1.418635,8e-4 -5.674466,0.0167 -4.255902,0.003 1.500814,-0.0149 3.002198,0.0308 4.502658,-0.005 1.29849,-0.031 -2.597708,-0.006 -3.896564,-0.009 -3.56144,-0.01 -7.122858,-0.0149 -10.684306,-0.022 -5.257207,-5.3e-4 -10.514176,-0.0341 -15.771257,-0.0641 -5.171503,-0.0447 -10.343041,-0.0297 -15.514767,-0.0357 -0.314952,-2.6e-4 -1.259787,-0.005 -0.944837,-0.006 3.134021,-0.007 6.268053,-0.008 9.402077,-0.0119 -1.43832,-0.0605 -2.881011,-0.0545 -4.317527,-0.15682 -0.166311,-0.0119 -0.441486,-0.21062 -0.497329,-0.0535 -0.0972,0.27347 0.144402,0.5622 0.216604,0.84331 0.329329,0.10926 0.641006,0.3269 0.987986,0.32779 0.788622,0.002 1.561195,-0.22557 2.344235,-0.31926 1.206042,-0.1443 2.413939,-0.27323 3.6225,-0.39464 5.970288,-0.59979 11.947818,-0.96709 17.936477,-1.32661 10.082014,-0.56271 20.177532,-0.8118 30.27349,-0.92092 2.67047,-0.0225 5.34103,-0.0207 8.01154,-0.0118 0.67959,0.002 2.71835,0.007 2.03876,0.008 -2.59739,0.004 -5.1948,5.3e-4 -7.79219,5.3e-4 -0.68824,3e-5 1.37646,-2.1e-4 2.06469,-2.6e-4 3.97626,-0.009 7.95249,0.0123 11.92872,0.0255 7.29596,-0.002 14.59208,-0.0357 21.88803,-0.0579 4.34437,-0.01 8.67747,-0.3132 13.00891,-0.61112 0.45539,-0.0427 0.91094,-0.0837 1.36618,-0.12796 0.36768,-0.0358 0.73538,-0.0716 1.10257,-0.11219 0.26141,-0.0289 0.52859,-0.0299 0.78314,-0.0961 0.67191,-0.17462 0.95369,-0.96951 0.0183,-1.65153 -0.48854,-0.35621 -1.20526,-0.098 -1.80788,-0.14695 -9.33262,-0.0757 -18.66601,-0.0363 -27.99894,-0.0447 -12.245,-0.0329 -24.49004,-0.0329 -36.735022,-0.0719 2.817783,-0.0408 -9.568979,0.0228 -7.177032,-0.0213 2.06716,-0.0382 4.135893,0.0254 6.202421,-0.0385 0.889476,-0.0275 -1.779387,-0.0403 -2.66877,-0.0706 -1.656742,-0.0565 -3.233299,-0.14222 -4.887122,-0.22541 -3.172568,-0.16159 -6.335154,-0.44453 -9.491326,-0.79845 -0.27685,-0.0356 -0.553702,-0.0713 -0.830551,-0.10696 -0.05369,-0.0101 -0.187317,-0.078 -0.161065,-0.0301 0.274312,0.50044 0.385635,1.27085 0.931823,1.43627 1.071758,0.32459 2.23725,-0.10756 3.356684,-0.13745 4.209034,-0.11237 7.761986,-0.11517 12.011501,-0.14626 6.252268,-0.0184 12.504559,0.004 18.756799,0.0241 1.77229,0.006 3.54476,-0.006 5.31688,0.0197 1.0943,0.016 -4.37744,-0.0116 -3.28324,0.0101 1.50634,0.0298 3.01325,0.01 4.51988,0.0144 8.67881,0.10257 17.37924,0.0263 26.02497,-0.80623 1.22881,-0.12308 2.45767,-0.24707 3.68864,-0.34699 0.5501,-0.0447 1.1076,-0.0524 1.65094,-0.15255 -0.12998,-0.53098 0.0622,-1.28575 -0.38995,-1.59293 -0.5343,-0.36298 -1.29184,0.008 -1.93776,0.0116 -4.16569,0.0239 -8.33158,0.0245 -12.49708,0.0712 -1.18841,0.0133 -2.37576,0.0765 -3.5638,0.10898 -3.89483,0.1063 -5.11565,0.12151 -9.10832,0.19869 -1.69232,0.0247 -3.38534,0.0197 -5.07697,0.0741 -0.97779,0.0315 3.91275,0.0247 2.9349,-0.005 -1.73148,-0.0529 -3.46446,-0.0328 -5.19646,-0.0639 -4.65455,-0.0837 -9.30741,-0.24945 -13.960066,-0.40107 -8.591256,-0.38027 -17.19082,-0.31205 -25.787932,-0.30264 -2.119199,0.004 -4.238159,0.0385 -6.357337,0.0451 -1.720881,0.003 -3.441742,0.002 -5.162611,-0.005 3.239474,-1.1e-4 6.47895,5.3e-4 9.718424,-2.7e-4 0.348319,-1e-4 -0.697169,0.01 -1.044908,-0.0103 -0.0081,-5.3e-4 0.01789,-0.0226 0.01945,-0.0147 0.108391,0.56189 -0.02201,1.21915 0.303688,1.68966 0.155985,0.22533 0.546262,-0.0449 0.819394,-0.0673 5.218342,-0.65848 10.483249,-0.88629 15.733643,-1.12461 6.321833,-0.28696 8.896075,-0.36729 15.295675,-0.60249 13.91535,-0.54824 27.83401,-0.94195 41.75887,-1.12158 2.97551,-0.0258 5.93851,-0.0591 8.91353,-0.058 1.21108,5.3e-4 4.84395,-0.01 3.6332,0.0189 -2.00871,0.0477 -4.01904,-0.0115 -6.0277,0.0379 -0.80335,0.0198 1.60687,0.0316 2.41022,0.0511 0.6209,0.0151 1.24167,0.035 1.8625,0.0525 1.74035,0.0543 3.4761,0.19484 5.21124,0.33344 -0.0563,-0.31648 -0.20729,-1.19136 -0.27085,-1.23655 -0.27625,-0.19642 -0.67567,0.0557 -1.01306,0.0884 -0.66657,0.0646 -1.33126,0.14933 -1.99877,0.2034 -2.65466,0.215 -4.10865,0.25013 -6.87947,0.37313 -10.79615,0.32369 -21.59755,0.45037 -32.39807,0.51275 -6.17492,0.0161 -3.13425,0.0109 -8.93654,0.0163 -1.27145,0.001 -5.08563,0.0244 -3.81435,0.004 1.9062,-0.0312 3.81408,0.035 5.71926,-0.0348 1.02163,-0.0374 -2.04447,-0.032 -3.06634,-0.0624 -1.04743,-0.0311 -2.09421,-0.0815 -3.14131,-0.12224 -5.755783,-0.32421 -11.512565,-0.63784 -17.265467,-1.01014 -3.9199,-0.2177 -7.793897,-0.86001 -11.680708,-1.37327 -3.724008,-0.51207 -7.468846,-0.85066 -11.214987,-1.15071 -1.285041,-0.11 -2.572382,-0.18056 -3.861845,-0.20117 -4.980622,-0.12565 -9.959207,0.0133 -14.938922,0.0315 -1.000546,-0.002 -0.952371,-0.0178 -1.898457,0.0383 -0.20797,0.0123 -0.456835,-0.0768 -0.623102,0.0487 -0.564388,0.42613 0.06503,1.47025 0.314079,1.69829 0.232201,0.21261 0.611582,0.14983 0.917374,0.22475 4.1494,0.64681 8.329933,1.05743 12.48233,1.69133 3.613843,0.54992 7.194269,1.2899 10.777482,2.00714 0.584501,0.1167 1.73347,0.33891 2.356421,0.48736 0.233455,0.0556 0.463278,0.12554 0.694809,0.18869 0.0663,0.0181 0.210183,0.12279 0.198694,0.055 -0.147253,-0.86849 -0.351266,-0.58274 -1.007914,-0.44353 -4.691618,1.4841 -9.591886,2.09648 -14.457145,2.69929 -1.730227,0.22622 -3.47557,0.32564 -5.205997,0.55082 -0.568519,0.074 -1.158333,0.0818 -1.697559,0.2765 -0.265623,0.0959 -0.736669,0.30246 -0.631672,0.56463 0.837272,2.09058 3.054694,1.56282 4.764863,1.71082 8.30135,0.43014 16.61596,0.38224 24.924713,0.47882 7.446856,0.0866 8.992417,0.14792 16.313832,0.32871 8.120998,0.22866 16.242368,0.58085 24.340288,1.25024 3.97458,0.32854 4.90219,0.46052 8.73861,0.89361 5.70824,0.64584 11.40575,1.38404 17.12223,1.95501 3.79019,0.41077 7.60347,0.41473 11.41035,0.45065 5.84954,0.0765 11.69982,-5.3e-4 17.54951,0.0559 0.15024,-0.0202 0.40263,0.0832 0.45071,-0.0606 0.14748,-0.44092 0.17832,-0.95174 0.0359,-1.39432 -0.0646,-0.20087 -0.36562,-0.22699 -0.5719,-0.2714 -0.29659,-0.0639 -0.60586,-0.0331 -0.9089,-0.0474 -2.24677,-0.10647 -0.40368,7.9e-4 -3.0265,-0.16861 -4.76688,-0.36832 -9.52474,-0.84017 -14.27982,-1.33557 0,0 -9.75254,1.45283 -9.75254,1.45283 v 0 c 4.68963,0.38126 9.37236,0.84445 14.04674,1.38167 0.50391,0.0502 1.00791,0.0993 1.5117,0.1505 0.0979,0.01 1.54413,0.18707 1.83092,0.14218 0.12324,-0.0193 0.28413,-0.0701 0.32319,-0.18861 0.13811,-0.41895 0.20705,-0.87252 0.1716,-1.31223 -0.007,-0.0921 -0.1849,2.6e-4 -0.27735,5.3e-4 -0.76447,0.0143 -0.62117,0.013 -1.49434,0.0219 -0.36154,0.004 -1.44617,0.009 -1.08462,0.01 2.9068,0.007 5.81362,10e-4 8.72042,0.009 0.5372,0.002 -1.07438,0.008 -1.61158,0.0102 -0.62149,0.003 -1.24299,0.003 -1.86449,0.004 -3.83558,-0.0168 -7.67407,-0.0657 -11.50057,-0.35494 -6.05909,-0.48168 -12.09468,-1.20776 -18.14473,-1.78781 -4.19568,-0.41783 -4.95629,-0.519 -9.30048,-0.84029 -8.54312,-0.63183 -17.10974,-0.90196 -25.672701,-1.08111 -7.881443,-0.16944 -15.763282,-0.32619 -23.644146,-0.52139 -3.641201,-0.0902 -7.436069,-0.17623 -11.083202,-0.36271 -1.314868,-0.0672 -2.627588,-0.17139 -3.941382,-0.25708 -2.975104,-0.30845 -1.785934,-0.78161 -3.43227,0.55465 -0.0096,0.008 -2.64e-4,-0.0324 0.01164,-0.0351 0.435925,-0.10047 0.872892,-0.19915 1.314519,-0.27051 0.899583,-0.14534 4.084828,-0.52567 4.807992,-0.61436 5.230966,-0.66461 10.48521,-1.35173 15.563374,-2.82289 0.342688,-0.19166 0.795734,-0.25844 1.028065,-0.57496 0.489093,-0.66634 0.507283,-1.29611 -0.166114,-1.63089 -0.267671,-0.13307 -0.573997,-0.16868 -0.865679,-0.23408 -0.661956,-0.14841 -1.980626,-0.3583 -2.606181,-0.46301 -3.742695,-0.68869 -7.463091,-1.50639 -11.243436,-1.97767 -3.868087,-0.60515 -7.752773,-1.10265 -11.61396,-1.74879 -0.235294,-0.0438 -0.508182,-0.26633 -0.705887,-0.13144 -0.240834,0.16432 -0.211278,0.54372 -0.303665,0.82024 -0.04309,0.12899 -0.20008,0.3004 -0.102325,0.39494 0.114866,0.11109 0.318701,-0.0249 0.478375,-0.0313 0.623678,-0.0248 1.135591,-0.0199 1.768978,-0.0222 4.341293,0.006 13.33787,0.0793 -5.867866,0.0148 1.435177,-0.012 2.870509,-0.001 4.304374,0.0697 3.888319,0.18607 7.76945,0.49369 11.628546,1.01555 3.941609,0.55842 7.865123,1.29842 11.855137,1.42378 5.86209,0.30552 11.72155,0.64527 17.582147,0.9765 10.197857,0.47282 20.412267,0.16445 30.616097,0.0663 10.98175,-0.15212 21.96412,-0.26273 32.94532,-0.44985 2.7959,-0.0784 5.073,-0.11833 7.82964,-0.27687 0.83287,-0.0479 1.66701,-0.0919 2.49559,-0.18893 0.51886,-0.0607 1.13044,0.0389 1.54131,-0.28375 0.79328,-0.62294 0.40928,-1.1177 0.13926,-1.6346 -1.99556,-0.0853 -3.98877,-0.22607 -5.98649,-0.25885 -9.55126,-0.0571 -19.10473,-0.12618 -28.65294,0.16712 -13.48872,0.36024 -26.9752,0.79478 -40.457881,1.33587 -11.519892,0.38729 -23.044753,0.634 -34.558782,1.17511 -1.562598,-0.0139 -1.219822,-0.36886 -1.567323,1.68 -0.0097,0.0571 0.115271,-0.0125 0.173159,-0.0144 0.272042,-0.009 0.938414,-0.01 1.17302,-0.01 3.713548,-7.9e-4 7.4271,-1.5e-4 11.140649,-2.2e-4 1.675373,-0.007 3.350765,-0.009 5.026107,-0.0221 2.013979,-0.0162 4.028003,-0.0302 6.041053,-0.10044 4.322821,-0.096 0.453708,0.003 -6.043255,-0.062 -0.890622,-0.009 1.78126,-0.0185 2.671927,-0.02 3.528679,-0.006 7.055956,0.0759 10.583576,0.15338 6.535685,0.1552 13.07431,0.3906 19.61218,0.41683 4.4692,0.0179 8.93849,0.0165 13.40771,0.003 1.731,-0.005 3.4618,-0.0389 5.19271,-0.0583 1.20479,-0.0146 8.30896,-0.10174 9.66155,-0.11341 1.35342,-0.0117 5.4138,-0.0242 4.06034,-0.0223 -2.28081,0.003 -4.56171,0.001 -6.84238,0.0261 -0.43003,0.005 0.97819,0.33162 1.28969,0.0351 0.38198,-0.36359 0.20296,-1.03499 0.30445,-1.55249 -1.53463,0.13987 -3.05726,0.40684 -4.59135,0.55299 -2.87034,0.32057 -5.74415,0.57327 -8.62915,0.72185 -1.13611,0.0585 -4.52289,-0.0867 -3.40966,0.14756 1.44809,0.30476 2.95927,0.046 4.4389,0.0691 -13.72162,0.0374 -27.443299,0.0403 -41.164863,0.10338 -6.339914,-0.012 -7.139495,-0.002 -13.338532,-0.057 -3.317134,-0.0293 -4.730456,-1.27846 -6.23384,1.49671 -0.230515,0.42553 2.315485,-0.31275 1.434709,0.22245 3.370804,0.33357 6.745941,0.60478 10.130559,0.75994 0.979938,0.0448 4.122299,0.19165 5.055759,0.22184 7.28603,0.23562 14.578618,0.0419 21.866928,0.059 1.2776,-0.005 2.5552,-0.01 3.8328,-0.0142 1.38941,-0.005 2.78279,0.0906 4.16825,-0.0143 1.25301,-0.0949 -5.02617,0.006 -3.76976,-0.0159 1.67581,-0.029 3.35212,-0.003 5.02817,-0.006 8.90286,-0.0136 1.52993,-0.009 10.68835,-0.0111 8.64559,0.0174 17.29583,-0.002 25.93662,0.31888 1.44807,0.012 1.29325,0.39802 1.5197,-1.24462 0.007,-0.0493 -0.0998,-0.01 -0.14922,-0.004 -0.20331,0.0245 -0.40408,0.0673 -0.60702,0.0948 -0.81126,0.10989 -1.36023,0.15931 -2.19593,0.24612 -4.18908,0.36702 -8.38553,0.6266 -12.59338,0.60925 2.41052,0.007 4.82103,0.0134 7.23154,0.0208 0.7627,0.002 -1.52539,-0.003 -2.28808,-0.006 -1.88618,-0.006 -3.77223,-0.0236 -5.65843,-0.0224 -0.55527,2.6e-4 -1.11053,0.002 -1.6658,0.003 -4.0294,0.008 -8.05884,0.0204 -12.08823,2.5e-4 -7.72189,-0.0188 -15.44487,-0.0583 -23.165269,0.12437 -9.541389,0.23664 -19.075069,0.69779 -28.605104,1.21297 -6.440665,0.363 -12.883425,0.70924 -19.319759,1.14451 -1.421415,0.0961 -2.842088,0.20339 -4.262183,0.31738 -1.008113,0.0809 -2.033466,0.0549 -3.022269,0.26733 -0.613246,0.13172 -1.149843,0.50155 -1.724764,0.75232 0.04588,0.3571 -0.07531,0.78099 0.137634,1.0713 0.1387,0.1891 0.466199,0.0521 0.699971,0.0706 1.427962,0.11344 2.861744,0.0993 4.291076,0.19019 3.752149,0.0151 7.504287,0.0331 11.256449,0.0453 0.290439,0.001 1.161743,-0.005 0.871302,-0.006 -3.050423,-0.005 -6.10086,-0.002 -9.151281,-0.008 -0.441203,-0.001 0.882383,-0.007 1.323581,-0.009 5.459775,-0.0305 -2.736535,0.0207 3.275655,-0.0177 5.516451,-0.0287 11.032802,-0.061 16.54937,-0.0594 10.675191,-0.0149 21.350382,-0.0337 32.025592,-0.025 9.261579,-0.01 18.523149,-0.0714 27.784109,-0.17959 9.91332,-0.13778 19.82449,-0.3812 29.73265,-0.73235 0.97384,-0.0314 1.94751,-0.0689 2.92154,-0.0941 0.80261,-0.0207 1.68691,0.309 2.40823,-0.0436 3.72219,-1.81937 0.49971,-1.65079 0.0744,-1.65156 -0.40757,-8e-4 -0.81512,-0.007 -1.22269,-0.01 -3.05427,-0.0573 -6.12036,-0.1321 -9.14219,-0.62141 -0.92964,-0.15797 -1.85479,-0.34195 -2.78515,-0.49561 -2.2079,-0.36466 -4.44408,-0.54808 -6.67881,-0.633 -3.92793,-0.0116 -7.85583,-0.037 -11.78378,-0.0349 -5.43072,0.003 -10.85139,0.5058 -16.27421,0.71859 -11.76676,0.67658 -23.528334,1.44761 -35.285682,2.27097 -5.960607,0.41448 -11.920304,0.80272 -17.885896,1.13773 -1.200065,0.0674 -2.400911,0.12197 -3.600238,0.20142 -0.744879,0.0493 -1.576592,-0.17268 -2.231885,0.18491 -0.517853,0.28259 -0.599863,1.01602 -0.899798,1.52402 0.127455,0.071 0.238601,0.18816 0.382365,0.21314 0.294143,0.0511 2.482959,0.0172 2.509841,0.0171 2.219541,-0.01 4.439131,-0.001 6.658591,0.0188 5.400085,0.0798 10.798648,0.22339 16.198191,0.3299 9.545584,0.20234 19.088838,0.5009 28.635051,0.67667 11.38331,0.18564 22.76839,0.2221 34.15059,0.4559 0.96705,0.0391 1.9341,0.0783 2.90115,0.11734 0.53313,0.0215 1.07338,0.15395 1.59938,0.0645 0.20135,-0.0342 0.33653,-0.24513 0.45222,-0.41346 0.10168,-0.14796 0.31941,-0.39351 0.18062,-0.5074 -0.34214,-0.28076 -0.88835,0.99032 -1.2319,0.49545 -1.51543,0.48746 -3.05495,0.88978 -4.62702,1.1501 -1.67661,0.29423 -3.36941,0.42927 -5.07221,0.44843 -5.72558,0.20154 -11.45345,0.26916 -17.18233,0.30042 -11.37227,0.13088 -22.742988,0.36556 -34.114133,0.5686 -9.898108,0.17102 -19.796731,0.35638 -29.691182,0.68075 -0.246674,0.51533 -0.624943,0.98637 -0.740018,1.54599 -0.02812,0.13676 0.253492,0.12769 0.391488,0.14893 0.275423,0.0424 0.556768,0.0252 0.835046,0.0398 1.025062,0.0541 2.049018,0.12576 3.071077,0.22169 2.140185,0.19908 4.285501,0.31522 6.430044,0.45618 2.069198,0.15462 4.139375,0.22246 6.214629,0.1815 6.087157,-0.002 12.177834,0.0915 18.262967,-0.10547 4.438174,-0.20916 8.867783,-0.59283 13.254762,-1.31706 3.18774,-0.50301 6.3705,-1.04627 9.57277,-1.45146 2.87901,-0.36428 4.51501,-0.51747 7.42284,-0.73499 1.21506,-0.0909 2.43176,-0.15834 3.64763,-0.23751 7.14388,-0.42283 14.33118,-0.75179 21.36585,-2.15637 0.37064,-0.0961 3.2475,-0.73531 3.79486,-1.20737 0.53307,-0.45975 1.0302,-1.26958 0.43197,-1.83132 -0.14289,-0.13417 -0.3458,-0.22472 -0.54178,-0.22864 -3.69299,-0.0738 -7.38746,-0.002 -11.08119,-0.004 -3.2989,0.13793 -6.594,0.34853 -9.88962,0.54773 -9.50478,0.61183 -19.00931,1.22797 -28.51594,1.81062 -6.276113,0.40219 -12.551747,0.81102 -18.828881,1.19708 -1.273048,0.0783 -2.546506,0.15 -3.819268,0.23277 -0.751787,0.0489 -1.575139,-0.16385 -2.254292,0.16222 -0.646187,0.31024 -0.953037,1.07096 -1.429554,1.60644 3.578433,0.0425 7.156809,0.0902 10.735299,0.1276 0.796483,0.008 1.595739,-0.0182 2.392291,-0.0222 0.371189,-0.002 1.484759,-0.004 1.113568,-0.005 -2.978579,-0.002 -5.957158,-5.3e-4 -8.935736,-7.9e-4 2.125488,0.007 4.251034,0.0145 6.376408,0.0376 5.395912,0.078 10.790391,0.23373 16.182265,0.45725 3.24067,0.1272 4.63535,0.19399 7.88921,0.27281 6.18839,0.14992 12.37877,0.11775 18.56808,0.19706 6.62203,0.0888 13.2435,0.20587 19.85938,0.51888 0,0 10.67472,-1.69071 10.67472,-1.69071 z" />
    <path
       style="font-variation-settings:normal;opacity:1;vector-effect:none;fill:#d4b599;fill-opacity:0.72177422;stroke-width:0.264583;stroke-linecap:butt;stroke-linejoin:miter;stroke-miterlimit:4;stroke-dasharray:none;stroke-dashoffset:0;stroke-opacity:1;-inkscape-stroke:none;filter:url(#filter6852);stop-color:#000000;stop-opacity:1"
       id="path6140"
       d="m 90.251583,114.92631 c 0.218826,-0.013 0.43746,-0.0299 0.656484,-0.039 0.372756,-0.0155 0.74572,-0.0259 1.118688,-0.0349 0.505523,-0.0122 2.022393,-0.0244 1.51674,-0.0287 -16.773631,-0.14339 -5.109917,-8e-4 -3.93387,0.0302 0.973201,0.0256 1.945862,0.0687 2.918793,0.10305 5.336291,0.22018 10.673962,0.43307 16.015452,0.46275 1.42135,0.008 2.84273,-10e-4 4.2641,-0.002 1.40964,8e-4 2.81929,0.003 4.22893,0.002 3.56662,-0.002 7.13326,0.003 10.69986,-0.009 1.33703,-0.005 2.67394,-0.0272 4.01092,-0.0404 3.62238,-0.0358 7.24458,-0.0658 10.8671,-0.0833 4.24121,0.0109 8.48283,0.001 12.72391,0.0409 4.45416,0.0678 0.28375,-0.004 -7.7473,0.0558 -0.0764,5.2e-4 0.22866,0.10483 0.22746,0.0284 -0.004,-0.24167 -0.0497,-0.53319 -0.23773,-0.68502 -0.12299,-0.0993 -0.31417,0.0576 -0.45785,0.12346 -0.44566,0.20435 -0.86821,0.45574 -1.30231,0.68361 -0.77675,0.32916 -1.53917,0.69443 -2.33024,0.98748 -3.08767,1.14381 -5.10057,1.68004 -8.42045,2.42219 -3.79677,0.84876 -7.47692,1.47467 -11.33325,2.00198 -1.96634,0.26888 -3.9417,0.46705 -5.91256,0.70057 -7.35125,0.73904 -14.74051,1.07734 -22.1259,1.21838 -2.248889,0.043 -6.651574,0.0613 -8.968973,0.0746 3.038928,-0.11024 -9.92302,0.0922 -7.444721,-0.0358 1.593744,-0.0823 3.192328,0.011 4.787461,-0.0374 0.741756,-0.0225 -1.483966,-0.0262 -2.225929,-0.0404 -1.718887,-0.0328 -1.795277,-0.036 -3.409484,-0.0733 -4.247007,-0.15747 -8.482182,-0.0828 -12.741304,-0.0727 -0.342866,8e-4 -1.064332,-0.10707 -0.975972,0.59725 0.05066,0.40379 0.355431,0.73221 0.533144,1.09831 0.64766,0.0965 1.29196,0.21917 1.942983,0.2895 1.355903,0.14649 5.35422,0.3927 6.488814,0.47082 1.37156,0.0944 7.359486,0.52082 8.440819,0.61356 1.462016,0.12539 2.920797,0.28601 4.381193,0.42901 1.493332,0.16511 2.987945,0.31904 4.479999,0.49534 3.168486,0.37437 4.733809,0.60873 7.839787,1.02574 2.119733,0.2846 4.429543,0.60443 6.562573,0.81161 1.13837,0.11056 2.27995,0.18501 3.41993,0.27751 5.43263,0.40146 10.87569,0.62367 16.32186,0.70609 7.13213,0.0691 14.26471,0.0328 21.39709,0.0409 -2.25009,0.003 -4.50022,-0.007 -6.75025,0.009 -0.61886,0.004 1.23765,0.0152 1.85646,0.0245 2.03621,0.0306 4.07175,0.0793 6.10817,0.0953 6.67357,0.0297 13.34615,-0.0634 20.01917,-0.11586 -1.24019,-0.0941 2.6083,0.0412 1.95633,0.0254 -3.4646,-0.0844 -6.94771,0.10621 -10.39352,-0.26384 -0.31027,-0.0333 -0.005,-0.80015 -0.30499,-0.88509 -0.40625,-0.11492 -0.77487,0.3398 -1.17787,0.46563 -0.78481,0.24505 -1.58706,0.43031 -2.38058,0.64546 -1.19701,0.24468 -2.38647,0.52969 -3.59101,0.73403 -3.53757,0.60013 -6.6478,0.91862 -10.24192,1.22564 -5.55389,0.47441 -11.11955,0.69817 -16.68762,0.91834 -8.75223,0.2911 -17.50919,0.34458 -26.265263,0.39457 2.545453,-0.11906 -9.600551,0.1289 -7.202797,0.005 1.301187,-0.067 2.60871,0.0691 3.908698,-0.0182 1.081913,-0.0726 -2.168639,-0.0162 -3.252944,-0.0258 -3.500792,-0.0312 -2.605627,-0.0227 -6.002332,-0.0775 -4.497199,-0.10359 -8.9931,-0.25343 -13.491032,-0.32277 -5.527461,-0.0506 -11.05431,-0.0653 -16.58234,-0.0382 -1.048245,0.005 -2.602971,0.098 -3.649527,0.15227 -1.854603,0.12714 -3.731099,0.16312 -5.54585,0.60976 -0.628663,0.15472 -1.088167,0.32801 -1.691042,0.537 -0.200935,0.0839 -0.941416,0.31778 -1.044284,0.62259 -0.273616,0.81073 0.08934,1.26288 0.852144,1.57882 0.684162,0.28336 2.929951,0.40946 3.48279,0.45766 0.837099,0.0386 1.673725,0.0895 2.5113,0.11588 2.852989,0.09 3.785439,0.0519 6.790333,0.0471 1.203555,-0.002 2.407116,0.001 3.610671,-8e-4 11.34923,-0.0179 7.319182,0.0197 14.157185,-0.0639 6.18355,-0.11418 12.36605,-0.26549 18.550561,-0.3127 6.062169,-0.007 12.124299,-0.0715 18.186409,-0.0612 1.05837,7.9e-4 4.23327,-0.0178 3.1751,0.003 -1.57153,0.0305 -3.14427,-0.0199 -4.71539,0.0271 -0.91153,0.0273 1.82377,0.0205 2.73563,0.0321 2.76784,0.0352 5.53556,0.0758 8.30345,0.10758 3.84142,0.0925 7.68327,0.14615 11.52541,0.1952 0.42215,0.007 0.84425,0.0202 1.26645,0.0209 0.27685,5.3e-4 3.64165,-0.0367 3.74529,-0.0373 3.63784,-0.022 7.27582,-0.0249 10.91359,-0.0568 1.40589,-0.0123 2.81095,-0.0725 4.21653,-0.10431 2.69871,-0.0609 5.39768,-0.11574 8.09717,-0.10533 0.2622,-0.001 0.52444,0.002 0.78659,-0.003 0.49674,-0.009 0.99306,-0.0342 1.48969,-0.0481 0.59081,-0.0166 1.17815,-0.02 1.76754,-0.0646 0.2968,-0.0378 0.71255,-0.01 0.93524,-0.26754 0.0948,-0.10978 0.14004,-0.25424 0.21769,-0.37675 0.70108,-1.10597 -0.26269,0.50301 0.43554,-0.67769 0.32188,-0.62021 0.61614,-1.30553 0.54455,-2.02322 -0.0147,-0.14689 -0.0579,-0.28949 -0.0868,-0.43424 -0.0623,-0.14568 -0.11235,-0.29728 -0.18703,-0.43704 -0.22024,-0.41219 -0.54523,-0.77327 -0.82693,-1.14282 -0.23776,-0.31192 -0.2646,-0.35577 -0.48486,-0.66783 -0.24222,-0.34794 -0.47788,-0.71402 -0.59712,-1.12538 -0.0758,-0.26154 -0.0782,-0.37193 -0.11105,-0.64121 10e-4,-0.0948 -0.0133,-0.19119 0.004,-0.28451 0.0461,-0.25348 0.42133,-0.69485 0.62007,-0.84951 0.0574,-0.0447 0.12374,-0.0767 0.1856,-0.11511 0.12175,-0.0929 0.22784,-0.14879 0.28966,-0.30096 0.17621,-0.43379 0.0899,-1.12421 -0.3978,-1.34148 -0.25788,-0.11488 -0.55875,-0.0812 -0.83813,-0.12181 -0.49198,-0.007 -0.98392,-0.0225 -1.47596,-0.022 -0.78141,8e-4 -1.56271,0.0184 -2.34409,0.0256 -3.74705,0.0347 -7.49491,0.0166 -11.24119,0.10032 -1.18343,0.0265 -2.362,0.16103 -3.54371,0.23019 -4.67941,0.27389 -4.69634,0.24951 -9.49938,0.43353 -1.86828,0.0525 -6.57277,0.19712 -8.58952,0.20922 -1.00253,0.006 -4.00942,-0.004 -3.00741,-0.0372 2.40014,-0.0787 4.80332,-0.0258 7.20359,-0.10047 0.0753,-0.002 -0.21599,-0.1895 -0.19306,-0.1177 0.068,0.21279 0.22662,0.38502 0.33992,0.57753 0.15053,-0.0197 0.3076,-0.0109 0.45159,-0.059 0.34138,-0.11402 0.66215,-0.28235 0.99323,-0.42353 0.48602,-0.16328 0.96829,-0.33816 1.45805,-0.48984 1.4637,-0.4533 2.71143,-0.78407 4.22768,-1.09862 0.84901,-0.17613 1.70621,-0.31025 2.55931,-0.46537 3.35583,-0.56384 6.7465,-0.89246 10.14395,-1.0619 2.03133,-0.10131 2.84585,-0.10235 4.84742,-0.1409 -1.76582,-0.031 4.85128,0.0285 3.63845,0.0401 -2.79528,0.0269 -5.59085,0.009 -8.38616,0.0329 -0.22828,0.002 0.45613,0.0205 0.68411,0.0326 0.16212,0.009 0.32381,0.0284 0.48615,0.0293 3.56242,0.0185 7.1249,0.0191 10.68735,0.0287 0.60731,-0.20688 1.22639,-0.31463 -0.13287,-1.62632 -0.31536,-0.30433 -0.87096,-0.10363 -1.30857,-0.12742 -0.86796,-0.0472 -1.73748,-0.0593 -2.60634,-0.0854 -0.4709,-0.0141 -6.17304,-0.17041 -6.53801,-0.18043 -4.03771,-0.11233 -8.07607,-0.25804 -12.1041,-0.56809 -2.56794,-0.19765 -2.77289,-0.23462 -5.35187,-0.4969 -3.52613,-0.43583 -7.0547,-0.89192 -10.52929,-1.64538 0.65419,1.18352 -0.8249,-0.50922 -0.77313,-0.24399 0.0519,0.26596 0.0775,0.61092 0.30883,0.75199 0.17578,0.10718 0.38938,-0.13427 0.58106,-0.20938 2.30002,-0.90129 -0.1264,-0.0191 2.66771,-1.0027 2.48007,-0.7674 5.03858,-1.63234 7.6344,-1.90433 0.4236,-0.0444 0.85013,-0.054 1.27519,-0.0809 4.50202,0.10348 -1.56973,-0.0484 -6.86904,0.0776 -0.45342,0.0108 0.90456,0.0687 1.35593,0.11309 1.15772,0.11376 2.31085,0.27631 3.46326,0.43338 2.34885,0.33069 4.7261,0.3472 7.09301,0.41251 4.13774,0.14864 8.26035,0.0826 12.41309,0.0255 0.24056,-0.003 0.84467,-0.18751 1.08416,-0.29828 0.12911,-0.0597 0.24429,-0.14583 0.36644,-0.21875 0.27389,-0.19433 0.49058,-0.45322 0.76034,-0.65223 0.0592,-0.0437 0.12716,-0.0747 0.18555,-0.11945 0.37144,-0.28453 -0.035,-0.0255 0.28308,-0.21941 0.0358,-0.0406 0.0858,-0.0723 0.10732,-0.12195 0.24199,-0.55731 -0.024,-1.31177 -0.61613,-1.52069 -0.40098,-0.14147 -0.83028,-0.18395 -1.24542,-0.27592 -7.4508,-0.87297 -14.97705,-0.66787 -22.45972,-0.6557 -3.75998,0.15615 -7.519,0.33416 -11.27861,0.49877 -1.11942,0.049 -2.23838,0.11034 -3.35832,0.14545 -1.25113,0.0392 -2.50296,0.0517 -3.75444,0.0775 -7.06853,0.14059 -14.13869,0.0555 -21.20775,0.12319 -2.648114,0.0135 -5.293873,0.11677 -7.938781,0.23669 0,0 8.808604,1.33581 8.808604,1.33581 v 0 c 2.230747,-0.20618 4.465124,-0.36597 6.707107,-0.38061 6.86262,-0.0789 13.72585,-0.10468 20.588,-0.22697 1.2785,-0.0231 2.55692,-0.0509 3.83549,-0.0693 1.35713,-0.0195 2.71458,-0.0168 4.07158,-0.0444 2.90606,-0.0592 5.80491,-0.26467 8.70963,-0.35211 0.99805,-0.03 1.99668,-0.0359 2.99502,-0.0539 -1.87629,-0.005 -3.75261,-0.025 -5.62887,-0.014 -0.82689,0.005 1.65398,0.007 2.48049,0.0324 0.79439,0.0245 1.58809,0.0692 2.38138,0.11756 1.32215,0.0806 2.64493,0.1813 3.95818,0.3596 0.41505,0.0563 0.8258,0.14078 1.2387,0.21118 0.0522,0.0116 0.69626,0.20779 0.85916,0.12614 0.11187,-0.0561 0.10782,-0.399 0.10923,-0.43747 0.006,-0.15824 -0.001,-0.11953 -0.0915,-0.0584 -0.21749,0.23846 0.0152,-0.006 -0.21658,0.2069 -0.2357,0.21665 -0.45156,0.43884 -0.77579,0.52148 -0.24272,0.0624 -0.3606,0.10061 -0.61795,0.13092 -0.14856,0.0175 -0.59708,0.0326 -0.4475,0.0336 3.11332,0.0202 6.22677,0.0114 9.34013,0.0241 0.31487,10e-4 -0.6297,0.008 -0.94457,0.01 -0.37317,0.002 -0.74635,0.002 -1.11953,0.003 -2.32536,-0.0188 -4.65409,-0.0673 -6.96716,-0.32853 -1.24468,-0.1372 -2.48978,-0.26779 -3.73342,-0.41433 -0.44615,-0.0526 -0.88913,-0.14972 -1.33826,-0.1593 -3.59959,-0.0768 -7.20038,-0.0852 -10.80076,-0.0998 -0.43347,-0.002 -0.86629,0.0339 -1.29943,0.0508 -1.18789,0.15005 -1.34714,0.13573 -2.51155,0.42028 -2.01055,0.49133 -3.93281,1.28768 -5.92928,1.82808 -0.61234,0.17291 -1.22491,0.34498 -1.83701,0.51873 -0.54842,0.15567 -1.10674,0.28038 -1.64453,0.46954 -0.41869,0.14728 -0.94119,0.19068 -1.21825,0.53743 -1.21652,1.52249 0.44899,1.56294 1.27564,1.70173 1.62572,0.2091 3.25359,0.39985 4.88042,0.60017 1.5591,0.19198 3.11659,0.39726 4.67686,0.57953 0.86484,0.10103 1.73111,0.18954 2.59666,0.28432 2.19629,0.23928 3.22703,0.37502 5.43795,0.52114 0.97799,0.0646 1.95772,0.0994 2.93663,0.14788 3.185,0.15779 6.37086,0.27648 9.55816,0.37832 2.00082,0.0954 3.44603,0.13575 5.40369,0.32718 0.50309,0.0492 1.00313,0.12613 1.50337,0.19873 0.21136,0.0307 0.51241,0.28866 0.631,0.11105 0.26939,-0.40345 -0.0117,-1.01788 0.24723,-1.43419 3.29464,0.01 6.58927,0.0192 9.88391,0.0291 0.23895,7.9e-4 -0.47791,-0.002 -0.71686,-0.002 -0.32433,2.6e-4 -0.64866,0.003 -0.97298,0.003 -4.50272,0.007 -9.00333,-0.10596 -13.50021,0.11961 -4.87334,0.23475 -9.76469,0.45242 -14.56551,1.3924 -2.57198,0.47414 -5.15201,0.92196 -7.6958,1.53499 -0.54076,0.13032 -2.77174,0.69975 -3.38644,1.0012 -0.38328,0.18797 -0.69503,0.49587 -1.04255,0.7438 0.0352,0.39116 -0.15471,0.87932 0.10549,1.17349 0.25091,0.28365 0.73817,0.20308 1.11683,0.20837 3.43798,0.0481 6.87695,0.006 10.31484,-0.0484 0.6454,-0.0102 1.28711,-0.0998 1.93103,-0.1447 3.61924,-0.2524 3.19677,-0.21154 7.1969,-0.42313 4.37407,-0.17367 5.75912,-0.25652 10.22452,-0.31479 1.61461,-0.0211 6.45607,-0.10897 4.84423,-0.0122 -1.80604,0.10846 -3.61932,-0.0111 -5.42767,0.0472 -0.82791,0.0267 2.61637,0.0838 2.48148,0.13216 0.14833,-0.004 0.31157,0.0522 0.44501,-0.0127 0.17176,-0.0836 0.20482,-0.6044 0.2153,-0.70164 0.003,-0.026 0.0177,-0.0755 -0.008,-0.0781 -0.1012,-0.0101 -0.0988,0.29616 -0.19849,0.23172 -0.40996,0.66453 -0.78144,1.38519 -0.72055,2.18981 0.11837,0.87438 0.22304,1.5722 0.78068,2.29559 0.46769,0.61498 0.952,1.21767 1.39447,1.85147 0.0254,0.0651 0.0605,0.1272 0.0762,0.19529 0.11015,0.4769 -0.19536,0.94992 -0.46497,1.30937 -0.0967,0.0957 -0.33199,0.35514 -0.47988,0.40613 -0.0587,0.0202 -0.55759,-0.004 -0.66614,0.004 -0.0958,0.007 -0.19139,0.0169 -0.28708,0.0253 -1.21886,0.0675 -2.43846,0.11276 -3.65929,0.12278 -2.31457,0.0991 -4.62997,0.17898 -6.94364,0.29897 -0.61373,0.0247 -1.22727,0.0549 -1.8412,0.074 -2.6247,0.0817 -8.10062,0.10941 4.42417,0.05 0.58095,-0.003 -1.16181,-0.0153 -1.74272,-0.0229 -0.49631,-0.006 -0.99258,-0.0186 -1.48894,-0.0193 -0.49538,-8e-4 -0.99072,0.01 -1.48608,0.0147 -4.24722,0.0224 -8.49471,0.0192 -12.74194,0.005 -2.7739,-0.038 -5.54806,-0.0891 -8.32217,-0.10902 -4.52183,-0.0325 -9.04388,-0.0108 -13.56583,-0.0104 -1.04637,9e-5 -2.09274,0.002 -3.13911,0.003 -6.110119,0.0151 -12.220631,-0.0511 -18.330492,0.0461 -3.115937,0.0391 -6.2331,0.0597 -9.348685,0.12022 -1.26524,0.0246 -4.532823,0.12856 -5.776409,0.16317 -1.03917,0.0289 -2.078435,0.0543 -3.117652,0.0815 -7.457458,0.13359 -1.048848,-0.009 0.445177,0.0851 1.161968,0.0729 -2.3286,0.005 -3.492738,-0.0116 -1.449279,-0.0203 -4.064,-0.10084 -5.590084,-0.19201 -0.664311,-0.0397 -1.326881,-0.10447 -1.990321,-0.1567 -0.484917,-0.0599 -0.971036,-0.11084 -1.454748,-0.17983 -0.380055,-0.0542 -0.92388,-0.34606 -1.271116,0.0289 -0.100084,0.10807 -0.185322,0.26055 -0.171585,0.4072 0.02286,0.24389 0.819764,-1.06913 0.657537,-0.32814 0.604843,-0.2173 0.733925,-0.28181 1.392926,-0.43478 1.550572,-0.35992 3.147914,-0.47109 4.730548,-0.58435 0.591363,-0.0268 1.182418,-0.0616 1.77409,-0.0804 0.61986,-0.0197 2.480328,-0.0288 1.860187,-0.0349 -2.505585,-0.025 -10.889543,-0.0199 -5.179525,-0.014 0.664546,7.9e-4 1.3291,-0.003 1.993635,7.9e-4 0.671044,0.003 1.342038,0.0131 2.013059,0.0196 4.837072,0.0356 9.673857,0.0906 14.510535,0.16251 9.120008,0.0612 18.240724,0.082 27.360671,0.004 8.21542,-0.0758 16.42863,-0.29548 24.63607,-0.67161 4.19559,-0.20431 6.46113,-0.29632 10.68339,-0.57785 4.10555,-0.27374 7.37321,-0.55066 11.47869,-0.9228 1.94655,-0.17644 3.89393,-0.34579 5.83757,-0.5518 1.62562,-0.17229 3.24627,-0.38867 4.8694,-0.58301 1.18415,-0.17332 2.36956,-0.33824 3.55245,-0.51996 0.82236,-0.12634 1.72269,-0.0246 2.46308,-0.40417 0.46213,-0.23691 1.37117,-1.20908 0.85974,-1.29929 -5.40615,-0.9536 -7.71979,-0.59455 -11.79344,-0.31248 -1.49058,0.0723 -2.98064,0.13925 -4.47318,0.15726 -0.72392,0.009 -2.8959,0.008 -2.17192,0.006 7.42187,-0.0218 9.27052,0.0103 5.3876,-0.0399 -6.4287,-0.0428 -12.85787,-0.0257 -19.28657,-0.0502 -2.88668,0.0116 -10.66087,-0.003 2.5076,0.0188 0.72349,0.001 -1.44698,0.003 -2.17047,0.004 -2.80365,0.005 -1.69321,0.004 -4.54095,-7.9e-4 -5.79423,-0.0308 -11.59302,-0.0763 -17.3755,-0.48688 -2.80231,-0.22727 -3.97081,-0.30948 -6.78273,-0.58872 -5.50767,-0.54694 -11.001727,-1.22541 -16.499419,-1.86176 -1.435769,-0.14849 -2.871541,-0.29698 -4.307311,-0.44547 -1.314844,-0.14892 -2.628537,-0.30839 -3.944532,-0.44676 -1.138222,-0.11968 -2.280132,-0.20296 -3.417851,-0.32735 -1.85651,-0.20297 -3.703288,-0.46125 -5.531188,-0.84618 -0.0688,0.25663 -0.121,0.51829 -0.206394,0.76989 -0.04108,0.12103 -0.24462,0.2383 -0.171355,0.34303 0.07515,0.10743 0.523473,-0.0262 0.392372,-0.0271 -16.989155,-0.10939 -10.008999,0.0265 -6.331045,-0.069 2.270175,-0.0239 4.540792,-0.0586 6.811047,-0.0689 5.72734,-0.0261 11.454662,-0.002 17.18093,-0.13181 4.66552,-0.0951 3.333239,-0.0494 8.096286,-0.22324 3.66194,-0.13364 6.2467,-0.21866 9.92059,-0.46497 1.75782,-0.11785 3.51354,-0.26579 5.26907,-0.41396 1.98727,-0.16772 3.97277,-0.35579 5.95916,-0.53369 1.96524,-0.2396 3.93415,-0.45081 5.89571,-0.7188 4.16003,-0.56835 7.79483,-1.18858 11.92316,-1.9532 2.30416,-0.42676 8.38373,-1.62027 10.80676,-2.17315 1.16103,-0.26491 2.30687,-0.59244 3.46031,-0.88866 0.39179,-0.11628 3.05966,-0.68029 3.53685,-1.45754 0.56922,-0.92716 -0.0151,-1.3065 -0.67032,-1.3171 -7.11315,-0.11507 -7.44291,-0.098 -11.61407,0.007 -1.50747,0.0288 -3.01537,0.0404 -4.52275,0.0729 -2.13337,0.046 -4.26548,0.14018 -6.39906,0.17873 -3.35315,0.0784 -6.70644,0.15781 -10.06016,0.20824 -1.31185,0.0197 -2.6256,-0.0229 -3.9357,0.0475 -0.86726,0.0466 3.47393,0.0242 2.60542,0.024 -1.35266,-2.1e-4 -2.70526,-0.0162 -4.05789,-0.0243 -6.36246,-0.14527 -12.72798,-0.24844 -19.0825,-0.62033 -0.36074,-0.0208 -4.507763,-0.2655 -5.021909,-0.27289 -5.197364,-0.0747 -10.401242,0.009 -15.59782,-0.17518 0,0 10.370807,1.64258 10.370807,1.64258 z" />
    <path
       style="font-variation-settings:normal;opacity:1;vector-effect:none;fill:#d4b599;fill-opacity:0.72177422;stroke-width:0.264583;stroke-linecap:butt;stroke-linejoin:miter;stroke-miterlimit:4;stroke-dasharray:none;stroke-dashoffset:0;stroke-opacity:1;-inkscape-stroke:none;filter:url(#filter6868);stop-color:#000000;stop-opacity:1"
       id="path6142"
       d="m 73.379102,118.11428 c 0.415663,-0.0951 0.62921,-0.15184 1.10658,-0.20517 2.104535,-0.23508 9.094676,-0.34166 -5.486945,-0.10937 -0.894781,0.0143 1.789864,0.0296 2.683674,0.0736 0.896892,0.0442 1.791446,0.12721 2.687166,0.19081 2.558442,0.2094 5.091779,0.62103 7.607049,1.12181 0,0 9.298445,-1.32413 9.298445,-1.32413 v 0 c -2.919164,-0.3677 -5.842871,-0.69872 -8.767628,-1.01876 -0.846142,-0.0784 -3.974195,-0.38773 -4.898749,-0.40153 -3.683686,-0.055 -7.368143,-0.0459 -11.052226,-0.0361 -1.290489,0.003 -2.572805,0.0876 -3.84389,0.3094 0,0 10.666524,1.39944 10.666524,1.39944 z" />
    <path
       style="font-variation-settings:normal;opacity:1;vector-effect:none;fill:#d4b599;fill-opacity:0.72177422;stroke-width:0.264583;stroke-linecap:butt;stroke-linejoin:miter;stroke-miterlimit:4;stroke-dasharray:none;stroke-dashoffset:0;stroke-opacity:1;-inkscape-stroke:none;filter:url(#filter6884);stop-color:#000000;stop-opacity:1"
       id="path6144"
       d="m 98.521516,119.84724 c -1.885791,0.54473 -3.866798,0.75892 -5.814391,0.93439 -3.328445,0.29989 -4.987731,0.33852 -8.437967,0.50336 -1.678284,0.0476 -3.35657,0.0952 -5.034854,0.14272 0,0 5.634228,0.87715 5.634228,0.87715 v 0 c 1.723948,-0.0422 3.447894,-0.0844 5.171842,-0.12658 3.178728,-0.0767 6.919238,-0.15681 10.114576,-0.27194 1.66636,-0.0601 4.79899,-0.18851 6.61567,-0.35294 0.61903,-0.056 1.69408,-0.24645 2.34455,-0.35574 0,0 -10.593654,-1.35042 -10.593654,-1.35042 z" />
  </g>
</svg>
