<?xml version="1.0" standalone="no"?>
<!DOCTYPE svg PUBLIC "-//W3C//DTD SVG 20010904//EN"
 "http://www.w3.org/TR/2001/REC-SVG-20010904/DTD/svg10.dtd">
<svg version="1.0" xmlns="http://www.w3.org/2000/svg"
 width="640.000000pt" height="468.000000pt" viewBox="0 0 640.000000 468.000000"
 preserveAspectRatio="xMidYMid meet">

<g transform="translate(0.000000,468.000000) scale(0.100000,-0.100000)"
fill="#000000" stroke="none">
<path d="M2735 4634 c-782 -84 -1514 -370 -2137 -838 -60 -44 -108 -86 -108
-93 0 -7 7 -40 17 -73 9 -33 14 -62 12 -64 -8 -8 -287 -136 -374 -171 -50 -20
-93 -40 -97 -43 -4 -4 76 -101 177 -217 l183 -210 7 -60 c3 -33 12 -160 19
-283 8 -123 17 -226 20 -229 14 -14 475 142 649 220 50 23 58 24 53 9 -55
-202 -68 -570 -27 -797 54 -304 152 -550 318 -797 338 -507 863 -837 1478
-929 137 -21 522 -18 655 4 288 49 592 162 812 304 394 253 683 604 847 1028
85 219 121 411 128 670 7 250 -19 438 -91 668 -8 26 -14 47 -12 47 1 0 21 -9
44 -20 23 -11 61 -20 87 -20 43 0 49 4 109 65 l64 64 48 -41 c27 -23 81 -73
121 -112 51 -49 74 -65 78 -55 3 8 34 137 69 288 35 150 70 279 78 286 7 7
101 90 208 185 107 96 196 178 197 184 4 23 -288 252 -451 355 -69 43 -251
131 -271 131 -2 0 -27 -34 -55 -76 l-51 -75 -27 18 c-174 116 -477 275 -717
376 -378 158 -850 273 -1261 307 -171 14 -644 10 -799 -6z m840 -14 c565 -53
1173 -244 1676 -525 82 -46 261 -156 277 -170 1 -1 -14 -30 -34 -64 -22 -37
-41 -58 -48 -54 -6 3 -36 23 -66 43 -53 35 -174 105 -137 78 11 -7 65 -43 121
-79 l103 -66 33 56 c18 31 58 95 89 143 64 100 49 98 186 34 116 -55 298 -178
453 -306 l124 -103 -29 -27 c-15 -15 -110 -100 -210 -189 -101 -90 -183 -165
-183 -167 0 -8 -120 -518 -125 -532 -3 -8 -28 10 -67 49 -83 82 -177 156 -290
229 -51 33 -88 60 -83 60 6 0 24 -9 40 -21 37 -25 85 -51 85 -46 0 14 -296
177 -321 177 -7 0 34 -23 91 -50 56 -28 101 -52 99 -55 -2 -2 -48 19 -102 46
-57 28 -112 49 -131 49 -22 0 -55 16 -111 56 -130 90 -286 181 -439 255 -79
38 -147 69 -152 69 -5 0 72 -40 171 -89 230 -114 504 -288 491 -310 -8 -12 51
-64 119 -107 191 -120 267 -205 220 -244 -11 -9 -25 -10 -64 0 -55 13 -142 71
-331 220 -259 205 -541 355 -860 459 -86 28 -96 34 -109 63 -8 18 -32 57 -53
87 -21 30 -36 56 -34 58 2 3 23 -1 46 -7 23 -6 44 -9 47 -7 2 3 -20 10 -49 17
-53 13 -78 25 -78 40 0 19 347 -93 525 -169 192 -83 417 -212 622 -357 21 -15
22 -13 69 73 88 164 157 288 226 404 37 64 68 121 68 125 0 10 -198 135 -325
207 -289 162 -662 307 -1006 392 -147 36 -380 77 -554 97 -148 17 -706 17
-845 0 -719 -89 -1311 -307 -1881 -693 l-117 -79 18 -59 c92 -293 194 -607
199 -614 4 -4 41 16 82 45 267 188 637 374 991 499 212 75 619 180 696 179 28
0 -8 -20 -38 -21 -23 0 -23 -1 -5 -9 19 -7 18 -9 -8 -19 -16 -6 -38 -11 -50
-12 -18 0 -19 -2 -5 -7 13 -6 5 -17 -43 -61 -46 -40 -73 -57 -117 -68 -31 -8
-59 -17 -62 -20 -5 -6 33 2 75 14 19 5 19 5 2 -15 -10 -11 -39 -25 -65 -32
-207 -51 -500 -164 -752 -289 -164 -81 -350 -187 -350 -199 0 -3 11 -37 24
-76 13 -39 27 -86 31 -103 l7 -33 -49 0 c-35 0 -84 -15 -183 -56 -194 -80
-202 -83 -232 -84 -44 0 -35 32 23 84 28 25 44 46 36 46 -8 0 -35 -20 -60 -43
l-44 -44 -31 76 c-62 152 -130 340 -180 496 -58 183 -122 406 -122 428 0 30
314 253 522 371 595 336 1173 513 1853 566 132 10 537 4 690 -10z m-268 -160
c112 -5 260 -16 330 -25 545 -66 1090 -248 1548 -517 98 -58 232 -142 243
-152 2 -2 -39 -78 -91 -168 -52 -89 -125 -220 -162 -290 -37 -71 -71 -128 -76
-128 -5 0 -40 22 -77 49 -270 195 -657 374 -1012 466 -124 33 -188 63 -224
105 l-26 32 50 93 51 93 -23 16 c-12 9 -26 16 -31 16 -5 0 -32 -20 -59 -45
-52 -47 -113 -71 -154 -61 -28 7 -30 26 -13 211 10 123 16 135 57 135 19 0 22
5 22 39 0 47 1 46 -162 56 -87 6 -108 4 -109 -7 0 -7 -2 -23 -5 -36 -3 -17 2
-25 20 -31 13 -5 25 -15 28 -23 5 -15 -9 -271 -17 -305 -4 -17 -13 -23 -31
-23 -17 0 -28 -7 -31 -20 -3 -11 -14 -20 -24 -20 -17 0 -17 4 8 71 15 41 22
74 17 79 -15 14 -64 23 -64 11 0 -19 -62 -82 -101 -101 -20 -11 -55 -22 -76
-26 -56 -9 -73 11 -73 87 0 55 1 59 24 59 27 0 41 -14 50 -52 5 -24 11 -28 41
-28 l35 0 0 124 c0 69 -3 127 -7 129 -5 3 -22 2 -39 0 -25 -4 -34 -12 -40 -35
-19 -65 -74 -64 -74 0 0 49 14 62 70 62 57 0 118 -28 153 -69 27 -33 35 -33
69 -3 17 14 15 20 -24 94 -41 76 -44 79 -73 74 -16 -3 -106 -8 -200 -11 -93
-4 -178 -9 -188 -12 -27 -7 -20 -76 8 -81 11 -2 23 -7 28 -11 12 -11 26 -304
15 -323 -5 -10 -18 -18 -28 -18 -17 0 -20 -7 -20 -40 0 -40 0 -40 37 -40 35 0
36 -1 18 -14 -11 -7 -47 -23 -80 -35 -33 -13 -67 -28 -75 -36 -8 -7 -67 -23
-130 -35 -537 -102 -1065 -315 -1538 -623 -67 -44 -124 -78 -126 -76 -4 5
-198 620 -200 634 -2 14 232 170 397 263 552 314 1185 495 1837 525 36 2 79 4
95 5 17 1 121 -3 232 -8z m-23 -148 c32 -64 33 -69 16 -79 -14 -10 -23 -6 -50
22 -55 57 -179 85 -214 49 -11 -10 -16 -34 -16 -75 0 -58 0 -59 28 -59 37 0
61 18 70 55 6 20 16 31 30 33 21 3 22 -1 22 -61 0 -35 3 -85 6 -111 7 -45 6
-46 -20 -46 -17 0 -26 5 -26 15 0 28 -47 65 -81 65 l-32 0 6 -76 c3 -41 11
-82 17 -90 16 -18 90 -18 135 0 48 20 99 60 115 91 14 27 38 33 45 12 3 -6 -5
-39 -18 -71 l-23 -59 -62 -13 c-35 -7 -118 -18 -185 -24 -67 -6 -137 -13 -154
-16 -30 -4 -33 -3 -33 21 0 18 6 29 20 32 30 8 33 34 25 197 -7 153 -16 186
-52 186 -7 0 -13 11 -13 25 0 24 3 25 58 26 31 1 104 5 162 9 58 3 124 7 147
8 l43 2 34 -68z m279 52 c71 -6 77 -9 77 -29 0 -16 -8 -25 -25 -29 -36 -9 -42
-32 -55 -199 -13 -172 -11 -177 57 -177 55 0 103 22 147 66 67 67 82 32 29
-66 l-38 -72 -65 7 c-36 4 -90 16 -120 28 -30 11 -88 22 -127 25 -40 2 -73 8
-73 13 0 5 9 9 20 9 38 0 48 37 55 201 l7 156 -26 20 c-14 12 -26 28 -26 37 0
18 36 20 163 10z m-13 -482 c30 -12 82 -27 114 -33 49 -9 68 -19 110 -58 28
-26 71 -59 96 -73 25 -14 54 -39 66 -55 63 -85 93 -133 111 -174 19 -42 73
-99 94 -99 6 0 7 -9 4 -20 -7 -23 58 -158 113 -233 47 -65 62 -111 50 -154 -7
-27 -4 -52 17 -122 21 -71 24 -93 15 -116 -8 -21 -8 -42 2 -77 11 -45 10 -55
-16 -136 -57 -175 -94 -222 -176 -222 -42 0 -52 -4 -79 -35 -17 -20 -43 -41
-58 -47 -21 -8 -24 -12 -11 -15 9 -2 27 1 39 8 21 11 22 10 15 -27 -4 -22 -11
-64 -15 -95 -4 -31 -20 -81 -36 -112 -25 -48 -34 -57 -57 -57 -27 0 -28 2 -28
49 0 33 8 66 25 99 26 52 32 92 15 92 -5 0 -10 -10 -10 -22 0 -13 -12 -48 -26
-78 -20 -42 -24 -65 -20 -96 4 -29 0 -51 -13 -75 -10 -19 -21 -60 -25 -92 -3
-32 -12 -71 -20 -85 -7 -15 -19 -51 -25 -80 -13 -61 -47 -132 -103 -215 -50
-73 -76 -87 -115 -60 -15 11 -49 28 -74 38 -44 18 -46 21 -44 55 1 19 0 24 -2
10 -3 -14 -8 -28 -11 -32 -4 -3 -47 2 -97 12 -107 23 -268 40 -374 40 -76 1
-76 1 -98 36 -23 35 -38 81 -48 148 -4 21 -8 36 -9 35 -8 -10 -14 -79 -7 -74
5 2 11 -13 14 -36 3 -22 17 -55 31 -74 14 -18 26 -36 26 -38 0 -2 -27 -7 -60
-10 -33 -4 -72 -10 -85 -13 -21 -5 -25 -3 -25 17 0 13 5 31 10 39 7 12 13 11
36 -10 22 -21 25 -21 13 -4 -23 35 -113 131 -101 109 5 -11 20 -29 31 -39 28
-25 26 -31 -9 -32 -25 -1 -35 6 -63 50 -50 76 -67 127 -74 227 l-6 91 52 -27
c37 -20 73 -29 122 -33 38 -2 69 -7 69 -10 0 -12 -42 -72 -51 -72 -5 0 -9 -4
-9 -9 0 -16 39 1 45 19 10 31 54 68 91 75 19 3 41 8 48 11 8 3 17 -10 24 -33
7 -21 36 -64 65 -95 49 -52 58 -58 95 -58 22 0 44 5 48 11 5 8 -2 10 -21 7
-16 -3 -41 -2 -56 4 -45 15 -55 58 -38 160 l11 67 36 -2 c21 -1 53 2 73 6 34
7 38 5 46 -20 14 -41 4 -164 -15 -185 -22 -26 -9 -22 55 14 56 32 61 53 5 24
l-29 -15 5 52 c2 29 5 53 6 54 1 1 25 -9 53 -23 28 -14 69 -28 91 -31 33 -4
46 -13 72 -50 l32 -44 -26 7 c-17 4 -67 -8 -152 -36 -75 -25 -144 -42 -169
-42 -48 1 -114 25 -232 84 -66 33 -87 39 -104 32 -19 -9 -10 -16 77 -58 140
-68 218 -96 267 -96 44 0 144 30 227 69 25 11 56 21 69 21 23 0 24 -1 19 -82
-2 -46 -2 -75 0 -65 5 22 22 22 22 0 1 -10 8 -31 16 -48 14 -30 14 -24 -1 25
l-7 25 26 -24 c34 -32 33 -23 -4 36 -36 59 -45 114 -21 135 9 8 22 13 29 10 7
-2 12 1 12 7 0 6 -6 11 -14 11 -8 0 -26 14 -41 32 l-27 32 69 12 c61 10 85 19
143 53 8 5 27 13 41 19 18 7 28 20 32 41 8 38 16 38 59 5 l33 -26 -31 30 c-17
16 -37 31 -44 34 -10 3 -11 11 -4 32 l9 27 27 -20 c38 -31 45 -26 8 6 -27 22
-31 32 -27 57 10 59 25 86 49 87 l23 1 -22 6 -22 7 29 64 c35 81 104 176 148
206 38 26 25 38 -29 25 -19 -4 -29 -8 -22 -9 7 -1 -12 -33 -42 -72 -29 -40
-67 -104 -83 -143 l-31 -71 -41 1 c-25 0 -36 -2 -28 -7 7 -5 23 -9 36 -9 25 0
27 -12 11 -59 -12 -35 -14 -36 -49 -16 -14 8 -32 14 -40 14 -8 1 4 -8 28 -19
32 -14 42 -25 42 -42 0 -48 -15 -50 -49 -8 -17 22 -36 40 -40 40 -4 0 12 -21
36 -47 26 -29 42 -56 41 -67 -5 -31 -25 -29 -45 4 -18 30 -118 90 -152 90 -9
0 2 10 24 23 22 12 50 38 63 57 40 61 50 68 96 75 62 10 70 26 9 18 -65 -8
-78 -16 -105 -65 -53 -95 -185 -122 -266 -53 -32 27 -42 31 -42 15 0 -5 16
-20 35 -32 41 -27 44 -38 12 -38 -13 0 -45 -11 -73 -24 -80 -39 -138 -49 -200
-35 -30 7 -54 15 -54 19 0 3 13 24 30 46 16 21 35 57 41 79 6 22 16 43 23 47
8 6 8 8 -1 8 -7 0 -13 8 -13 18 0 19 -56 92 -71 92 -5 0 4 -19 21 -42 44 -61
39 -123 -16 -195 l-25 -33 -37 25 c-20 14 -42 25 -49 25 -7 0 -13 5 -13 10 0
6 8 10 18 10 9 0 24 5 32 10 10 7 -7 8 -55 4 -67 -6 -73 -4 -137 30 -37 20
-79 36 -94 36 -28 0 -104 -38 -104 -52 0 -11 -2 -11 54 17 52 26 60 25 141
-17 l28 -15 -54 -7 c-75 -9 -118 -24 -158 -54 l-34 -25 7 46 c6 36 9 289 6
445 0 27 -20 30 -20 2 0 -17 -4 -15 -32 13 -18 18 -23 21 -11 7 28 -32 43 -73
43 -113 l0 -32 -45 50 c-60 66 -86 117 -92 179 -5 51 -5 51 34 71 32 17 38 26
41 55 2 24 -3 43 -17 58 l-19 23 5 -39 c6 -45 -10 -82 -35 -82 -12 0 -26 21
-46 64 -23 54 -26 68 -16 86 8 15 8 20 1 16 -7 -5 -11 4 -11 23 0 18 -5 31
-12 32 -7 1 -2 5 12 9 22 7 22 8 4 9 -15 1 -28 17 -48 60 -28 57 -28 59 -11
85 10 15 15 29 11 33 -3 3 -6 1 -6 -5 0 -6 -14 -27 -31 -47 -26 -29 -30 -41
-25 -68 l6 -32 -20 24 c-11 13 -20 19 -20 13 0 -13 70 -72 85 -72 5 0 3 5 -5
10 -8 5 -10 10 -5 10 15 0 30 -13 34 -30 14 -54 13 -60 -23 -93 -20 -19 -36
-41 -36 -48 1 -8 7 -2 16 13 8 15 24 32 35 39 20 10 20 10 -1 -19 -26 -35 -22
-58 18 -97 23 -23 24 -27 7 -24 -10 2 -30 19 -42 38 -13 19 -23 29 -23 23 0
-23 53 -72 85 -78 32 -6 33 -8 40 -62 9 -71 31 -115 95 -188 28 -32 53 -69 57
-82 10 -40 -6 -258 -22 -304 -20 -58 -19 -67 9 -79 18 -9 25 -21 28 -51 3 -35
0 -42 -26 -61 -23 -17 -42 -21 -88 -19 -62 3 -131 -20 -157 -51 -10 -13 -30
-17 -77 -17 -40 0 -82 -7 -114 -20 -28 -11 -64 -20 -81 -20 -16 0 -55 -13 -87
-29 -33 -16 -81 -31 -115 -34 -66 -6 -84 -18 -104 -65 l-14 -33 -84 3 -84 3
-24 100 c-46 184 -52 240 -51 465 0 227 8 294 60 485 48 182 136 373 248 540
74 110 86 154 15 54 -166 -233 -269 -486 -326 -799 -24 -131 -24 -447 1 -580
50 -282 128 -489 272 -721 110 -177 235 -313 460 -499 48 -40 16 -18 -71 47
-85 65 -248 226 -312 308 -168 218 -280 442 -343 690 -48 188 -55 246 -55 475
1 179 5 235 23 334 29 150 97 357 163 489 61 123 169 290 201 311 59 38 490
196 606 221 32 7 32 6 21 -22 -6 -15 -23 -41 -39 -56 -17 -17 -32 -45 -36 -65
-4 -21 -14 -46 -24 -57 -31 -35 -70 -123 -70 -158 0 -21 -8 -41 -20 -52 -11
-10 -20 -25 -19 -34 0 -11 3 -10 9 5 4 11 20 28 34 37 24 16 39 46 16 32 -15
-9 -2 38 27 103 14 28 28 52 33 52 13 0 32 -78 25 -100 -4 -12 -2 -20 4 -20
14 0 14 70 1 105 -17 44 -1 103 41 152 22 24 39 53 39 63 0 27 147 166 233
219 21 13 48 39 60 58 27 43 127 86 197 85 39 0 41 1 15 7 l-30 8 30 13 c17 7
75 16 131 20 56 4 107 11 115 16 18 11 154 22 239 20 40 -1 86 -10 120 -24z
m-2915 -677 c80 -244 190 -530 214 -558 22 -26 70 -17 205 42 196 85 263 103
296 81 12 -9 7 -18 -31 -53 -49 -45 -181 -114 -344 -179 -104 -42 -427 -150
-481 -162 -29 -6 -31 -5 -32 21 -1 32 -19 313 -29 446 l-6 87 -176 201 c-97
111 -177 204 -179 208 -1 4 35 22 80 41 46 18 148 64 228 101 l145 68 19 -62
c11 -34 52 -161 91 -282z m3607 191 c142 -50 272 -107 377 -164 63 -34 79 -49
114 -103 316 -501 383 -1114 180 -1661 -13 -38 -27 -68 -30 -68 -10 0 -143 81
-170 104 -15 13 -48 34 -73 46 -25 13 -73 41 -108 62 -64 41 -159 70 -222 69
-19 -1 -57 10 -84 24 -28 14 -67 25 -88 25 -33 0 -98 23 -98 34 0 2 5 17 11
35 14 40 6 71 -28 105 l-27 27 27 55 c15 30 27 64 27 76 0 12 6 48 12 81 10
46 17 61 35 68 13 5 26 15 29 23 3 7 34 32 69 55 75 48 95 80 145 236 28 88
30 105 20 137 -6 22 -8 59 -4 87 5 37 1 68 -15 119 -16 53 -19 84 -15 129 6
57 6 59 -42 128 -74 109 -125 212 -118 239 5 20 -1 29 -32 50 -53 36 -34 33
108 -18z m-2508 -178 c-5 -7 -29 -45 -55 -85 -261 -401 -356 -913 -259 -1393
111 -548 466 -1023 960 -1284 283 -149 631 -222 946 -197 329 25 612 118 874
288 225 146 439 366 573 589 345 575 362 1295 45 1879 -24 44 -52 93 -62 108
-10 15 -17 30 -14 32 2 2 22 -7 44 -20 36 -21 50 -42 112 -167 263 -533 268
-1157 11 -1685 -105 -215 -217 -369 -391 -539 -163 -159 -277 -240 -483 -343
-591 -295 -1309 -246 -1865 128 -206 138 -371 303 -509 509 -213 315 -318 644
-328 1026 -8 251 17 415 98 669 65 202 199 449 261 479 40 20 51 22 42 6z
m-139 -90 c-54 -88 -154 -307 -188 -413 -132 -414 -127 -824 14 -1238 134
-395 408 -747 764 -979 348 -228 795 -339 1195 -298 270 28 451 80 681 195
557 279 935 805 1035 1440 23 149 23 403 0 555 -32 212 -89 396 -179 581 -30
60 -52 109 -49 109 6 0 182 -134 219 -167 35 -32 94 -186 132 -350 179 -768
-121 -1573 -764 -2048 -265 -196 -587 -327 -935 -381 -124 -19 -392 -21 -525
-4 -378 47 -736 195 -1030 426 -93 73 -270 250 -342 344 -199 257 -345 591
-392 895 -24 156 -33 285 -26 390 8 138 30 296 57 400 18 72 24 83 59 107 46
33 56 64 40 130 -11 50 -11 51 42 156 l53 107 74 42 c41 23 79 42 83 43 5 0
-4 -19 -18 -42z m3657 -64 c117 -59 288 -169 288 -186 0 -7 -16 -31 -36 -52
l-37 -40 -18 36 c-24 47 -78 93 -214 183 -61 40 -116 80 -124 89 -27 33 47 17
141 -30z m-3865 -79 l-42 -86 -17 38 c-9 21 -17 43 -17 50 -1 8 101 81 116 83
1 0 -17 -38 -40 -85z m898 9 c18 -44 18 -41 -1 -48 -8 -3 -13 -2 -10 3 3 5 -1
14 -9 21 -17 14 -21 60 -5 60 5 0 17 -16 25 -36z m2968 -245 c134 -387 134
-857 1 -1259 -179 -537 -564 -974 -1074 -1219 -452 -217 -949 -272 -1440 -160
-783 179 -1408 806 -1576 1580 -55 257 -58 617 -6 826 6 21 13 50 16 65 6 25
48 58 75 58 5 0 3 -24 -6 -57 -45 -173 -65 -480 -44 -672 51 -465 248 -876
579 -1209 385 -387 908 -602 1462 -602 767 0 1465 421 1824 1100 206 391 273
882 179 1325 -21 102 -68 257 -99 330 -6 15 3 11 41 -16 39 -29 53 -48 68 -90z
m-2903 91 c0 -5 -5 -10 -11 -10 -5 0 -7 5 -4 10 3 6 8 10 11 10 2 0 4 -4 4
-10z m9 -91 c23 -53 21 -70 -6 -53 -32 20 -55 61 -48 83 11 35 31 24 54 -30z
m121 -14 c0 -25 -6 -37 -21 -46 -21 -11 -21 -10 -5 12 9 13 16 34 16 46 0 13
2 23 5 23 3 0 5 -16 5 -35z m-103 -61 c-3 -3 -12 -4 -19 -1 -8 3 -5 6 6 6 11
1 17 -2 13 -5z m538 -645 c41 -18 75 -49 75 -69 0 -65 -180 -103 -297 -64
-167 56 -90 160 112 150 44 -2 94 -10 110 -17z m478 -16 c-7 -2 -21 -2 -30 0
-10 3 -4 5 12 5 17 0 24 -2 18 -5z m-812 -40 c-8 -15 -10 -15 -11 -2 0 17 10
32 18 25 2 -3 -1 -13 -7 -23z m728 25 c-2 -2 -17 -14 -34 -28 l-30 -25 24 28
c14 15 29 27 34 27 6 0 8 -1 6 -2z m229 -12 c168 -45 154 -140 -22 -153 l-73
-6 -57 47 c-39 32 -66 46 -86 46 -60 0 -20 53 53 70 52 13 128 11 185 -4z
m-492 -98 c-3 -29 -6 -70 -6 -92 0 -34 -2 -37 -16 -25 -19 16 -44 63 -44 84 0
18 50 85 64 85 5 0 6 -24 2 -52z m207 32 c3 -11 1 -18 -4 -14 -5 3 -9 12 -9
20 0 20 7 17 13 -6z m763 -32 c19 -23 19 -23 -2 -5 -36 30 -113 14 -115 -24 0
-11 -2 -11 -6 -1 -3 7 3 22 13 33 25 27 85 26 110 -3z m-656 -14 c17 -15 29
-28 27 -31 -6 -5 -96 37 -103 48 -12 21 47 7 76 -17z m640 -4 c11 -11 20 -29
20 -40 0 -22 -33 -60 -53 -60 -27 0 -57 31 -57 60 0 18 8 34 22 44 30 21 44
20 68 -4z m-1428 -103 c5 -62 38 -143 79 -196 11 -13 19 -27 19 -30 0 -16
-101 -42 -175 -45 -67 -4 -98 -12 -190 -50 l-110 -45 -3 31 c-2 17 1 51 7 74
6 24 11 71 11 106 0 69 5 81 42 106 125 85 119 82 188 82 43 0 73 5 86 15 33
25 41 18 46 -48z m1367 -49 c1 -22 21 -24 21 -3 0 8 5 15 11 15 7 0 8 -7 4
-17 -18 -44 -17 -64 6 -89 17 -19 20 -27 11 -36 -7 -7 -12 -31 -12 -54 0 -38
-5 -48 -50 -90 -29 -28 -50 -56 -50 -68 0 -12 -7 -32 -16 -44 -8 -12 -17 -37
-19 -55 -7 -80 -62 -162 -95 -142 -6 3 -22 -3 -36 -14 -15 -12 -39 -21 -55
-21 -18 0 -32 -7 -39 -20 -7 -13 -21 -20 -39 -20 -19 0 -34 -8 -45 -24 -8 -14
-25 -27 -36 -31 -11 -3 -23 -17 -26 -31 -4 -15 -13 -24 -26 -24 -17 0 -19 -6
-16 -37 2 -29 -1 -38 -12 -38 -8 0 -18 -4 -21 -9 -4 -4 -10 -3 -13 3 -4 6 -2
11 3 11 6 0 11 8 11 19 0 29 123 196 142 193 21 -3 34 16 20 30 -14 14 56 117
80 118 22 0 33 19 16 25 -13 5 -17 59 -5 71 3 4 14 4 23 0 13 -5 14 -9 4 -21
-12 -15 -6 -35 12 -35 6 0 8 9 5 20 -5 21 15 44 28 32 5 -4 5 -1 1 6 -6 10
-11 10 -21 2 -9 -8 -15 -8 -20 0 -3 5 4 14 17 19 13 6 18 10 11 10 -17 1 78
149 100 154 10 3 17 0 17 -9 0 -15 16 -19 24 -6 3 5 -4 16 -15 25 -11 10 -19
12 -19 5 0 -6 -2 -9 -5 -7 -9 10 22 89 40 103 18 13 18 15 3 21 -15 6 -14 11
5 65 l21 58 28 -22 c15 -11 27 -29 27 -38z m200 -7 c32 -4 71 -16 87 -26 17
-11 48 -20 74 -21 92 -3 156 -22 226 -67 102 -65 98 -55 85 -214 -6 -76 -14
-214 -17 -307 -7 -168 -7 -169 -36 -200 l-28 -31 -35 39 c-19 22 -35 36 -35
33 0 -3 14 -22 32 -42 l31 -36 -44 -45 c-162 -167 -414 -328 -649 -414 -115
-42 -279 -82 -312 -78 -15 3 -29 1 -30 -4 -5 -15 -212 -30 -348 -24 -263 10
-540 94 -793 242 -78 47 -89 64 -38 64 69 0 89 10 108 56 10 24 22 44 27 44 5
0 30 22 55 48 51 53 86 72 132 72 24 0 43 12 86 55 54 55 55 55 92 45 21 -5
45 -18 55 -29 15 -16 15 -19 1 -31 -36 -30 -1 -78 81 -109 43 -17 49 -23 64
-67 9 -27 31 -71 48 -98 43 -67 41 -49 -2 22 -19 32 -37 72 -41 91 -7 33 -7
33 23 27 16 -4 65 -7 108 -8 l79 0 0 -45 c0 -54 28 -83 81 -83 65 0 87 79 35
130 -31 31 -25 50 15 50 19 0 70 31 85 52 3 5 6 34 7 66 1 31 6 58 12 60 6 2
17 17 25 33 9 16 22 29 30 29 8 0 22 11 31 24 8 14 28 28 44 31 16 3 34 13 41
21 6 8 22 14 34 14 12 0 33 9 47 19 13 11 40 21 59 23 30 3 37 9 61 58 15 30
28 71 28 91 0 20 7 42 15 49 8 7 15 24 15 38 0 16 14 38 41 64 23 22 43 37 46
35 2 -3 -3 -22 -11 -42 -18 -42 -20 -59 -5 -32 27 46 48 129 38 148 -7 15 -5
27 8 50 18 30 18 30 -6 48 -21 16 -23 23 -17 64 9 59 30 73 69 45 16 -11 54
-23 86 -27z m-1924 -1 c-14 -16 -20 -45 -26 -123 -4 -56 -8 -103 -8 -103 -1
-1 -9 -1 -18 0 -12 1 -19 -7 -20 -24 -2 -23 -2 -23 6 -5 9 18 10 17 10 -7 1
-14 4 -35 7 -45 3 -11 -1 -8 -11 7 l-16 25 6 -29 6 -29 -27 32 c-21 25 -24 34
-14 46 7 8 10 22 6 30 -3 8 -1 15 5 15 6 0 7 5 4 11 -4 6 1 17 11 25 18 14 18
14 -3 4 -13 -6 -23 -16 -23 -23 0 -7 -11 -17 -25 -24 -21 -9 -25 -9 -26 5 0
14 -2 14 -6 2 -3 -8 -12 -23 -21 -32 -19 -22 -9 -46 24 -58 18 -7 24 -15 20
-27 -5 -13 -4 -14 8 -4 9 8 16 8 20 2 4 -6 -13 -20 -36 -32 -39 -19 -41 -20
-27 -3 15 18 15 21 -9 44 l-25 25 16 -24 c20 -30 8 -57 -53 -120 -24 -25 -39
-49 -36 -57 3 -8 1 -14 -5 -14 -7 0 -9 12 -7 30 3 21 -1 35 -14 47 -20 18 -23
58 -8 99 9 23 7 29 -17 50 -16 13 -35 29 -43 37 -13 11 -19 10 -35 -5 -24 -24
-31 -15 -11 14 9 12 16 27 16 33 0 5 -12 -8 -25 -29 -24 -40 -20 -66 10 -66 8
0 11 -10 9 -27 -3 -27 -3 -27 4 -3 4 14 18 27 32 31 24 7 24 7 3 8 -15 1 -21
6 -17 15 4 12 11 12 29 4 29 -13 26 -35 -11 -65 -17 -15 -21 -21 -8 -14 11 5
26 17 34 25 19 24 31 19 20 -10 -15 -38 -12 -81 6 -99 20 -19 28 -106 9 -99
-6 3 -18 -3 -26 -13 -13 -16 -12 -17 4 -4 9 7 17 9 17 3 0 -14 -26 -33 -34
-24 -4 4 -6 2 -5 -3 2 -6 -3 -20 -10 -33 -11 -21 -15 -22 -29 -9 -9 8 -24 17
-32 21 -8 4 -5 -1 8 -10 12 -9 22 -20 22 -24 0 -5 -10 -6 -22 -3 -22 5 -22 5
-4 -9 14 -11 16 -17 7 -23 -14 -8 -31 5 -34 26 -2 8 -6 20 -10 27 -5 7 0 22
12 37 17 23 20 24 24 8 4 -14 5 -14 6 4 2 32 -14 36 -27 8 -8 -17 -16 -23 -28
-18 -13 5 -15 3 -9 -7 5 -9 4 -11 -4 -6 -6 4 -9 12 -6 17 4 5 1 9 -5 9 -6 0
-8 4 -5 10 9 14 -14 52 -27 44 -7 -5 -8 -2 -4 5 5 7 1 17 -7 24 -9 7 -17 19
-19 27 -2 8 -9 21 -15 28 -24 25 -13 36 12 12 19 -18 22 -26 13 -32 -9 -5 -8
-8 5 -8 24 0 21 9 -14 46 l-30 31 30 13 c17 7 31 18 31 24 0 6 7 2 15 -8 13
-18 13 -22 -6 -39 -22 -21 -24 -15 20 -67 2 -3 1 4 -3 14 -5 15 -4 17 8 7 11
-9 15 -8 20 4 3 8 12 15 20 15 25 0 28 19 7 46 -24 30 -28 20 -5 -11 13 -18
13 -20 -3 -27 -37 -14 -46 -9 -40 22 4 16 2 32 -4 36 -6 3 -8 18 -5 33 3 14 3
20 -1 12 -4 -10 -12 -5 -29 15 l-23 29 0 -30 c0 -25 2 -27 8 -10 8 19 8 19 15
-3 8 -23 -7 -52 -26 -52 -6 0 -5 7 2 15 11 13 10 14 -4 9 -10 -4 -15 -13 -12
-21 4 -10 0 -13 -16 -11 -33 5 -35 34 -2 42 20 5 25 11 21 28 -3 11 -1 29 6
39 9 14 7 22 -7 38 -11 12 -24 21 -30 21 -6 0 0 -9 13 -19 18 -14 22 -23 16
-37 -5 -11 -9 -27 -9 -38 -1 -23 -42 -41 -49 -21 -3 7 3 21 14 31 10 9 19 21
19 27 0 5 -9 -1 -19 -14 -24 -30 -38 -18 -22 18 9 20 9 28 0 34 -7 4 -9 14 -6
23 7 18 67 23 67 5 0 -6 8 -8 19 -4 14 4 21 0 24 -12 4 -14 5 -13 6 5 0 13 5
21 10 18 5 -4 19 6 31 21 12 16 19 22 15 16 -4 -9 -1 -11 12 -6 15 6 14 2 -5
-21 -12 -16 -22 -38 -23 -50 -1 -19 -2 -18 -9 4 l-8 25 -1 -28 c-1 -39 21 -30
31 12 6 20 21 39 41 51 18 11 26 20 19 20 -10 0 -9 4 2 16 9 8 16 20 16 25 0
5 10 9 21 9 19 0 20 -2 8 -16 -9 -12 -3 -10 21 5 37 22 76 28 65 11 -4 -6 -1
-17 5 -25 10 -12 9 -15 -9 -15 -12 0 -32 -5 -43 -11 -16 -9 -23 -8 -29 2 -6
10 -9 10 -9 2 0 -6 4 -14 10 -18 10 -6 2 -36 -14 -47 -7 -5 -7 -8 2 -8 6 0 13
-10 13 -22 1 -18 2 -19 6 -5 2 9 9 15 14 12 5 -4 9 -1 9 4 0 6 7 11 15 11 8 0
15 -9 15 -20 0 -11 4 -20 9 -20 4 0 6 11 4 24 -3 16 -13 26 -29 29 -13 2 -24
0 -24 -4 0 -5 -4 -9 -9 -9 -5 0 -7 9 -4 19 4 16 12 18 41 15 21 -3 43 -5 50
-6 15 -2 15 -8 -3 -31 -7 -11 -11 -25 -8 -33 4 -11 9 -8 19 12 25 47 15 66
-40 80 -21 5 -27 4 -22 -5 4 -6 2 -11 -4 -11 -26 0 -1 25 28 28 34 3 39 11 20
30 -6 6 -8 15 -4 19 8 8 55 -46 56 -64 0 -15 19 -17 40 -3 13 8 12 12 -4 27
-14 12 -16 13 -8 2 12 -15 7 -29 -10 -29 -4 0 -8 4 -8 9 0 6 -12 22 -26 38
-16 17 -23 34 -20 48 4 18 4 18 -8 3 -7 -10 -17 -14 -25 -8 -10 6 -7 10 10 16
13 4 31 8 39 9 15 2 76 20 119 37 30 11 73 -14 64 -38 -5 -15 -7 -15 -15 0
-11 20 -71 21 -91 2 -11 -11 -17 -12 -26 -3 -9 9 -11 8 -6 -5 9 -22 19 -23 35
-3 14 17 80 21 80 5 0 -5 -12 -10 -26 -10 -31 0 -30 -29 3 -45 40 -20 55 -37
41 -46 -10 -7 -10 -9 -1 -9 7 0 10 -7 6 -17 -3 -10 -3 -15 1 -11 17 15 17 70
1 88 -16 17 -16 21 -1 41 15 21 14 25 -6 46 l-21 23 48 0 c48 0 48 0 30 -20z
m-80 -69 c-3 -6 4 -15 15 -21 11 -6 20 -16 20 -22 0 -7 -7 -5 -17 4 -10 8 -26
18 -35 21 -25 9 -23 27 3 27 11 0 18 -4 14 -9z m-342 -45 c-17 -22 -43 -25
-43 -4 0 5 -6 6 -12 2 -10 -6 -10 -5 -1 7 6 8 25 15 42 16 31 2 31 2 14 -21z
m-229 -71 c-4 -8 -1 -22 5 -29 7 -9 8 -17 2 -20 -5 -3 -14 8 -20 26 -14 39
-14 38 4 38 9 0 12 -6 9 -15z m1156 -9 c-24 -23 -89 -46 -96 -35 -3 6 -4 12
-2 14 10 10 75 34 93 35 17 0 17 -2 5 -14z m2005 -41 c33 -23 81 -54 107 -68
33 -20 45 -32 41 -43 -4 -11 -9 -12 -16 -5 -15 15 -50 14 -73 -4 -10 -8 -27
-15 -36 -15 -10 0 -18 -5 -18 -11 0 -6 9 -9 19 -6 10 2 25 1 32 -4 10 -6 8 -9
-8 -9 -24 0 -39 -15 -24 -25 6 -3 8 -12 5 -19 -3 -7 2 -19 11 -26 12 -10 15
-10 15 4 0 11 -5 15 -12 11 -7 -4 -4 1 6 9 17 14 18 16 3 16 -23 0 -22 16 2
23 11 2 21 15 23 28 3 26 36 38 48 18 12 -19 -11 -59 -34 -60 -17 -1 -18 -2
-3 -6 24 -6 21 -19 -9 -50 -14 -14 -23 -28 -20 -31 11 -11 -17 -32 -43 -32
-20 0 -23 2 -11 10 13 8 12 10 -2 10 -10 0 -18 -7 -18 -15 0 -9 9 -15 25 -15
14 0 25 -4 25 -9 0 -14 -41 -61 -53 -61 -7 0 -6 4 3 10 8 5 10 10 4 10 -18 0
-24 -13 -12 -27 8 -10 8 -17 0 -25 -8 -8 -14 -1 -21 23 -9 31 -10 30 -4 -13 3
-30 1 -48 -5 -48 -6 0 -12 6 -15 13 -2 6 -2 1 -1 -13 2 -16 -6 -36 -21 -55
l-25 -30 0 115 c0 105 10 259 26 417 4 43 10 61 18 56 6 -3 38 -25 71 -48z
m-2615 2 c0 -7 -5 -18 -12 -25 -9 -9 -6 -17 12 -37 13 -14 20 -28 16 -32 -4
-5 -14 1 -22 11 -8 11 -24 21 -36 23 -33 5 -45 20 -32 41 6 9 16 17 22 17 6 0
14 3 18 8 12 12 34 8 34 -6z m500 -7 c10 -19 11 -19 61 0 27 11 51 20 53 20 2
0 0 -17 -5 -37 -10 -45 -40 -73 -80 -73 -16 0 -29 -4 -29 -9 0 -16 -34 -18
-70 -2 -22 9 -67 14 -120 14 -67 0 -90 4 -108 18 -26 20 -26 19 49 50 34 15
86 25 139 29 47 4 88 7 92 8 4 1 12 -7 18 -18z m708 -25 c170 -30 296 -84 308
-132 6 -22 -1 -43 -14 -43 -4 0 -22 14 -40 30 -18 17 -40 30 -49 30 -8 0 -26
9 -40 20 -14 11 -34 20 -44 20 -10 0 -21 5 -24 10 -3 6 -17 10 -30 10 -13 0
-50 7 -82 16 -100 28 -173 34 -328 31 -105 -3 -160 -9 -185 -19 -19 -9 -45
-19 -57 -22 -20 -6 -21 -5 -10 18 12 25 37 34 142 50 63 9 363 -3 453 -19z
m-1498 -5 c-12 -23 -35 -26 -46 -7 -4 6 -4 9 1 5 4 -4 17 -1 29 7 27 20 29 19
16 -5z m1375 -30 c28 -5 70 -14 95 -20 25 -7 62 -14 83 -17 20 -3 40 -9 43
-14 3 -5 15 -9 28 -9 13 0 31 -9 41 -20 10 -11 26 -20 35 -20 9 0 29 -13 45
-30 l28 -29 -25 -10 c-209 -79 -676 -49 -875 56 -38 20 -39 24 -15 46 77 69
319 101 517 67z m-890 -28 c-3 -3 -11 0 -18 7 -9 10 -8 11 6 5 10 -3 15 -9 12
-12z m-115 -9 c0 -5 73 -8 163 -9 148 0 166 -2 210 -23 77 -38 108 -96 93
-176 -9 -45 -35 -59 -95 -49 l-46 8 35 7 c26 5 28 7 11 8 -24 1 -24 1 -5 22
22 25 23 25 -63 -19 -54 -28 -88 -27 -138 3 -42 26 -55 30 -55 17 0 -4 25 -20
56 -36 46 -24 62 -27 100 -21 38 5 52 2 88 -19 35 -20 159 -118 200 -157 16
-15 -33 -57 -74 -64 -52 -9 -135 4 -121 18 6 6 10 22 10 36 -1 24 -2 24 -8 -4
-3 -17 -14 -31 -23 -33 -35 -7 -136 49 -174 95 -44 54 -56 50 -17 -5 29 -43
96 -85 168 -107 32 -10 40 -17 40 -36 0 -20 -6 -25 -33 -27 -20 -2 -47 5 -68
17 -20 12 -59 30 -87 40 -29 10 -61 21 -72 25 -16 6 -15 4 4 -12 14 -11 43
-25 65 -32 23 -7 59 -23 82 -36 22 -13 51 -24 64 -24 l23 0 -23 -25 c-18 -19
-34 -25 -69 -26 l-46 -1 35 -13 c19 -7 27 -14 18 -14 -10 -1 -18 -8 -18 -16 0
-9 -6 -18 -14 -21 -8 -3 -13 -11 -10 -17 11 -31 -46 -54 -137 -56 -63 -2 -308
224 -451 415 -6 8 14 37 57 83 35 39 78 95 95 124 42 75 64 96 144 133 75 35
86 39 86 27z m480 -17 c0 -9 -30 -14 -35 -6 -4 6 3 10 14 10 12 0 21 -2 21 -4z
m51 -100 c116 -50 325 -86 514 -86 119 0 263 18 319 39 16 7 30 10 31 9 7 -7
-237 -345 -262 -365 -33 -26 -130 -53 -188 -53 -56 0 -156 25 -202 51 -74 41
-101 69 -134 136 -96 203 -138 293 -135 293 2 0 28 -11 57 -24z m-5 -132 c19
-41 34 -77 34 -80 0 -2 -11 3 -25 12 -14 9 -34 14 -44 11 -11 -3 -29 2 -41 10
l-21 15 26 20 c18 14 25 29 25 54 0 19 3 34 6 34 3 0 21 -34 40 -76z m-50 -84
c43 -28 87 -53 99 -56 21 -5 51 -51 41 -61 -8 -8 -61 26 -121 79 -34 29 -72
61 -85 70 -14 9 -22 17 -18 17 4 1 42 -22 84 -49z m60 -5 c10 -8 14 -15 8 -15
-5 0 -19 7 -30 15 -10 8 -14 15 -8 15 5 0 19 -7 30 -15z m674 -181 c22 -11 28
-19 20 -24 -7 -4 -10 -13 -6 -19 4 -6 -7 -19 -26 -30 -39 -25 -52 -17 -18 10
24 20 24 20 2 9 -19 -9 -27 -8 -42 5 -18 16 -18 18 8 41 15 13 27 24 28 24 0
0 16 -7 34 -16z m-710 -11 c0 -7 -68 -33 -89 -33 -11 0 -22 8 -24 18 -4 13 -5
11 -6 -5 0 -13 -6 -23 -12 -23 -5 0 -8 3 -6 8 2 4 7 15 10 24 5 14 18 17 67
17 33 -1 60 -3 60 -6z m288 -29 c84 -29 195 -35 270 -15 49 14 72 3 72 -31 0
-72 -319 -70 -422 4 -26 18 -36 47 -21 61 10 11 22 9 101 -19z m352 -124 c24
-24 26 -67 3 -92 -21 -24 -42 -23 -70 4 -27 25 -30 64 -6 90 21 24 48 23 73
-2z"/>
<path d="M2923 4503 c32 -2 81 -2 110 0 29 2 3 3 -58 3 -60 0 -84 -1 -52 -3z"/>
<path d="M3113 4503 c9 -2 23 -2 30 0 6 3 -1 5 -18 5 -16 0 -22 -2 -12 -5z"/>
<path d="M3273 4503 c26 -2 68 -2 95 0 26 2 4 3 -48 3 -52 0 -74 -1 -47 -3z"/>
<path d="M2773 4493 c15 -2 39 -2 55 0 15 2 2 4 -28 4 -30 0 -43 -2 -27 -4z"/>
<path d="M3463 4493 c15 -2 39 -2 55 0 15 2 2 4 -28 4 -30 0 -43 -2 -27 -4z"/>
<path d="M2678 4483 c12 -2 30 -2 40 0 9 3 -1 5 -23 4 -22 0 -30 -2 -17 -4z"/>
<path d="M3578 4483 c12 -2 30 -2 40 0 9 3 -1 5 -23 4 -22 0 -30 -2 -17 -4z"/>
<path d="M2593 4473 c9 -2 25 -2 35 0 9 3 1 5 -18 5 -19 0 -27 -2 -17 -5z"/>
<path d="M3658 4473 c12 -2 30 -2 40 0 9 3 -1 5 -23 4 -22 0 -30 -2 -17 -4z"/>
<path d="M2523 4463 c9 -2 23 -2 30 0 6 3 -1 5 -18 5 -16 0 -22 -2 -12 -5z"/>
<path d="M3733 4463 c9 -2 23 -2 30 0 6 3 -1 5 -18 5 -16 0 -22 -2 -12 -5z"/>
<path d="M2463 4453 c9 -2 23 -2 30 0 6 3 -1 5 -18 5 -16 0 -22 -2 -12 -5z"/>
<path d="M3815 4450 c17 -4 41 -8 55 -8 22 0 22 1 -5 8 -16 4 -41 8 -55 8 -22
0 -22 -1 5 -8z"/>
<path d="M2393 4443 c9 -2 23 -2 30 0 6 3 -1 5 -18 5 -16 0 -22 -2 -12 -5z"/>
<path d="M2310 4430 c-20 -6 -21 -8 -5 -8 11 0 31 4 45 8 20 6 21 8 5 8 -11 0
-31 -4 -45 -8z"/>
<path d="M3908 4433 c6 -2 18 -2 25 0 6 3 1 5 -13 5 -14 0 -19 -2 -12 -5z"/>
<path d="M3958 4423 c6 -2 18 -2 25 0 6 3 1 5 -13 5 -14 0 -19 -2 -12 -5z"/>
<path d="M2248 4413 c6 -2 18 -2 25 0 6 3 1 5 -13 5 -14 0 -19 -2 -12 -5z"/>
<path d="M4008 4413 c6 -2 18 -2 25 0 6 3 1 5 -13 5 -14 0 -19 -2 -12 -5z"/>
<path d="M2208 4403 c7 -3 16 -2 19 1 4 3 -2 6 -13 5 -11 0 -14 -3 -6 -6z"/>
<path d="M4058 4403 c7 -3 16 -2 19 1 4 3 -2 6 -13 5 -11 0 -14 -3 -6 -6z"/>
<path d="M2168 4393 c7 -3 16 -2 19 1 4 3 -2 6 -13 5 -11 0 -14 -3 -6 -6z"/>
<path d="M4098 4393 c7 -3 16 -2 19 1 4 3 -2 6 -13 5 -11 0 -14 -3 -6 -6z"/>
<path d="M2128 4383 c7 -3 16 -2 19 1 4 3 -2 6 -13 5 -11 0 -14 -3 -6 -6z"/>
<path d="M4138 4383 c7 -3 16 -2 19 1 4 3 -2 6 -13 5 -11 0 -14 -3 -6 -6z"/>
<path d="M2045 4365 c-39 -14 -40 -14 -5 -8 41 7 82 22 60 22 -8 0 -33 -7 -55
-14z"/>
<path d="M4178 4373 c7 -3 16 -2 19 1 4 3 -2 6 -13 5 -11 0 -14 -3 -6 -6z"/>
<path d="M4225 4360 c11 -5 27 -9 35 -9 9 0 8 4 -5 9 -11 5 -27 9 -35 9 -9 0
-8 -4 5 -9z"/>
<path d="M1955 4340 c-13 -5 -14 -9 -5 -9 8 0 24 4 35 9 13 5 14 9 5 9 -8 0
-24 -4 -35 -9z"/>
<path d="M4325 4330 c11 -5 27 -9 35 -9 9 0 8 4 -5 9 -11 5 -27 9 -35 9 -9 0
-8 -4 5 -9z"/>
<path d="M1862 4313 c-24 -8 -41 -17 -39 -19 2 -2 28 5 58 15 30 11 47 20 39
19 -8 0 -34 -6 -58 -15z"/>
<path d="M4495 4276 c17 -7 41 -16 55 -20 20 -5 19 -3 -5 8 -16 7 -41 16 -55
20 -20 5 -19 3 5 -8z"/>
<path d="M1735 4265 c-25 -12 -26 -14 -5 -9 28 7 60 23 45 23 -5 0 -23 -6 -40
-14z"/>
<path d="M1655 4235 c-25 -12 -26 -14 -5 -9 28 7 60 23 45 23 -5 0 -23 -6 -40
-14z"/>
<path d="M4590 4240 c8 -5 20 -10 25 -10 6 0 3 5 -5 10 -8 5 -19 10 -25 10 -5
0 -3 -5 5 -10z"/>
<path d="M4640 4222 c8 -5 26 -13 40 -16 17 -5 20 -4 10 2 -8 5 -26 13 -40 16
-17 5 -20 4 -10 -2z"/>
<path d="M1590 4210 c-8 -5 -10 -10 -5 -10 6 0 17 5 25 10 8 5 11 10 5 10 -5
0 -17 -5 -25 -10z"/>
<path d="M1530 4185 c-14 -8 -20 -14 -15 -14 6 0 21 6 35 14 14 8 21 14 15 14
-5 0 -21 -6 -35 -14z"/>
<path d="M4779 4165 c40 -20 75 -34 78 -32 2 2 -25 17 -59 32 -93 40 -104 40
-19 0z"/>
<path d="M1460 4155 c-14 -8 -20 -14 -15 -14 6 0 21 6 35 14 14 8 21 14 15 14
-5 0 -21 -6 -35 -14z"/>
<path d="M1308 4084 c-60 -30 -108 -56 -108 -59 0 -5 219 102 229 111 15 14
-29 -5 -121 -52z"/>
<path d="M4931 4096 c10 -9 109 -56 109 -51 0 5 -95 55 -106 55 -4 0 -5 -2 -3
-4z"/>
<path d="M5055 4033 c14 -14 172 -98 160 -85 -5 6 -46 30 -90 53 -44 23 -75
38 -70 32z"/>
<path d="M1074 3957 c-127 -73 -224 -135 -224 -142 0 -3 30 15 68 38 37 24
113 70 170 102 89 50 111 65 99 65 -2 0 -52 -28 -113 -63z"/>
<path d="M765 3759 c-88 -64 -110 -86 -30 -30 72 50 112 80 105 81 -3 0 -37
-23 -75 -51z"/>
<path d="M2608 3703 c6 -2 18 -2 25 0 6 3 1 5 -13 5 -14 0 -19 -2 -12 -5z"/>
<path d="M2558 3693 c6 -2 18 -2 25 0 6 3 1 5 -13 5 -14 0 -19 -2 -12 -5z"/>
<path d="M2480 3680 c-20 -6 -21 -8 -5 -8 11 0 31 4 45 8 20 6 21 8 5 8 -11 0
-31 -4 -45 -8z"/>
<path d="M691 3675 c1 -19 18 -51 18 -35 0 8 -4 22 -9 30 -5 8 -9 11 -9 5z"/>
<path d="M2375 3655 c-54 -17 -33 -18 30 -1 28 8 41 14 30 14 -11 0 -38 -5
-60 -13z"/>
<path d="M2510 3660 c-20 -6 -21 -8 -5 -8 11 0 34 4 50 8 27 7 27 8 5 8 -14 0
-36 -4 -50 -8z"/>
<path d="M2425 3640 c-25 -11 1 -11 35 0 20 6 21 8 5 8 -11 0 -29 -3 -40 -8z"/>
<path d="M2285 3630 c-13 -5 -14 -9 -5 -9 8 0 24 4 35 9 13 5 14 9 5 9 -8 0
-24 -4 -35 -9z"/>
<path d="M2345 3620 c-25 -11 1 -11 35 0 20 6 21 8 5 8 -11 0 -29 -3 -40 -8z"/>
<path d="M4144 3604 c39 -13 75 -24 80 -23 6 0 -20 11 -58 25 -39 13 -75 24
-80 23 -6 0 20 -11 58 -25z"/>
<path d="M712 3610 c3 -8 35 -106 73 -218 37 -112 69 -202 71 -199 5 4 -133
418 -142 426 -4 3 -5 -1 -2 -9z"/>
<path d="M2215 3610 c-13 -5 -14 -9 -5 -9 8 0 24 4 35 9 13 5 14 9 5 9 -8 0
-24 -4 -35 -9z"/>
<path d="M2275 3600 c-13 -5 -14 -9 -5 -9 8 0 24 4 35 9 13 5 14 9 5 9 -8 0
-24 -4 -35 -9z"/>
<path d="M2205 3580 c-13 -5 -14 -9 -5 -9 8 0 24 4 35 9 13 5 14 9 5 9 -8 0
-24 -4 -35 -9z"/>
<path d="M4250 3572 c8 -5 26 -13 40 -16 17 -5 20 -4 10 2 -8 5 -26 13 -40 16
-17 5 -20 4 -10 -2z"/>
<path d="M2032 3553 c-24 -8 -41 -17 -39 -19 2 -2 28 5 58 15 30 11 47 20 39
19 -8 0 -34 -6 -58 -15z"/>
<path d="M2125 3555 c-39 -17 -21 -18 25 0 19 7 28 14 20 14 -8 0 -28 -6 -45
-14z"/>
<path d="M4370 3525 c14 -8 30 -14 35 -14 6 0 -1 6 -15 14 -14 8 -29 14 -35
14 -5 0 1 -6 15 -14z"/>
<path d="M1877 3493 c-48 -19 -86 -37 -84 -39 3 -4 178 64 186 72 11 10 -21 0
-102 -33z"/>
<path d="M1897 3473 c-48 -19 -86 -37 -84 -39 3 -4 178 64 186 72 11 10 -21 0
-102 -33z"/>
<path d="M2270 3490 c-18 -12 -2 -12 25 0 13 6 15 9 5 9 -8 0 -22 -4 -30 -9z"/>
<path d="M4088 3483 c7 -3 16 -2 19 1 4 3 -2 6 -13 5 -11 0 -14 -3 -6 -6z"/>
<path d="M2210 3470 c-18 -12 -2 -12 25 0 13 6 15 9 5 9 -8 0 -22 -4 -30 -9z"/>
<path d="M4135 3470 c11 -5 27 -9 35 -9 9 0 8 4 -5 9 -11 5 -27 9 -35 9 -9 0
-8 -4 5 -9z"/>
<path d="M1750 3440 c-8 -5 -10 -10 -5 -10 6 0 17 5 25 10 8 5 11 10 5 10 -5
0 -17 -5 -25 -10z"/>
<path d="M2115 3435 c-25 -12 -26 -14 -5 -9 28 7 60 23 45 23 -5 0 -23 -6 -40
-14z"/>
<path d="M1650 3395 c-36 -19 -60 -34 -55 -34 6 0 39 15 75 34 36 19 61 34 55
34 -5 0 -39 -15 -75 -34z"/>
<path d="M1750 3410 c-19 -11 -30 -19 -25 -19 6 0 26 8 45 19 19 11 31 19 25
19 -5 0 -26 -8 -45 -19z"/>
<path d="M4280 3427 c8 -8 204 -87 207 -83 2 2 -33 19 -79 38 -86 36 -137 54
-128 45z"/>
<path d="M2035 3405 c-25 -12 -26 -14 -5 -9 28 7 60 23 45 23 -5 0 -23 -6 -40
-14z"/>
<path d="M1610 3345 c-47 -24 -80 -44 -75 -44 6 0 48 20 95 44 47 24 81 44 75
44 -5 0 -48 -20 -95 -44z"/>
<path d="M1970 3380 c-8 -5 -10 -10 -5 -10 6 0 17 5 25 10 8 5 11 10 5 10 -5
0 -17 -5 -25 -10z"/>
<path d="M1885 3345 c-27 -13 -45 -23 -40 -24 6 0 33 11 60 24 28 13 46 23 40
24 -5 0 -32 -11 -60 -24z"/>
<path d="M1436 3288 c-143 -78 -306 -176 -306 -185 0 -3 12 3 28 13 39 26 257
152 349 201 43 23 74 42 68 42 -5 0 -68 -32 -139 -71z"/>
<path d="M4501 3336 c10 -9 89 -46 89 -41 0 5 -75 45 -86 45 -4 0 -5 -2 -3 -4z"/>
<path d="M1750 3285 c-36 -19 -60 -34 -55 -34 6 0 39 15 75 34 36 19 61 34 55
34 -5 0 -39 -15 -75 -34z"/>
<path d="M4620 3275 c0 -2 18 -14 40 -25 22 -11 40 -18 40 -15 0 2 -18 14 -40
25 -22 11 -40 18 -40 15z"/>
<path d="M1517 3170 c-70 -38 -137 -76 -149 -85 -38 -26 -11 -17 39 14 27 16
95 54 153 85 58 31 100 56 95 56 -6 0 -68 -31 -138 -70z"/>
<path d="M4710 3227 c0 -2 35 -25 78 -52 63 -40 149 -102 261 -189 11 -8 13
-8 8 1 -19 30 -347 258 -347 240z"/>
<path d="M861 3170 c0 -8 4 -22 9 -30 12 -18 12 -2 0 25 -6 13 -9 15 -9 5z"/>
<path d="M1026 3039 c-69 -48 -90 -59 -97 -48 -6 9 -9 10 -9 2 0 -29 26 -21
103 33 85 59 105 74 96 74 -3 0 -45 -28 -93 -61z"/>
<path d="M1227 2971 c-40 -26 -47 -36 -12 -18 42 23 62 37 50 36 -5 0 -22 -8
-38 -18z"/>
<path d="M1084 2879 c-49 -33 -96 -67 -104 -76 -14 -14 172 109 195 129 26 23
-11 2 -91 -53z"/>
<path d="M2665 4351 c-58 -10 -90 -20 -89 -28 1 -7 2 -24 3 -38 1 -20 6 -25
26 -25 37 0 50 -32 70 -169 17 -109 17 -126 4 -149 -31 -56 -96 -66 -138 -21
-21 23 -54 178 -55 259 -1 38 3 47 22 55 20 9 22 15 17 45 -4 19 -9 37 -11 39
-5 5 -212 -29 -240 -39 -18 -7 -21 -14 -15 -41 4 -21 13 -33 25 -35 35 -5 45
-29 67 -159 11 -71 28 -145 36 -163 47 -101 239 -117 339 -29 71 61 75 89 41
272 -25 133 -25 151 4 160 19 6 25 37 13 69 -7 19 -3 19 -119 -3z m105 -24 c0
-12 -9 -28 -20 -35 -12 -7 -20 -23 -20 -40 0 -15 9 -74 20 -132 26 -137 26
-179 -3 -221 -53 -79 -190 -112 -276 -67 -66 34 -78 57 -101 203 -24 153 -31
172 -64 181 -26 6 -42 32 -29 45 8 7 185 39 217 39 10 0 16 -9 16 -25 0 -15
-6 -25 -15 -25 -34 0 -37 -37 -14 -178 20 -120 26 -140 50 -164 22 -22 37 -28
71 -28 51 0 81 18 97 59 11 24 9 52 -8 162 -12 73 -27 139 -33 146 -6 8 -24
21 -40 29 -44 23 -35 41 25 53 28 5 61 12 72 14 45 10 55 7 55 -16z"/>
<path d="M3927 4313 c-2 -5 -7 -20 -11 -35 -5 -23 -2 -30 24 -43 16 -9 30 -17
30 -19 0 -23 -72 -301 -81 -312 -6 -8 -24 -14 -39 -14 -24 0 -28 -5 -33 -32
-3 -18 -2 -36 2 -39 9 -9 263 -71 268 -66 2 3 6 21 10 40 5 32 2 38 -21 48
-14 7 -26 19 -26 28 0 9 15 81 33 161 l32 145 33 3 c24 3 35 10 43 28 17 48
14 50 -116 83 -135 34 -142 35 -148 24z m141 -40 c101 -24 113 -30 110 -48 -2
-14 -12 -21 -31 -23 -15 -2 -33 -13 -41 -25 -7 -12 -28 -89 -46 -172 l-32
-149 26 -21 c26 -21 34 -49 17 -59 -9 -6 -221 42 -233 53 -10 9 2 52 13 45 14
-8 48 6 58 25 12 22 71 278 71 307 0 12 -11 31 -26 41 -17 13 -23 24 -18 36 3
9 9 17 13 17 3 0 57 -12 119 -27z"/>
<path d="M2095 4225 c-5 -2 -82 -24 -170 -51 -88 -26 -163 -50 -168 -54 -4 -3
-2 -21 4 -38 8 -23 17 -32 34 -32 12 0 28 -6 34 -14 16 -20 99 -288 94 -303
-3 -7 -14 -15 -25 -18 -16 -6 -18 -12 -13 -38 4 -18 11 -36 16 -41 11 -12 364
92 396 117 41 32 57 77 54 149 -1 33 -54 96 -88 104 -18 5 -22 11 -17 23 4 9
9 39 12 66 3 41 -1 56 -19 79 -33 42 -100 65 -144 51z m115 -40 c11 -10 25
-35 31 -56 10 -32 9 -44 -8 -78 l-21 -41 43 -19 c49 -22 73 -53 82 -104 6 -41
-19 -101 -51 -123 -20 -13 -343 -114 -365 -114 -5 0 -13 9 -16 21 -5 15 -1 25
14 35 30 21 26 48 -27 209 -45 134 -48 140 -79 149 -17 4 -33 17 -36 27 -5 18
54 41 283 108 50 15 126 7 150 -14z"/>
<path d="M2016 4126 c-56 -21 -58 -26 -38 -87 22 -64 40 -71 104 -38 50 25 58
35 58 70 0 56 -54 80 -124 55z m99 -30 c20 -30 12 -50 -31 -77 -50 -31 -76
-23 -90 29 -12 41 -12 42 14 57 43 23 89 19 107 -9z"/>
<path d="M2075 3936 c-30 -6 -51 -17 -52 -26 -1 -8 7 -44 20 -80 22 -64 22
-65 57 -62 45 4 92 31 107 64 18 35 0 84 -38 103 -32 17 -27 17 -94 1z m100
-31 c41 -40 28 -87 -30 -111 -61 -25 -71 -20 -89 44 -21 74 -21 70 17 81 53
15 77 12 102 -14z"/>
<path d="M4231 4169 l-54 -60 28 -29 28 -29 33 25 c36 28 114 45 114 25 0 -16
-101 -283 -113 -298 -5 -7 -22 -13 -38 -13 -21 0 -32 -7 -44 -30 -18 -35 -27
-29 135 -94 63 -25 118 -42 122 -38 4 4 10 22 14 39 5 25 2 33 -15 42 -12 7
-21 21 -21 33 0 25 97 288 111 303 15 14 57 -41 71 -92 11 -40 15 -43 45 -43
l33 0 0 89 0 90 -53 20 c-30 11 -113 42 -185 70 -72 28 -137 51 -144 50 -7 0
-37 -27 -67 -60z m254 -24 c93 -36 170 -66 171 -68 1 -1 3 -36 5 -77 3 -63 1
-75 -13 -78 -11 -2 -20 10 -32 46 -18 53 -67 108 -89 99 -14 -5 -127 -294
-127 -326 0 -10 9 -26 20 -36 23 -21 23 -62 0 -57 -8 2 -61 21 -117 44 -80 31
-103 44 -103 59 0 14 7 19 28 19 49 0 50 2 122 194 29 75 49 144 46 152 -11
28 -74 17 -143 -27 -20 -12 -25 -12 -38 2 -15 14 -12 20 30 67 26 29 52 52 59
52 7 0 88 -29 181 -65z"/>
<path d="M1390 3980 l-45 -18 0 -232 0 -232 -26 -21 c-23 -19 -25 -25 -15 -47
25 -57 12 -58 168 13 l78 36 -14 33 c-12 28 -20 33 -48 33 -32 0 -33 1 -33 43
l0 44 59 25 59 24 28 -27 c34 -33 36 -49 8 -64 -16 -9 -19 -17 -14 -38 3 -15
10 -31 15 -36 9 -9 260 91 260 104 0 4 -5 22 -11 39 -9 26 -16 32 -32 27 -34
-8 -66 17 -217 168 -80 80 -152 146 -160 145 -8 -1 -35 -9 -60 -19z m230 -155
c135 -133 161 -155 188 -155 22 0 32 -6 37 -21 4 -11 5 -22 3 -25 -13 -12
-221 -93 -229 -88 -15 9 -10 30 11 49 27 24 25 33 -15 79 l-35 39 -72 -31 -73
-30 -3 -47 c-4 -56 10 -76 52 -72 25 2 32 -2 34 -19 2 -17 -11 -27 -82 -58
-47 -21 -92 -36 -101 -32 -21 8 -19 40 5 61 18 17 20 33 22 248 l3 230 35 13
c19 7 42 13 50 13 8 1 84 -69 170 -154z"/>
<path d="M1420 3782 c0 -43 3 -81 6 -85 6 -6 93 29 109 44 9 9 -90 119 -107
119 -4 0 -8 -35 -8 -78z m90 -32 c0 -8 -46 -30 -60 -30 -6 0 -10 25 -10 56 l0
57 35 -39 c19 -21 35 -41 35 -44z"/>
<path d="M4760 3818 c-85 -71 -163 -134 -173 -140 -10 -5 -34 -8 -53 -6 -30 2
-38 -1 -52 -26 -15 -25 -15 -29 -2 -38 43 -26 200 -118 202 -118 2 0 12 16 23
36 l20 37 -23 15 c-30 20 -28 35 9 66 l30 26 47 -27 c71 -40 74 -44 64 -89 -8
-39 -18 -44 -54 -29 -12 5 -21 -2 -33 -25 -9 -18 -15 -33 -13 -35 2 -1 57 -35
123 -74 112 -68 120 -71 133 -54 23 31 26 62 7 83 -16 17 -15 30 4 215 29 276
32 256 -34 288 -31 15 -59 27 -63 26 -4 0 -77 -59 -162 -131z m224 86 c44 -25
46 -27 41 -62 -3 -21 -14 -118 -24 -217 -17 -160 -17 -183 -4 -212 11 -23 12
-36 4 -52 -10 -19 -16 -17 -121 46 -93 56 -108 68 -100 83 6 12 17 16 35 13
38 -8 55 13 55 67 l0 47 -59 32 c-32 17 -65 31 -73 31 -16 0 -78 -54 -78 -68
0 -5 9 -21 21 -36 17 -22 18 -28 7 -44 -12 -18 -17 -17 -97 29 -47 27 -89 53
-94 58 -16 16 12 42 37 35 37 -9 67 10 231 145 87 72 162 131 166 131 3 0 27
-12 53 -26z"/>
<path d="M4835 3778 l-56 -51 48 -28 c26 -16 51 -29 55 -29 3 0 9 18 12 40 3
22 9 58 12 80 3 24 2 40 -4 40 -6 0 -36 -23 -67 -52z m49 -25 c-9 -65 -11 -67
-46 -41 l-31 22 39 33 c21 18 40 33 42 33 2 0 0 -21 -4 -47z"/>
<path d="M3180 3844 c34 -7 192 -10 174 -3 -10 4 -57 7 -104 7 -47 0 -78 -2
-70 -4z"/>
<path d="M3123 3833 c9 -2 23 -2 30 0 6 3 -1 5 -18 5 -16 0 -22 -2 -12 -5z"/>
<path d="M3053 3823 c9 -2 25 -2 35 0 9 3 1 5 -18 5 -19 0 -27 -2 -17 -5z"/>
<path d="M3390 3820 c8 -5 20 -10 25 -10 6 0 3 5 -5 10 -8 5 -19 10 -25 10 -5
0 -3 -5 5 -10z"/>
<path d="M3430 3807 c0 -2 23 -19 52 -36 28 -18 47 -26 40 -19 -11 14 -92 62
-92 55z"/>
<path d="M2801 3724 c0 -11 3 -14 6 -6 3 7 2 16 -1 19 -3 4 -6 -2 -5 -13z"/>
<path d="M3449 3695 c71 -22 118 -79 152 -183 10 -32 18 -49 18 -40 2 34 -40
126 -76 168 -36 42 -86 71 -120 69 -10 0 2 -6 26 -14z"/>
<path d="M2760 3657 c-27 -31 -69 -89 -48 -67 43 45 90 101 87 103 -2 2 -20
-14 -39 -36z"/>
<path d="M3126 3609 c-31 -36 -39 -64 -33 -110 3 -31 4 -30 5 9 2 47 13 75 45
110 11 12 18 22 15 22 -4 0 -18 -14 -32 -31z"/>
<path d="M3815 3560 c19 -28 35 -57 35 -63 0 -6 3 -8 6 -4 8 7 -38 88 -61 107
-9 7 0 -11 20 -40z"/>
<path d="M2692 3525 c0 -16 2 -22 5 -12 2 9 2 23 0 30 -3 6 -5 -1 -5 -18z"/>
<path d="M3863 3445 c0 -22 2 -30 4 -17 2 12 2 30 0 40 -3 9 -5 -1 -4 -23z"/>
<path d="M2721 3440 c34 -53 161 -90 207 -61 8 5 -7 6 -36 3 -63 -6 -110 10
-153 51 -27 26 -31 27 -18 7z"/>
<path d="M3100 3455 c0 -24 36 -59 119 -115 49 -32 98 -74 109 -92 12 -18 22
-29 22 -25 0 24 -51 74 -128 126 -48 32 -95 72 -104 87 -10 16 -18 24 -18 19z"/>
<path d="M3622 3420 c0 -19 2 -27 5 -17 2 9 2 25 0 35 -3 9 -5 1 -5 -18z"/>
<path d="M2707 3410 c4 -8 11 -40 14 -70 l6 -55 2 51 c0 33 -4 57 -15 70 -8
10 -12 12 -7 4z"/>
<path d="M2970 3405 c-14 -8 -20 -14 -14 -15 5 0 19 7 30 15 24 18 16 19 -16
0z"/>
<path d="M3872 3370 c0 -14 2 -19 5 -12 2 6 2 18 0 25 -3 6 -5 1 -5 -13z"/>
<path d="M4092 3360 c0 -14 2 -19 5 -12 2 6 2 18 0 25 -3 6 -5 1 -5 -13z"/>
<path d="M2511 3324 c13 -17 26 -30 28 -27 3 2 -8 16 -24 31 l-28 27 24 -31z"/>
<path d="M3880 3335 c0 -10 40 -75 47 -75 2 0 -6 17 -18 38 -28 45 -29 47 -29
37z"/>
<path d="M4078 3315 c-3 -11 -9 -29 -13 -40 -3 -11 1 -7 10 8 9 16 15 33 12
40 -2 6 -6 3 -9 -8z"/>
<path d="M2826 3280 c-9 -22 -16 -53 -15 -68 1 -20 3 -16 9 15 5 23 14 52 20
63 6 12 10 24 7 26 -2 3 -12 -13 -21 -36z"/>
<path d="M3622 3290 c0 -19 2 -27 5 -17 2 9 2 25 0 35 -3 9 -5 1 -5 -18z"/>
<path d="M2543 3230 c0 -30 2 -43 4 -27 2 15 2 39 0 55 -2 15 -4 2 -4 -28z"/>
<path d="M2656 3183 c-57 -79 -86 -138 -85 -173 1 -18 3 -15 10 13 11 46 33
91 69 137 33 42 64 90 59 90 -3 0 -26 -30 -53 -67z"/>
<path d="M3608 3235 c-3 -11 -9 -29 -13 -40 -3 -11 1 -7 10 8 9 16 15 33 12
40 -2 6 -6 3 -9 -8z"/>
<path d="M4052 3230 c0 -14 2 -19 5 -12 2 6 2 18 0 25 -3 6 -5 1 -5 -13z"/>
<path d="M2531 3154 c0 -11 3 -14 6 -6 3 7 2 16 -1 19 -3 4 -6 -2 -5 -13z"/>
<path d="M2821 3159 c-2 -46 87 -169 122 -169 7 0 -2 10 -20 21 -35 23 -66 66
-87 125 -8 22 -15 32 -15 23z"/>
<path d="M3933 3115 c0 -27 2 -38 4 -22 2 15 2 37 0 50 -2 12 -4 0 -4 -28z"/>
<path d="M3530 3098 c-43 -54 -90 -141 -90 -168 0 -8 11 11 24 43 13 31 41 79
62 105 52 65 57 72 52 72 -2 0 -24 -24 -48 -52z"/>
<path d="M3446 3114 c-4 -14 -5 -28 -3 -31 3 -2 8 8 11 23 4 14 5 28 3 31 -3
2 -8 -8 -11 -23z"/>
<path d="M4146 3102 c64 -42 83 -61 107 -107 9 -16 16 -26 17 -22 0 16 -29 63
-57 88 -34 32 -104 79 -117 79 -5 0 17 -17 50 -38z"/>
<path d="M2523 3080 c0 -30 2 -43 4 -27 2 15 2 39 0 55 -2 15 -4 2 -4 -28z"/>
<path d="M4018 3114 c6 -12 34 -38 62 -58 28 -20 58 -51 65 -69 8 -18 14 -26
15 -19 0 25 -32 69 -64 88 -17 10 -44 32 -60 48 -20 21 -25 24 -18 10z"/>
<path d="M2960 3103 c0 -36 116 -111 137 -89 4 3 -2 6 -13 6 -31 0 -83 32
-104 65 -11 17 -20 25 -20 18z"/>
<path d="M3327 3045 c-9 -20 -17 -41 -17 -48 0 -7 9 8 20 32 24 52 21 66 -3
16z"/>
<path d="M3426 3055 c-9 -26 -7 -32 5 -12 6 10 9 21 6 23 -2 3 -7 -2 -11 -11z"/>
<path d="M3901 3015 c-27 -51 -56 -73 -114 -85 l-42 -9 41 3 c23 2 53 12 68
21 26 17 83 101 74 110 -2 2 -14 -16 -27 -40z"/>
<path d="M2531 3004 c0 -11 3 -14 6 -6 3 7 2 16 -1 19 -3 4 -6 -2 -5 -13z"/>
<path d="M3390 2980 c-11 -21 -19 -54 -19 -72 1 -32 2 -32 8 7 4 22 15 55 24
73 10 17 15 32 12 32 -2 0 -14 -18 -25 -40z"/>
<path d="M3118 3003 c6 -2 18 -2 25 0 6 3 1 5 -13 5 -14 0 -19 -2 -12 -5z"/>
<path d="M3568 3003 c12 -2 32 -2 45 0 12 2 2 4 -23 4 -25 0 -35 -2 -22 -4z"/>
<path d="M3196 2981 c23 -10 54 -37 72 -62 18 -23 32 -39 32 -34 0 31 -95 115
-130 115 -8 0 3 -9 26 -19z"/>
<path d="M3665 2980 c17 -11 41 -27 55 -37 34 -24 23 -11 -24 26 -21 17 -44
31 -50 31 -6 0 3 -9 19 -20z"/>
<path d="M3301 2964 c0 -11 3 -14 6 -6 3 7 2 16 -1 19 -3 4 -6 -2 -5 -13z"/>
<path d="M4272 2895 c-1 -38 -5 -81 -7 -95 l-6 -25 11 24 c6 14 9 57 7 95 l-3
71 -2 -70z"/>
<path d="M2556 2928 c31 -103 65 -139 131 -137 l48 2 -53 6 c-62 8 -82 27
-108 104 -15 46 -32 68 -18 25z"/>
<path d="M4161 2934 c0 -11 3 -14 6 -6 3 7 2 16 -1 19 -3 4 -6 -2 -5 -13z"/>
<path d="M2873 2933 c9 -2 25 -2 35 0 9 3 1 5 -18 5 -19 0 -27 -2 -17 -5z"/>
<path d="M3310 2924 c0 -10 5 -26 10 -34 8 -11 9 -7 4 15 -8 37 -14 45 -14 19z"/>
<path d="M2642 2888 c31 -31 44 -38 75 -37 l38 2 -43 6 c-25 5 -55 19 -75 37
-22 19 -20 16 5 -8z"/>
<path d="M2958 2923 c12 -2 32 -2 45 0 12 2 2 4 -23 4 -25 0 -35 -2 -22 -4z"/>
<path d="M3084 2866 c44 -46 116 -97 116 -81 0 2 -17 13 -37 24 -21 11 -55 40
-76 65 -21 25 -41 46 -46 46 -4 0 16 -24 43 -54z"/>
<path d="M2360 2898 c3 -3 21 -10 40 -17 19 -6 30 -7 25 -2 -6 5 -23 13 -40
17 -16 4 -28 5 -25 2z"/>
<path d="M2835 2890 c-25 -11 1 -11 35 0 20 6 21 8 5 8 -11 0 -29 -3 -40 -8z"/>
<path d="M2936 2890 c12 -4 33 -23 48 -42 14 -18 26 -30 26 -26 0 16 -63 78
-79 77 -12 0 -10 -3 5 -9z"/>
<path d="M2510 2796 c76 -79 134 -116 180 -115 20 1 21 2 5 6 -66 15 -96 33
-174 106 l-86 81 75 -78z"/>
<path d="M3515 2840 c-38 -25 -30 -25 20 0 22 11 33 20 25 20 -8 0 -28 -9 -45
-20z"/>
<path d="M3627 2839 c23 -11 52 -36 64 -55 25 -42 66 -65 111 -63 l33 2 -30 4
c-51 7 -79 22 -104 58 -24 36 -78 75 -102 75 -8 0 5 -9 28 -21z"/>
<path d="M2788 2813 c6 -2 18 -2 25 0 6 3 1 5 -13 5 -14 0 -19 -2 -12 -5z"/>
<path d="M2895 2805 c50 -18 57 -18 25 0 -14 8 -34 14 -45 14 -11 0 -2 -6 20
-14z"/>
<path d="M2748 2803 c7 -3 16 -2 19 1 4 3 -2 6 -13 5 -11 0 -14 -3 -6 -6z"/>
<path d="M3570 2770 c-10 -6 -3 -8 22 -3 64 10 106 -33 209 -211 31 -53 88
-106 114 -106 5 0 -8 11 -30 24 -26 16 -52 45 -74 83 -73 124 -95 155 -134
188 -41 35 -78 44 -107 25z"/>
<path d="M2664 2755 c22 -17 84 -31 93 -21 4 3 -4 6 -16 6 -12 0 -38 7 -59 15
-32 13 -35 13 -18 0z"/>
<path d="M4248 2755 c-3 -11 -9 -29 -13 -40 -3 -11 1 -7 10 8 9 16 15 33 12
40 -2 6 -6 3 -9 -8z"/>
<path d="M2825 2730 c27 -12 43 -12 25 0 -8 5 -22 9 -30 9 -10 0 -8 -3 5 -9z"/>
<path d="M4200 2660 c-25 -36 -63 -57 -145 -82 -47 -14 -51 -17 -20 -13 58 8
145 55 173 93 14 17 22 32 19 32 -3 0 -15 -14 -27 -30z"/>
<path d="M2576 2661 c-4 -5 3 -7 14 -4 23 6 26 13 6 13 -8 0 -17 -4 -20 -9z"/>
<path d="M3525 2655 c22 -8 134 -11 123 -3 -7 4 -40 7 -73 7 -33 0 -55 -2 -50
-4z"/>
<path d="M3463 2643 c9 -2 23 -2 30 0 6 3 -1 5 -18 5 -16 0 -22 -2 -12 -5z"/>
<path d="M2563 2595 c0 -27 2 -38 4 -22 2 15 2 37 0 50 -2 12 -4 0 -4 -28z"/>
<path d="M3358 2633 c18 -2 45 -2 60 0 15 2 0 4 -33 4 -33 0 -45 -2 -27 -4z"/>
<path d="M3670 2637 c0 -3 17 -17 37 -33 20 -15 33 -23 29 -16 -8 13 -66 56
-66 49z"/>
<path d="M2482 2610 c0 -14 2 -19 5 -12 2 6 2 18 0 25 -3 6 -5 1 -5 -13z"/>
<path d="M2798 2623 c6 -2 18 -2 25 0 6 3 1 5 -13 5 -14 0 -19 -2 -12 -5z"/>
<path d="M2858 2613 c6 -2 18 -2 25 0 6 3 1 5 -13 5 -14 0 -19 -2 -12 -5z"/>
<path d="M3110 2611 c8 -5 31 -11 50 -15 24 -4 28 -3 15 2 -31 14 -83 24 -65
13z"/>
<path d="M4235 2586 c-36 -48 -88 -85 -154 -113 -31 -12 -49 -23 -41 -23 24 0
99 38 140 70 35 28 97 100 86 100 -3 0 -17 -15 -31 -34z"/>
<path d="M2910 2600 c8 -5 20 -10 25 -10 6 0 3 5 -5 10 -8 5 -19 10 -25 10 -5
0 -3 -5 5 -10z"/>
<path d="M2950 2586 c0 -3 14 -12 30 -21 17 -9 30 -13 30 -11 0 3 -13 12 -30
21 -16 9 -30 13 -30 11z"/>
<path d="M3208 2583 c6 -2 18 -2 25 0 6 3 1 5 -13 5 -14 0 -19 -2 -12 -5z"/>
<path d="M3358 2583 c6 -2 18 -2 25 0 6 3 1 5 -13 5 -14 0 -19 -2 -12 -5z"/>
<path d="M3268 2573 c12 -2 32 -2 45 0 12 2 2 4 -23 4 -25 0 -35 -2 -22 -4z"/>
<path d="M2735 2559 c6 -9 75 -33 80 -27 2 2 -16 11 -40 19 -25 9 -42 13 -40
8z"/>
<path d="M3583 2563 c15 -2 37 -2 50 0 12 2 0 4 -28 4 -27 0 -38 -2 -22 -4z"/>
<path d="M3435 2535 c-38 -13 -63 -24 -55 -24 8 -1 49 10 90 24 41 13 66 24
55 24 -11 -1 -51 -12 -90 -24z"/>
<path d="M3680 2549 c14 -6 40 -24 59 -42 33 -31 33 -31 16 -4 -18 28 -63 58
-87 56 -7 0 -2 -5 12 -10z"/>
<path d="M3027 2539 c7 -7 15 -10 18 -7 3 3 -2 9 -12 12 -14 6 -15 5 -6 -5z"/>
<path d="M2870 2515 c24 -8 46 -13 48 -11 5 5 -59 26 -77 25 -9 0 4 -7 29 -14z"/>
<path d="M3068 2523 c7 -3 16 -2 19 1 4 3 -2 6 -13 5 -11 0 -14 -3 -6 -6z"/>
<path d="M2654 2503 c21 -25 16 -29 -17 -12 -16 9 -19 9 -11 0 6 -6 24 -15 41
-20 23 -7 30 -5 30 5 0 8 -5 14 -10 14 -6 0 -20 8 -31 18 -21 17 -21 17 -2 -5z"/>
<path d="M3313 2503 c9 -2 25 -2 35 0 9 3 1 5 -18 5 -19 0 -27 -2 -17 -5z"/>
<path d="M2723 2484 c9 -11 17 -24 17 -28 0 -9 -75 -3 -105 8 -11 4 -9 1 5 -7
14 -8 54 -17 90 -20 36 -3 59 -3 53 0 -24 9 -13 20 15 15 15 -2 24 -2 21 2 -3
3 -19 7 -35 8 -16 1 -40 11 -54 22 l-25 21 18 -21z"/>
<path d="M2966 2474 c21 -14 55 -40 74 -57 19 -18 28 -23 20 -13 -20 26 -109
96 -122 96 -6 0 7 -12 28 -26z"/>
<path d="M3435 2455 c-52 -17 -35 -17 40 0 37 8 49 13 30 13 -16 0 -48 -5 -70
-13z"/>
<path d="M3571 2466 c2 -2 22 -6 44 -9 27 -4 35 -3 25 3 -14 9 -79 15 -69 6z"/>
<path d="M2874 2430 c28 -11 51 -18 53 -16 5 5 -74 36 -90 36 -6 -1 10 -10 37
-20z"/>
<path d="M3360 2430 c-8 -5 -10 -10 -5 -10 6 0 17 5 25 10 8 5 11 10 5 10 -5
0 -17 -5 -25 -10z"/>
<path d="M2828 2423 c6 -2 10 -8 7 -13 -2 -4 8 -10 24 -13 15 -3 47 -24 70
-46 50 -48 67 -55 22 -9 -31 31 -35 52 -6 28 10 -8 15 -9 15 -1 0 6 -12 14
-27 17 -16 4 -44 15 -63 26 -19 10 -39 18 -45 17 -5 0 -4 -3 3 -6z"/>
<path d="M2780 2403 c0 -5 19 -20 43 -36 23 -15 60 -44 82 -63 22 -20 29 -29
15 -20 -14 9 -38 25 -55 36 -65 43 -141 37 -158 -13 -5 -16 -7 -30 -5 -33 3
-2 38 -16 79 -30 85 -31 229 -45 229 -24 0 23 40 -21 49 -54 l9 -31 1 33 c1
36 -16 56 -89 103 -25 16 -76 53 -115 84 -68 53 -85 63 -85 48z m35 -77 c37
-16 47 -27 18 -20 -10 3 -38 -2 -62 -11 -52 -18 -51 -18 -51 -5 0 13 37 50 50
50 6 0 26 -7 45 -14z m15 -56 c0 -11 -4 -20 -10 -20 -5 0 -10 9 -10 20 0 11 5
20 10 20 6 0 10 -9 10 -20z m-35 0 c3 -5 -1 -10 -9 -10 -8 0 -18 5 -21 10 -3
6 1 10 9 10 8 0 18 -4 21 -10z m75 -6 c0 -8 -4 -12 -10 -9 -5 3 -10 10 -10 16
0 5 5 9 10 9 6 0 10 -7 10 -16z m26 -31 c-10 -10 -19 5 -10 18 6 11 8 11 12 0
2 -7 1 -15 -2 -18z"/>
<path d="M3138 2403 c7 -3 16 -2 19 1 4 3 -2 6 -13 5 -11 0 -14 -3 -6 -6z"/>
<path d="M3288 2403 c7 -3 16 -2 19 1 4 3 -2 6 -13 5 -11 0 -14 -3 -6 -6z"/>
<path d="M3580 2403 c-8 -4 -20 -12 -27 -19 -10 -9 -8 -13 10 -18 35 -9 130
-7 147 4 11 7 11 10 2 10 -7 0 -10 5 -7 11 4 6 14 8 22 5 8 -3 11 -2 8 3 -5 9
-74 4 -85 -6 -2 -2 2 -8 10 -13 10 -7 -3 -9 -40 -9 -46 1 -50 3 -25 9 22 6 25
8 10 10 -15 2 -12 4 10 10 27 7 28 8 5 8 -14 0 -32 -2 -40 -5z"/>
<path d="M3193 2393 c15 -2 37 -2 50 0 12 2 0 4 -28 4 -27 0 -38 -2 -22 -4z"/>
<path d="M3480 2390 c36 -11 52 -11 45 0 -3 6 -21 10 -38 9 -31 -1 -31 -1 -7
-9z"/>
<path d="M3420 2380 c-8 -5 -10 -10 -5 -10 6 0 17 5 25 10 8 5 11 10 5 10 -5
0 -17 -5 -25 -10z"/>
<path d="M2650 2350 c6 -11 13 -20 16 -20 2 0 0 9 -6 20 -6 11 -13 20 -16 20
-2 0 0 -9 6 -20z"/>
<path d="M3436 2361 c-4 -5 3 -7 14 -4 23 6 26 13 6 13 -8 0 -17 -4 -20 -9z"/>
<path d="M3508 2363 c7 -3 16 -2 19 1 4 3 -2 6 -13 5 -11 0 -14 -3 -6 -6z"/>
<path d="M3458 2333 c12 -2 30 -2 40 0 9 3 -1 5 -23 4 -22 0 -30 -2 -17 -4z"/>
<path d="M2610 2295 c0 -7 70 -47 78 -43 5 2 -11 13 -35 25 -24 12 -43 21 -43
18z"/>
<path d="M3340 2270 c-19 -11 -53 -20 -75 -21 -31 -2 -34 -3 -13 -6 23 -4 26
-7 18 -22 -6 -13 -5 -24 6 -39 21 -30 38 -28 19 2 -19 29 -9 43 51 68 21 9 50
20 64 26 l25 11 -30 0 c-16 0 -46 -8 -65 -19z"/>
<path d="M3391 2248 c-44 -24 -81 -46 -81 -50 0 -14 15 -8 75 27 101 61 175
64 236 9 11 -10 19 -11 23 -5 4 5 -13 21 -37 35 -66 39 -117 35 -216 -16z"/>
<path d="M3148 2263 c6 -2 18 -2 25 0 6 3 1 5 -13 5 -14 0 -19 -2 -12 -5z"/>
<path d="M3198 2253 c7 -3 16 -2 19 1 4 3 -2 6 -13 5 -11 0 -14 -3 -6 -6z"/>
<path d="M3420 2230 c-25 -16 -51 -30 -57 -30 -7 0 -13 -4 -13 -9 0 -15 185
-24 225 -11 45 15 41 29 -15 58 -59 29 -86 28 -140 -8z m79 -30 c11 0 25 8 31
18 10 15 10 15 8 -3 -4 -28 -82 -35 -92 -9 -4 10 -1 21 6 25 8 5 15 1 20 -11
4 -11 16 -20 27 -20z m11 31 c0 -6 -4 -13 -10 -16 -5 -3 -10 1 -10 9 0 9 5 16
10 16 6 0 10 -4 10 -9z m61 -34 c-13 -13 -26 -3 -16 12 3 6 11 8 17 5 6 -4 6
-10 -1 -17z"/>
<path d="M2625 2210 c-13 -6 -15 -9 -5 -9 8 0 22 4 30 9 18 12 2 12 -25 0z"/>
<path d="M2770 2191 c19 -11 44 -20 55 -20 12 0 7 5 -15 13 -68 26 -75 27 -40
7z"/>
<path d="M3168 2193 c18 -2 45 -2 60 0 15 2 0 4 -33 4 -33 0 -45 -2 -27 -4z"/>
<path d="M2885 2165 c23 -8 83 -10 79 -3 -3 4 -24 8 -47 7 -23 0 -37 -2 -32
-4z"/>
<path d="M3158 2153 c12 -2 32 -2 45 0 12 2 2 4 -23 4 -25 0 -35 -2 -22 -4z"/>
<path d="M3374 2126 c11 -9 24 -16 30 -16 12 0 7 5 -24 19 -24 11 -24 11 -6
-3z"/>
<path d="M3537 2124 c-3 -4 -32 -10 -64 -14 -56 -7 -56 -7 -13 -8 38 -1 126
25 94 27 -6 1 -13 -2 -17 -5z"/>
<path d="M3608 2053 c7 -3 16 -2 19 1 4 3 -2 6 -13 5 -11 0 -14 -3 -6 -6z"/>
<path d="M3761 1907 c2 -1 15 -11 29 -22 l25 -20 -19 23 c-11 12 -24 22 -29
22 -6 0 -8 -1 -6 -3z"/>
<path d="M3728 1782 c9 -10 19 -17 21 -16 6 5 -20 34 -30 34 -5 0 -1 -8 9 -18z"/>
<path d="M2658 1768 c5 -5 16 -8 23 -6 8 3 3 7 -10 11 -17 4 -21 3 -13 -5z"/>
<path d="M2636 1740 c6 -8 16 -24 22 -35 6 -11 12 -15 12 -8 0 7 -10 22 -22
35 -13 13 -18 17 -12 8z"/>
<path d="M3181 1736 c-7 -8 -25 -17 -39 -19 -27 -4 -27 -4 -2 -5 25 -1 68 23
58 33 -3 3 -11 -1 -17 -9z"/>
<path d="M2705 1699 c6 -16 74 -59 91 -59 5 1 -4 8 -21 17 -16 8 -40 25 -53
36 -16 15 -21 17 -17 6z"/>
<path d="M3650 1675 c-18 -19 -35 -25 -69 -27 l-46 -1 42 -4 c47 -5 77 8 93
37 14 27 8 25 -20 -5z"/>
<path d="M3796 1655 c-9 -26 -7 -32 5 -12 6 10 9 21 6 23 -2 3 -7 -2 -11 -11z"/>
<path d="M3658 1602 c-10 -27 -37 -71 -60 -98 -41 -48 -41 -49 -4 -14 37 35
91 130 84 150 -2 6 -11 -11 -20 -38z"/>
<path d="M2809 1593 c-22 -46 -22 -50 1 -15 13 18 20 35 18 37 -3 3 -11 -7
-19 -22z"/>
<path d="M2890 1617 c0 -17 29 -63 51 -82 24 -20 24 -20 8 0 -9 11 -26 36 -38
55 -11 19 -21 31 -21 27z"/>
<path d="M3763 1577 c-12 -23 -44 -70 -72 -105 -48 -60 -56 -72 -47 -72 16 0
154 206 144 216 -2 2 -14 -15 -25 -39z"/>
<path d="M977 2564 c-3 -4 -75 -30 -159 -60 -84 -29 -148 -53 -142 -53 6 -1
71 19 144 44 128 44 197 74 174 75 -6 0 -13 -3 -17 -6z"/>
<path d="M608 2433 c7 -3 16 -2 19 1 4 3 -2 6 -13 5 -11 0 -14 -3 -6 -6z"/>
<path d="M540 2420 c-20 -6 -21 -8 -5 -8 11 0 29 3 40 8 25 11 -1 11 -35 0z"/>
<path d="M488 2403 c7 -3 16 -2 19 1 4 3 -2 6 -13 5 -11 0 -14 -3 -6 -6z"/>
<path d="M3887 1713 c5 -12 3 -14 -7 -8 -9 5 -11 4 -6 -4 4 -6 12 -9 17 -6 12
8 12 35 -1 35 -5 0 -6 -7 -3 -17z"/>
<path d="M3907 1564 c-4 -4 -4 -18 -1 -30 5 -20 2 -24 -16 -24 -13 0 -20 -5
-18 -12 7 -19 38 -22 38 -4 0 10 6 13 18 10 10 -4 13 -3 6 3 -16 11 -28 53
-15 53 5 0 12 -7 14 -15 4 -12 5 -11 3 1 -1 19 -18 29 -29 18z"/>
<path d="M3822 1475 c-11 -12 -10 -15 3 -15 8 0 15 7 15 15 0 18 -2 18 -18 0z"/>
<path d="M3840 1445 c-10 -12 -10 -19 -2 -27 9 -9 12 -9 12 0 0 7 7 12 15 12
8 0 15 8 14 18 0 10 -3 12 -6 5 -2 -7 -9 -13 -14 -13 -6 0 -7 5 -4 10 10 16
-1 12 -15 -5z"/>
<path d="M3806 1413 c-11 -11 -6 -23 9 -23 8 0 15 4 15 9 0 13 -16 22 -24 14z"/>
<path d="M3740 1346 c12 -16 12 -20 -3 -31 -11 -8 -14 -16 -8 -19 5 -4 15 3
21 15 10 17 9 24 -6 38 -17 15 -17 15 -4 -3z"/>
<path d="M3785 1321 c-8 -15 3 -31 21 -31 9 0 14 7 12 17 -4 20 -24 28 -33 14z
m25 -11 c0 -5 -4 -10 -10 -10 -5 0 -10 5 -10 10 0 6 5 10 10 10 6 0 10 -4 10
-10z"/>
<path d="M3717 1274 c-8 -8 1 -24 14 -24 5 0 9 7 9 15 0 15 -12 20 -23 9z"/>
<path d="M3757 1266 c-5 -14 10 -36 25 -36 4 0 8 11 8 25 0 27 -24 35 -33 11z
m23 -12 c0 -8 -5 -12 -10 -9 -6 4 -8 11 -5 16 9 14 15 11 15 -7z"/>
<path d="M3686 1232 c-3 -6 -1 -14 5 -17 15 -10 25 3 12 16 -7 7 -13 7 -17 1z"/>
<path d="M3670 1189 c0 -5 5 -7 10 -4 6 3 10 2 10 -4 0 -5 -7 -12 -15 -14 -11
-4 -10 -4 2 -3 22 2 31 36 9 36 -9 0 -16 -5 -16 -11z"/>
<path d="M3594 1149 c-11 -18 13 -34 31 -19 8 7 15 16 15 21 0 13 -38 11 -46
-2z m36 -3 c0 -2 -7 -6 -15 -10 -8 -3 -15 -1 -15 4 0 6 7 10 15 10 8 0 15 -2
15 -4z"/>
<path d="M4134 1661 c7 -11 46 -35 46 -28 0 3 -12 12 -26 22 -15 9 -23 12 -20
6z"/>
<path d="M4070 1656 c0 -2 8 -10 18 -17 15 -13 16 -12 3 4 -13 16 -21 21 -21
13z"/>
<path d="M4298 1631 c23 -4 55 -18 70 -32 15 -13 13 -9 -5 9 -26 25 -40 32
-70 31 l-38 -2 43 -6z"/>
<path d="M4203 1623 c9 -2 23 -2 30 0 6 3 -1 5 -18 5 -16 0 -22 -2 -12 -5z"/>
<path d="M4111 1600 c7 -14 18 -47 25 -75 7 -27 13 -41 13 -30 1 30 -17 89
-34 110 -15 19 -15 19 -4 -5z"/>
<path d="M4442 1560 c0 -14 2 -19 5 -12 2 6 2 18 0 25 -3 6 -5 1 -5 -13z"/>
<path d="M4524 1552 c5 -7 13 -30 17 -50 7 -37 7 -37 8 -6 0 18 -7 40 -16 51
-10 10 -14 13 -9 5z"/>
<path d="M4018 1543 c-2 -5 -1 -28 3 -53 l6 -45 1 53 c2 48 -2 63 -10 45z"/>
<path d="M4431 1487 c-8 -12 -21 -32 -29 -44 -8 -13 -12 -23 -9 -23 7 0 59 81
55 85 -2 2 -10 -6 -17 -18z"/>
<path d="M4530 1405 l-5 -60 -22 35 c-13 19 -23 31 -23 25 0 -5 11 -23 24 -40
20 -25 26 -27 31 -14 3 9 5 38 3 65 l-4 49 -4 -60z"/>
<path d="M4013 1365 c0 -33 2 -45 4 -27 2 18 2 45 0 60 -2 15 -4 0 -4 -33z"/>
<path d="M4420 1390 c-7 -17 -10 -33 -8 -36 3 -3 9 8 13 23 7 26 8 26 15 8 8
-18 9 -17 9 8 1 36 -13 34 -29 -3z"/>
<path d="M4070 1395 c-19 -22 -8 -25 13 -3 9 10 13 18 8 18 -5 0 -14 -7 -21
-15z"/>
<path d="M4376 1395 c-3 -9 -5 -29 -5 -43 1 -20 3 -17 9 13 8 43 7 57 -4 30z"/>
<path d="M3912 1304 c-12 -19 -20 -34 -18 -34 7 0 49 61 44 65 -2 2 -13 -12
-26 -31z"/>
<path d="M4401 1271 c-1 -84 -17 -124 -79 -206 -34 -45 -42 -51 -86 -56 -76
-8 -88 -58 -32 -132 19 -25 41 -58 50 -73 8 -16 15 -25 16 -21 0 13 -21 49
-57 96 -53 71 -42 121 28 121 42 0 68 24 129 120 29 45 35 65 38 120 2 37 2
75 -1 86 -2 10 -5 -14 -6 -55z"/>
<path d="M4451 1325 c0 -11 6 -31 14 -45 18 -32 18 -25 0 25 -8 22 -14 31 -14
20z"/>
<path d="M4360 1258 c-6 -73 -37 -131 -92 -171 -23 -17 -30 -18 -43 -7 -13 11
-14 10 -9 -4 10 -25 30 -19 73 20 56 50 83 110 79 176 l-3 53 -5 -67z"/>
<path d="M4021 1284 c0 -11 3 -14 6 -6 3 7 2 16 -1 19 -3 4 -6 -2 -5 -13z"/>
<path d="M4042 1210 c0 -14 2 -19 5 -12 2 6 2 18 0 25 -3 6 -5 1 -5 -13z"/>
<path d="M4533 1219 c9 -5 17 -17 17 -25 0 -26 -107 -129 -165 -159 -30 -15
-55 -31 -55 -36 0 -5 -15 -18 -32 -29 -18 -11 -27 -20 -21 -20 7 0 30 15 50
34 21 18 55 41 76 51 47 22 145 119 153 152 7 24 -7 43 -31 43 -5 -1 -2 -5 8
-11z"/>
<path d="M4177 1194 c-11 -11 -8 -26 3 -19 6 3 11 -4 11 -17 1 -16 3 -18 6 -6
5 20 -10 52 -20 42z"/>
<path d="M4052 1150 c0 -19 2 -27 5 -17 2 9 2 25 0 35 -3 9 -5 1 -5 -18z"/>
<path d="M4162 1135 c0 -16 2 -22 5 -12 2 9 2 23 0 30 -3 6 -5 -1 -5 -18z"/>
<path d="M4201 1114 c0 -11 3 -14 6 -6 3 7 2 16 -1 19 -3 4 -6 -2 -5 -13z"/>
<path d="M3942 1098 c9 -8 18 -25 21 -38 4 -24 4 -24 6 2 1 19 -6 31 -21 38
-20 10 -21 9 -6 -2z"/>
<path d="M4023 1063 c-12 -24 -21 -43 -18 -43 7 0 47 70 43 78 -2 5 -13 -11
-25 -35z"/>
<path d="M3868 1083 c-8 -10 -18 -25 -22 -33 -4 -8 0 -6 8 5 9 11 24 26 33 33
9 6 12 12 6 12 -5 0 -17 -8 -25 -17z"/>
<path d="M4150 1063 c0 -48 -9 -62 -46 -73 -24 -7 -25 -8 -6 -9 35 -1 62 33
62 79 0 22 -2 40 -5 40 -3 0 -5 -17 -5 -37z"/>
<path d="M4492 1026 c-18 -24 -32 -50 -32 -58 0 -7 7 0 16 17 8 16 21 37 28
45 16 19 28 40 23 40 -2 0 -18 -20 -35 -44z"/>
<path d="M3810 994 c-12 -19 -21 -37 -18 -39 2 -2 14 14 26 36 28 49 22 52 -8
3z"/>
<path d="M3946 1015 c-3 -9 -6 -22 -5 -28 0 -7 5 -1 10 12 5 13 8 26 5 28 -2
2 -6 -3 -10 -12z"/>
<path d="M4050 959 c-7 -11 -10 -23 -7 -25 2 -2 9 7 15 21 14 30 7 33 -8 4z"/>
<path d="M3933 930 c0 -25 2 -35 4 -22 2 12 2 32 0 45 -2 12 -4 2 -4 -23z"/>
<path d="M4238 963 c7 -3 16 -2 19 1 4 3 -2 6 -13 5 -11 0 -14 -3 -6 -6z"/>
<path d="M3690 924 c-7 -19 -10 -38 -7 -40 3 -3 9 10 13 28 8 30 9 28 15 -32
l6 -65 1 73 c2 78 -10 93 -28 36z"/>
<path d="M4031 894 c0 -11 3 -14 6 -6 3 7 2 16 -1 19 -3 4 -6 -2 -5 -13z"/>
<path d="M3773 860 c0 -25 2 -35 4 -22 2 12 2 32 0 45 -2 12 -4 2 -4 -23z"/>
<path d="M3950 867 c13 -18 82 -57 97 -57 4 1 -10 10 -32 22 -22 11 -49 28
-60 37 -19 15 -19 15 -5 -2z"/>
<path d="M3660 820 c-7 -28 -10 -53 -8 -55 3 -3 10 18 16 47 7 28 11 53 8 55
-2 2 -9 -19 -16 -47z"/>
<path d="M3703 760 c0 -30 2 -43 4 -27 2 15 2 39 0 55 -2 15 -4 2 -4 -28z"/>
<path d="M3781 790 c0 -22 38 -108 39 -87 0 5 -5 18 -12 30 -6 12 -15 36 -19
52 -6 27 -7 28 -8 5z"/>
<path d="M4273 720 c0 -30 2 -43 4 -27 2 15 2 39 0 55 -2 15 -4 2 -4 -28z"/>
<path d="M3641 734 c0 -11 3 -14 6 -6 3 7 2 16 -1 19 -3 4 -6 -2 -5 -13z"/>
<path d="M3400 735 c0 -5 5 -17 10 -25 5 -8 10 -10 10 -5 0 6 -5 17 -10 25 -5
8 -10 11 -10 5z"/>
<path d="M3632 690 c0 -14 2 -19 5 -12 2 6 2 18 0 25 -3 6 -5 1 -5 -13z"/>
<path d="M3693 615 c0 -38 2 -53 4 -32 2 20 2 52 0 70 -2 17 -4 1 -4 -38z"/>
<path d="M3131 644 c0 -11 3 -14 6 -6 3 7 2 16 -1 19 -3 4 -6 -2 -5 -13z"/>
<path d="M3840 655 c0 -17 70 -45 110 -44 l45 2 -51 6 c-27 3 -62 14 -77 24
-15 10 -27 15 -27 12z"/>
<path d="M3443 595 c0 -22 2 -30 4 -17 2 12 2 30 0 40 -3 9 -5 -1 -4 -23z"/>
<path d="M3608 615 c-3 -11 -9 -29 -13 -40 -3 -11 1 -7 10 8 9 16 15 33 12 40
-2 6 -6 3 -9 -8z"/>
<path d="M3141 475 c-2 -127 -2 -129 -19 -100 -9 17 -19 55 -23 85 l-6 55 -2
-48 c-1 -37 7 -62 32 -110 l33 -62 -4 135 c-4 183 -9 202 -11 45z"/>
<path d="M3576 535 c-3 -9 -6 -22 -5 -28 0 -7 5 -1 10 12 5 13 8 26 5 28 -2 2
-6 -3 -10 -12z"/>
<path d="M3667 493 c-23 -66 -21 -80 3 -18 11 28 19 54 17 58 -1 5 -10 -13
-20 -40z"/>
<path d="M3451 494 c1 -16 5 -40 9 -54 6 -17 7 -9 3 25 -6 56 -14 74 -12 29z"/>
<path d="M3563 445 c0 -27 2 -38 4 -22 2 15 2 37 0 50 -2 12 -4 0 -4 -28z"/>
<path d="M3254 437 c-68 -58 3 -174 83 -135 43 20 57 59 39 103 -24 56 -77 70
-122 32z m82 -5 c15 -10 34 -47 34 -66 0 -24 -37 -56 -64 -56 -27 0 -66 42
-66 69 0 45 59 78 96 53z"/>
<path d="M3642 395 c0 -16 2 -22 5 -12 2 9 2 23 0 30 -3 6 -5 -1 -5 -18z"/>
<path d="M3471 394 c0 -11 3 -14 6 -6 3 7 2 16 -1 19 -3 4 -6 -2 -5 -13z"/>
<path d="M3482 345 c0 -16 2 -22 5 -12 2 9 2 23 0 30 -3 6 -5 -1 -5 -18z"/>
<path d="M2015 1630 c-4 -6 -4 -14 -1 -17 3 -4 6 0 6 7 0 17 39 -18 51 -45 5
-14 8 -15 8 -4 1 22 -55 74 -64 59z"/>
<path d="M2091 1566 c-1 -33 -3 -37 -16 -26 -13 11 -14 10 -9 -4 15 -38 38 -7
31 41 -3 23 -4 21 -6 -11z"/>
<path d="M1824 1562 c4 -7 2 -21 -5 -30 -12 -15 -11 -15 6 0 16 15 17 20 6 30
-11 11 -13 10 -7 0z"/>
<path d="M2020 1536 c0 -2 7 -7 16 -10 8 -3 12 -2 9 4 -6 10 -25 14 -25 6z"/>
<path d="M2011 1507 c0 -10 -8 -29 -17 -42 -13 -20 -22 -24 -45 -20 -31 6 -48
-11 -29 -28 10 -9 14 -9 17 1 3 6 12 12 22 12 25 0 63 47 58 73 -3 16 -5 17
-6 4z"/>
<path d="M2145 1510 c-3 -5 -1 -10 4 -10 6 0 11 5 11 10 0 6 -2 10 -4 10 -3 0
-8 -4 -11 -10z"/>
<path d="M1894 1460 c0 -13 4 -16 10 -10 7 7 7 13 0 20 -6 6 -10 3 -10 -10z"/>
<path d="M1700 1445 c7 -9 15 -13 17 -11 7 7 -7 26 -19 26 -6 0 -6 -6 2 -15z"/>
<path d="M1751 1404 c0 -11 3 -14 6 -6 3 7 2 16 -1 19 -3 4 -6 -2 -5 -13z"/>
<path d="M1955 1410 c-10 -16 14 -40 39 -39 19 1 19 2 -3 8 -33 9 -38 28 -9
34 22 4 22 4 1 6 -12 0 -25 -4 -28 -9z"/>
<path d="M1928 1381 c18 -11 15 -21 -10 -48 -18 -19 -19 -23 -5 -28 27 -11 72
-1 75 17 3 16 -44 68 -63 68 -5 0 -4 -4 3 -9z m52 -58 c0 -8 -12 -13 -30 -13
-33 0 -38 11 -15 30 8 7 12 17 8 24 -3 6 3 2 15 -8 12 -11 22 -25 22 -33z"/>
<path d="M1806 1322 c-3 -3 -6 -10 -6 -16 0 -6 4 -4 10 4 12 20 20 9 13 -19
-4 -17 -8 -20 -15 -9 -8 10 -9 10 -5 -2 2 -8 11 -16 20 -18 11 -2 14 2 10 19
-4 14 -2 20 4 16 6 -4 13 1 15 11 4 12 -2 17 -18 18 -13 1 -25 -1 -28 -4z"/>
<path d="M1851 1264 c0 -11 3 -14 6 -6 3 7 2 16 -1 19 -3 4 -6 -2 -5 -13z"/>
<path d="M1761 1257 c-1 -10 -5 -15 -11 -12 -5 3 -10 2 -10 -2 0 -5 9 -14 20
-21 25 -15 16 -36 -13 -28 -15 4 -17 2 -8 -7 9 -9 16 -9 31 1 12 7 21 8 25 2
12 -19 35 -10 34 13 -1 16 -2 18 -6 5 -7 -26 -18 -22 -20 8 0 14 -6 31 -13 38
-8 8 -10 7 -5 -6 10 -27 -4 -22 -15 5 -7 18 -9 18 -9 4z m39 -47 c0 -5 -2 -10
-4 -10 -3 0 -8 5 -11 10 -3 6 -1 10 4 10 6 0 11 -4 11 -10z"/>
<path d="M1868 1246 c-21 -16 -24 -38 -4 -30 10 4 32 46 23 44 -1 0 -10 -7
-19 -14z"/>
<path d="M1870 1201 c0 -7 -5 -9 -12 -5 -7 5 -8 3 -3 -5 5 -9 10 -10 18 -2 6
6 8 14 4 18 -4 3 -7 1 -7 -6z"/>
<path d="M4646 1451 c-6 -9 36 -41 54 -41 18 0 11 17 -15 34 -28 19 -32 19
-39 7z m38 -16 c11 -8 16 -15 10 -15 -5 0 -18 7 -28 15 -11 8 -16 15 -10 15 5
0 18 -7 28 -15z"/>
<path d="M4748 1393 c19 -4 20 -6 8 -19 -19 -19 -34 -18 -39 4 -4 16 -5 16 -6
-1 -1 -24 20 -30 52 -14 20 10 23 17 15 25 -7 7 -21 11 -32 11 -19 -2 -19 -2
2 -6z"/>
<path d="M4682 1289 c0 -23 5 -33 24 -41 13 -6 24 -17 24 -25 0 -15 -16 -18
-23 -3 -3 6 -4 5 -3 -2 4 -18 36 -23 36 -6 0 20 -23 68 -33 68 -5 0 -5 -4 -2
-10 3 -5 1 -10 -4 -10 -14 0 -14 27 -1 35 14 9 12 25 -3 25 -9 0 -14 -12 -15
-31z"/>
<path d="M4641 1123 c1 -78 6 -74 12 10 2 31 0 57 -5 57 -4 0 -8 -30 -7 -67z"/>
<path d="M4662 1140 c0 -14 2 -19 5 -12 2 6 2 18 0 25 -3 6 -5 1 -5 -13z"/>
<path d="M2051 1459 c-1 -9 7 -23 17 -30 15 -12 16 -12 6 1 -6 8 -14 22 -17
30 -5 13 -6 12 -6 -1z"/>
<path d="M2963 1386 c-42 -15 -56 -31 -20 -22 16 4 27 2 27 -4 0 -5 -4 -10
-10 -10 -5 0 -10 -4 -10 -9 0 -5 10 -9 23 -8 12 0 31 -4 42 -8 17 -8 18 -7 8
7 -7 8 -10 18 -6 21 9 9 23 9 22 0 -3 -20 2 -24 16 -13 8 7 25 10 39 6 14 -3
28 -1 32 5 3 6 19 9 35 5 33 -6 40 9 8 19 -12 4 -32 1 -46 -6 -22 -12 -26 -11
-34 4 -6 10 -21 17 -37 16 -15 -1 -34 1 -42 3 -8 3 -29 0 -47 -6z m47 -10 c0
-3 -4 -8 -10 -11 -5 -3 -10 -1 -10 4 0 6 5 11 10 11 6 0 10 -2 10 -4z"/>
<path d="M2843 1383 c-26 -10 -12 -22 20 -17 26 4 29 3 15 -6 -10 -6 -18 -18
-18 -27 0 -9 -6 -13 -15 -9 -8 3 -37 8 -65 12 -37 5 -50 3 -50 -6 0 -7 7 -10
16 -6 9 4 22 2 28 -3 6 -4 27 -11 46 -13 26 -4 38 0 51 16 15 18 21 19 38 8
30 -18 28 8 -2 36 -23 22 -39 25 -64 15z"/>
<path d="M3200 1370 c0 -5 10 -10 21 -10 16 0 19 -3 11 -12 -16 -21 -26 -62
-13 -53 18 10 63 -3 55 -17 -5 -8 0 -9 16 -5 13 3 31 1 39 -6 11 -10 13 -9 9
3 -2 8 -15 17 -29 18 -13 2 -31 10 -39 17 -8 7 -22 15 -30 19 -8 3 0 4 19 1
l35 -5 -30 30 c-28 29 -64 40 -64 20z"/>
<path d="M2923 1313 c-27 -10 -12 -31 25 -36 46 -6 65 9 38 29 -20 14 -41 17
-63 7z"/>
<path d="M3057 1313 c-12 -12 -7 -22 8 -17 8 4 27 3 42 -1 24 -6 26 -8 10 -16
-10 -6 -26 -8 -36 -4 -11 3 -22 1 -25 -4 -4 -6 14 -13 41 -16 27 -4 56 -9 66
-12 24 -6 22 24 -2 32 -10 3 -26 14 -36 25 -18 20 -55 27 -68 13z"/>
<path d="M3355 1306 c-13 -9 -9 -12 24 -12 41 -1 48 9 12 19 -11 3 -27 0 -36
-7z"/>
<path d="M3406 1252 c-3 -5 8 -9 25 -10 16 0 27 4 24 9 -8 11 -42 12 -49 1z"/>
<path d="M2055 1299 c-4 -6 -5 -12 -2 -15 2 -3 7 2 10 11 7 17 1 20 -8 4z"/>
<path d="M2032 1210 c0 -19 2 -27 5 -17 2 9 2 25 0 35 -3 9 -5 1 -5 -18z"/>
<path d="M2045 1125 c0 -24 3 -38 7 -32 4 7 8 21 8 32 0 11 -4 25 -8 32 -4 6
-7 -8 -7 -32z"/>
<path d="M2031 1048 c-1 -17 10 -40 29 -61 17 -19 30 -44 30 -56 0 -32 27 -79
53 -91 l22 -11 -21 18 c-29 24 -44 56 -44 92 0 20 -8 36 -26 50 -15 12 -30 36
-34 53 -8 31 -8 31 -9 6z"/>
<path d="M2171 1053 c0 -5 14 -19 32 -32 l32 -25 -29 32 c-31 33 -36 37 -35
25z"/>
<path d="M2576 1003 c-6 -14 -5 -15 5 -6 7 7 10 15 7 18 -3 3 -9 -2 -12 -12z"/>
<path d="M2259 981 c13 -12 28 -21 34 -21 12 0 11 0 -28 24 l-30 17 24 -20z"/>
<path d="M2622 970 c0 -19 2 -27 5 -17 2 9 2 25 0 35 -3 9 -5 1 -5 -18z"/>
<path d="M2132 948 c14 -13 36 -34 48 -48 l21 -25 -17 28 c-9 15 -31 37 -48
48 l-31 21 27 -24z"/>
<path d="M2595 899 c-4 -6 -5 -12 -2 -15 2 -3 7 2 10 11 7 17 1 20 -8 4z"/>
<path d="M2202 817 c20 -7 49 -23 65 -37 27 -23 26 -23 -2 7 -18 19 -44 33
-65 37 l-35 5 37 -12z"/>
<path d="M2306 652 c-2 -4 11 -6 30 -4 19 2 34 6 34 8 0 8 -59 4 -64 -4z"/>
<path d="M3354 818 l-19 -23 22 18 c12 11 27 16 34 11 8 -4 10 -3 5 4 -10 17
-21 15 -42 -10z"/>
</g>
</svg>
