<?xml version="1.0" encoding="UTF-8" standalone="no"?>
<svg
   version="1.0"
   width="883.000000pt"
   height="202.000000pt"
   viewBox="0 0 883.000000 202.000000"
   preserveAspectRatio="xMidYMid meet"
   id="svg431"
   sodipodi:docname="png-clipart-designer-design-angle-ribbon (2).svg"
   inkscape:version="1.2.1 (9c6d41e410, 2022-07-14)"
   xmlns:inkscape="http://www.inkscape.org/namespaces/inkscape"
   xmlns:sodipodi="http://sodipodi.sourceforge.net/DTD/sodipodi-0.dtd"
   xmlns="http://www.w3.org/2000/svg"
   xmlns:svg="http://www.w3.org/2000/svg">
  <defs
     id="defs435">
    <inkscape:perspective
       sodipodi:type="inkscape:persp3d"
       inkscape:vp_x="0 : 101 : 1"
       inkscape:vp_y="0 : 1000 : 0"
       inkscape:vp_z="883 : 101 : 1"
       inkscape:persp3d-origin="441.5 : 67.333333 : 1"
       id="perspective3686" />
    <inkscape:path-effect
       effect="bspline"
       id="path-effect3091"
       is_visible="true"
       lpeversion="1"
       weight="33.333333"
       steps="2"
       helper_size="0"
       apply_no_weight="true"
       apply_with_weight="true"
       only_selected="false" />
    <inkscape:path-effect
       effect="bspline"
       id="path-effect2886"
       is_visible="true"
       lpeversion="1"
       weight="33.333333"
       steps="2"
       helper_size="0"
       apply_no_weight="true"
       apply_with_weight="true"
       only_selected="false" />
    <inkscape:path-effect
       effect="bspline"
       id="path-effect2872"
       is_visible="true"
       lpeversion="1"
       weight="33.333333"
       steps="2"
       helper_size="0"
       apply_no_weight="true"
       apply_with_weight="true"
       only_selected="false" />
    <inkscape:path-effect
       effect="bspline"
       id="path-effect2864"
       is_visible="true"
       lpeversion="1"
       weight="33.333333"
       steps="2"
       helper_size="0"
       apply_no_weight="true"
       apply_with_weight="true"
       only_selected="false" />
    <inkscape:path-effect
       effect="bspline"
       id="path-effect2856"
       is_visible="true"
       lpeversion="1"
       weight="33.333333"
       steps="2"
       helper_size="0"
       apply_no_weight="true"
       apply_with_weight="true"
       only_selected="false" />
    <inkscape:path-effect
       effect="bspline"
       id="path-effect2852"
       is_visible="true"
       lpeversion="1"
       weight="33.333333"
       steps="2"
       helper_size="0"
       apply_no_weight="true"
       apply_with_weight="true"
       only_selected="false" />
  </defs>
  <sodipodi:namedview
     id="namedview433"
     pagecolor="#505050"
     bordercolor="#eeeeee"
     borderopacity="1"
     inkscape:showpageshadow="0"
     inkscape:pageopacity="0"
     inkscape:pagecheckerboard="0"
     inkscape:deskcolor="#d1d1d1"
     inkscape:document-units="pt"
     showgrid="false"
     showguides="false"
     inkscape:zoom="0.52066818"
     inkscape:cx="339.9478"
     inkscape:cy="34.570962"
     inkscape:window-width="1366"
     inkscape:window-height="745"
     inkscape:window-x="-8"
     inkscape:window-y="-8"
     inkscape:window-maximized="1"
     inkscape:current-layer="layer4" />
  <g
     inkscape:groupmode="layer"
     id="layer4"
     inkscape:label="Layer 1">
    <path
       id="rect3709"
       style="fill:#ddc9a7;stroke-width:0.75;fill-opacity:1"
       d="M 6.1918661,7.3183597 870.1958,10.850863 836.30506,95.354887 876.92751,183.09807 16.275063,194.48257 46.88477,96.759155 Z"
       sodipodi:nodetypes="ccccccc" />
  </g>
  <g
     transform="matrix(0.1,0,0,-0.1,0,202)"
     fill="#000000"
     stroke="none"
     id="g429"
     style="display:inline"
     sodipodi:insensitive="true">
    <path
       d="m 8466,1999 c 5,-16 -33,-17 -473,-18 -263,-1 -491,-3 -508,-5 -16,-1 -183,-4 -370,-6 -187,-1 -326,-6 -310,-10 17,-4 -88,-9 -235,-10 -146,-2 -281,-5 -300,-7 -39,-4 -1381,-9 -1745,-6 -274,2 -989,-2 -1130,-5 -55,-2 -102,-3 -105,-2 -18,4 -120,4 -120,0 0,-7 -119,-3 -138,5 -7,2 -10,0 -7,-5 3,-6 2,-10 -4,-10 -5,0 -14,8 -20,18 -9,16 -11,16 -24,-2 -12,-16 -17,-17 -38,-6 -22,12 -23,12 -10,-3 7,-10 9,-17 3,-17 -5,0 -15,7 -22,15 -10,12 -28,15 -67,13 -29,-2 -53,-7 -53,-12 0,-5 -8,-2 -17,6 -14,11 -45,14 -131,13 -61,0 -112,2 -112,5 0,3 -64,3 -142,0 -185,-8 -1027,-7 -1228,0 -146,5 -140,6 94,8 137,1 247,4 244,7 -6,7 -731,17 -1153,17 -363,-1 -353,0 -335,-12 8,-5 11,-10 5,-10 -16,0 32,-30 57,-34 12,-3 25,-5 28,-6 3,-1 13,-1 24,0 35,3 86,-11 86,-24 0,-8 7,-19 16,-27 13,-11 14,-9 8,15 -6,26 -5,27 21,24 22,-2 31,-11 39,-35 17,-48 30,-54 23,-10 l -6,39 107,-6 c 242,-14 287,-19 294,-30 6,-8 8,-7 8,2 0,17 231,17 248,0 9,-9 12,-9 12,1 0,11 21,13 102,8 57,-4 353,-10 658,-13 337,-4 557,-11 561,-17 4,-6 8,-5 10,1 5,12 80,19 97,8 7,-4 12,-2 12,3 0,13 1912,14 1920,1 3,-4 30,-4 60,1 69,11 253,8 262,-5 9,-13 80,-9 89,5 5,8 8,8 13,0 10,-16 115,-10 109,6 -5,14 36,14 54,0 7,-5 19,-5 28,0 19,11 75,5 75,-8 0,-6 30,-9 68,-8 37,1 61,4 55,6 -36,12 -3,21 82,22 59,1 95,-2 95,-9 0,-5 5,-10 11,-10 5,0 8,4 5,8 -3,5 15,9 40,9 24,1 44,-3 44,-8 0,-5 5,-9 11,-9 5,0 8,3 6,8 -3,4 6,8 19,8 20,2 23,-1 13,-12 -9,-11 -7,-14 14,-14 14,0 27,5 29,10 5,15 48,21 45,7 -1,-8 16,-13 47,-15 44,-3 48,-1 37,12 -12,14 -9,16 18,16 21,0 31,-5 31,-16 0,-13 13,-15 83,-13 90,3 110,7 101,20 -3,5 45,9 110,9 411,1 477,0 488,-6 7,-4 8,-3 4,4 -4,7 -3,12 3,12 5,0 12,-6 15,-12 4,-8 8,-9 11,-3 6,11 106,12 124,1 6,-4 11,-2 11,3 0,6 7,11 15,11 8,0 15,-3 15,-7 0,-9 135,-7 157,1 7,3 13,2 13,-3 0,-9 37,-8 46,2 12,12 26,8 18,-5 -6,-10 -5,-10 7,-1 12,10 18,10 29,0 10,-9 11,-9 6,1 -8,14 10,17 19,2 3,-6 15,-6 30,0 15,6 27,6 30,0 4,-6 13,-10 21,-10 8,0 13,4 10,8 -6,10 99,8 132,-2 12,-4 22,-3 22,2 0,10 1306,20 1393,11 9,-1 17,-10 17,-19 0,-9 5,-21 12,-28 7,-7 8,-12 3,-12 -6,0 -5,-4 1,-8 8,-5 9,-14 1,-32 -5,-14 -12,-34 -13,-45 -8,-42 -38,-96 -51,-91 -7,3 -13,-1 -13,-9 0,-8 -5,-15 -11,-15 -8,0 -7,-5 1,-15 11,-13 10,-14 -4,-9 -19,7 -22,-12 -3,-19 9,-4 8,-8 -3,-16 -8,-6 -10,-11 -5,-12 6,0 -1,-4 -15,-8 -15,-4 -24,-14 -24,-24 1,-9 -3,-14 -8,-11 -6,4 -8,-2 -3,-15 4,-15 1,-23 -10,-27 -13,-6 -14,-8 -3,-15 9,-6 10,-9 1,-9 -7,0 -19,-13 -28,-30 -9,-16 -12,-30 -9,-30 4,0 0,-8 -9,-17 -8,-10 -23,-38 -33,-63 -9,-25 -23,-54 -31,-65 -13,-19 -13,-19 -14,0 0,17 -2,16 -10,-5 -6,-13 -7,-35 -4,-47 3,-13 1,-23 -4,-23 -11,0 -56,-138 -48,-147 4,-3 11,5 16,18 9,22 10,22 12,4 1,-11 2,-26 2,-32 -1,-7 2,-11 6,-9 4,3 40,-64 80,-147 40,-84 84,-168 97,-187 13,-19 30,-54 38,-78 9,-24 24,-55 35,-68 29,-37 53,-118 56,-185 1,-51 -1,-59 -17,-59 -10,0 -18,7 -18,18 0,14 -2,15 -10,2 -13,-20 -13,-43 0,-35 6,3 10,-3 10,-14 0,-12 11,-27 28,-35 25,-14 15,-15 -133,-16 -182,-1 -338,-6 -715,-21 -280,-12 -741,-17 -2209,-24 -831,-4 -1221,-9 -1376,-20 -33,-2 -274,-7 -535,-10 -261,-3 -572,-7 -690,-10 -118,-3 -350,-7 -515,-11 -165,-3 -316,-8 -335,-10 -19,-2 -462,-7 -985,-10 -784,-4 -947,-3 -934,8 29,24 55,71 41,76 -14,4 -16,32 -2,32 6,0 6,9 0,26 -6,14 -7,23 -2,21 4,-3 12,1 19,8 10,10 9,16 -1,24 -11,10 -10,18 5,48 11,21 19,47 19,58 0,12 3,25 7,28 4,4 14,29 23,55 10,27 23,46 30,44 7,-2 10,3 7,12 -7,17 28,123 48,146 7,8 13,22 13,30 2,35 21,90 36,106 10,9 15,23 12,30 -3,8 -1,14 4,14 6,0 10,16 10,35 0,19 3,35 8,35 4,0 8,12 9,27 0,15 6,29 12,31 6,2 11,14 11,26 0,12 5,27 10,32 15,15 -2,55 -117,294 -55,113 -106,223 -113,245 -7,22 -16,42 -19,45 -3,3 -10,12 -16,21 -5,9 -31,47 -56,85 -25,38 -54,83 -63,101 -15,30 -51,63 -68,63 -15,0 -8,-48 8,-54 9,-4 14,-9 11,-13 -4,-3 -2,-12 4,-19 6,-7 8,-27 6,-43 -4,-24 -1,-31 11,-32 10,0 12,-3 5,-6 -9,-3 -5,-13 11,-30 14,-14 41,-69 62,-121 21,-53 46,-104 56,-114 10,-10 16,-23 14,-27 -3,-5 5,-25 19,-45 14,-20 25,-44 25,-52 0,-20 49,-104 61,-104 4,0 6,-6 3,-14 -3,-8 3,-19 14,-25 13,-7 18,-18 16,-29 -3,-10 4,-39 15,-65 l 21,-48 -24,-72 C 370,869 304,685 297,673 c -4,-6 -9,-27 -11,-46 -3,-19 -13,-52 -22,-73 -9,-22 -16,-45 -15,-53 1,-7 -1,-11 -6,-8 -4,3 -9,-7 -10,-21 0,-15 -6,-28 -12,-30 -5,-2 -8,-9 -5,-17 3,-7 1,-16 -5,-19 -6,-4 -8,-13 -4,-22 3,-8 -2,-23 -12,-34 -10,-11 -19,-34 -21,-51 -2,-18 -10,-40 -17,-48 -20,-23 -45,-94 -39,-110 3,-9 0,-11 -8,-6 -10,6 -10,3 -2,-10 7,-13 7,-26 -1,-42 -5,-13 -8,-26 -4,-29 19,-20 127,-26 507,-30 234,-2 455,-5 492,-7 37,-2 65,0 62,5 -3,4 -1,8 5,8 5,0 12,-4 16,-10 3,-6 15,-6 29,0 13,5 26,6 29,3 3,-3 111,-4 239,-3 128,1 269,2 312,2 43,-1 87,3 97,9 13,7 19,6 19,-2 0,-8 42,-9 148,-5 81,3 273,9 427,12 154,3 312,8 350,10 82,4 78,4 135,0 25,-1 53,2 64,7 11,5 22,5 28,-1 6,-6 20,-7 32,-3 11,3 35,5 51,4 55,-4 239,-3 390,2 226,7 639,15 1130,20 661,8 1099,14 1105,16 3,1 10,0 15,-1 35,-8 162,-5 174,4 8,6 12,6 9,1 -7,-11 128,-13 139,-1 10,10 83,7 83,-4 0,-5 11,-10 25,-10 14,0 25,4 25,9 0,6 34,8 78,7 42,-2 83,1 90,7 7,6 12,6 12,0 0,-5 23,-11 51,-12 28,-1 48,2 45,7 -2,4 4,9 15,9 11,1 17,-2 14,-8 -4,-5 -2,-9 4,-9 5,0 18,-3 28,-7 16,-6 16,-5 4,10 -9,12 -10,17 -2,17 6,0 14,-7 17,-15 4,-8 10,-15 16,-15 5,0 7,4 4,9 -3,5 1,12 10,15 8,3 13,2 10,-3 -3,-5 5,-9 19,-9 14,0 23,3 21,7 -2,3 7,7 21,8 16,0 21,-2 13,-7 -7,-5 -2,-7 15,-7 19,0 23,2 14,8 -10,6 -5,9 14,9 20,0 26,-4 21,-12 -4,-7 -4,-10 0,-6 5,4 19,2 33,-3 14,-5 30,-6 36,-2 7,4 3,9 -9,14 -18,7 -18,8 3,8 12,1 24,-5 27,-11 5,-10 7,-10 12,0 5,10 9,9 19,-5 7,-10 17,-14 21,-10 5,4 2,12 -6,17 -13,8 -12,10 2,10 9,0 18,-5 20,-10 5,-16 78,-15 88,1 5,8 21,15 35,16 22,2 25,-1 15,-13 -11,-12 -6,-14 28,-14 22,0 42,5 44,11 2,6 21,12 43,15 30,3 35,1 20,-5 -18,-9 -17,-10 7,-10 15,-1 30,-5 33,-11 7,-12 26,-14 24,-2 -5,29 3,33 77,31 42,-1 70,-5 64,-9 -20,-12 5,-21 39,-14 17,4 28,10 25,15 -10,17 49,9 62,-9 13,-16 14,-16 8,0 -8,23 5,23 22,1 7,-10 16,-14 20,-10 5,4 2,13 -6,18 -15,10 -5,9 77,-5 17,-3 20,0 16,12 -5,14 -3,14 16,-2 22,-20 22,-20 15,0 -7,19 -7,19 14,0 12,-11 25,-16 29,-12 4,4 1,11 -6,15 -9,6 -5,9 13,9 20,0 24,-4 16,-13 -8,-9 -4,-13 15,-13 26,1 34,13 13,21 -7,3 52,7 132,8 80,2 159,4 175,4 17,1 38,-2 47,-7 10,-5 19,-4 23,2 9,15 38,12 29,-2 -6,-10 -4,-10 7,-1 7,7 27,13 44,13 23,0 26,-3 15,-10 -13,-8 -13,-10 2,-10 9,0 18,5 20,10 3,11 278,27 411,25 42,-1 77,2 77,7 0,5 9,4 19,-2 16,-8 19,-7 17,13 -2,12 -17,52 -34,90 -17,37 -31,70 -31,72 -1,3 -19,43 -41,89 -22,46 -40,88 -40,93 0,6 -7,16 -15,23 -9,7 -14,19 -11,27 3,7 2,13 -3,13 -4,0 -14,19 -21,43 -8,23 -24,58 -35,77 -12,19 -26,46 -31,60 -5,14 -34,72 -64,130 -56,108 -80,169 -80,206 0,27 103,247 133,285 31,39 73,109 69,116 -2,4 3,10 11,15 8,4 21,30 28,57 7,28 17,47 22,44 5,-3 8,3 7,13 -4,38 0,55 12,48 6,-4 8,-3 5,3 -7,12 17,86 26,77 3,-3 3,3 1,14 -3,10 2,26 10,35 9,8 16,23 16,32 0,9 5,13 11,9 7,-4 10,-1 7,7 -3,8 -1,22 4,32 5,10 5,17 0,17 -5,0 -9,12 -9,28 0,15 2,21 4,15 3,-7 9,-13 14,-13 6,0 8,4 5,9 -4,5 0,11 6,14 10,3 10,7 0,20 -8,9 -20,13 -28,10 -7,-3 -17,2 -20,11 -3,9 -11,13 -16,10 -6,-4 -5,-10 3,-15 8,-5 -39,-9 -115,-9 -111,0 -131,2 -142,18 -12,14 -13,15 -8,1 z M 948,1953 c -16,-2 -40,-2 -55,0 -16,2 -3,4 27,4 30,0 43,-2 28,-4 z m 3872,-83 c 0,-5 -5,-10 -11,-10 -5,0 -7,5 -4,10 3,6 8,10 11,10 2,0 4,-4 4,-10 z m 304,2 c 2,-4 -7,-8 -20,-8 -13,-1 -24,1 -24,5 0,9 38,12 44,3 z M 7114,112 c 3,-5 -1,-9 -9,-9 -8,0 -15,4 -15,9 0,10 17,10 24,0 z m 146,-2 c 0,-5 -2,-10 -4,-10 -3,0 -8,5 -11,10 -3,6 -1,10 4,10 6,0 11,-4 11,-10 z"
       id="path223" />
    <path
       d="m 8490,2000 c 0,-5 5,-10 10,-10 6,0 10,5 10,10 0,6 -4,10 -10,10 -5,0 -10,-4 -10,-10 z"
       id="path225" />
    <path
       d="m 8548,1993 c 7,-3 16,-2 19,1 4,3 -2,6 -13,5 -11,0 -14,-3 -6,-6 z"
       id="path227" />
    <path
       d="m 1558,1963 c 12,-2 32,-2 45,0 12,2 2,4 -23,4 -25,0 -35,-2 -22,-4 z"
       id="path229" />
    <path
       d="m 110,1891 c 0,-6 4,-13 10,-16 6,-3 7,1 4,9 -7,18 -14,21 -14,7 z"
       id="path231" />
    <path
       d="m 408,1840 c 2,-17 9,-33 15,-37 6,-4 8,2 4,18 -4,13 -7,30 -7,37 0,6 -4,12 -8,12 -5,0 -7,-14 -4,-30 z"
       id="path233" />
    <path
       d="m 610,1854 c 0,-10 5,-26 10,-34 8,-11 9,-7 4,15 -8,37 -14,45 -14,19 z"
       id="path235" />
    <path
       d="m 5215,1860 c -4,-6 5,-10 20,-10 15,0 24,4 20,10 -3,6 -12,10 -20,10 -8,0 -17,-4 -20,-10 z"
       id="path237" />
    <path
       d="m 5400,1860 c 0,-5 5,-10 11,-10 5,0 7,5 4,10 -3,6 -8,10 -11,10 -2,0 -4,-4 -4,-10 z"
       id="path239" />
    <path
       d="m 5540,1860 c 0,-5 5,-10 11,-10 5,0 7,5 4,10 -3,6 -8,10 -11,10 -2,0 -4,-4 -4,-10 z"
       id="path241" />
    <path
       d="m 980,1841 c 0,-6 4,-13 10,-16 6,-3 7,1 4,9 -7,18 -14,21 -14,7 z"
       id="path243" />
    <path
       d="m 724,1816 c 3,-16 10,-34 16,-40 8,-8 10,-3 4,19 -9,41 -27,59 -20,21 z"
       id="path245" />
    <path
       d="m 2401,1824 c 0,-11 3,-14 6,-6 3,7 2,16 -1,19 -3,4 -6,-2 -5,-13 z"
       id="path247" />
    <path
       d="m 3570,1830 c -22,-7 -21,-8 12,-9 20,-1 40,4 43,9 7,12 -19,12 -55,0 z"
       id="path249" />
    <path
       d="m 6000,1830 c -9,-6 -10,-10 -3,-10 6,0 15,5 18,10 8,12 4,12 -15,0 z"
       id="path251" />
    <path
       d="m 6085,1830 c -3,-5 1,-10 9,-10 8,0 18,5 21,10 3,6 -1,10 -9,10 -8,0 -18,-4 -21,-10 z"
       id="path253" />
    <path
       d="m 5713,1823 c 9,-2 23,-2 30,0 6,3 -1,5 -18,5 -16,0 -22,-2 -12,-5 z"
       id="path255" />
    <path
       d="m 5773,1823 c 9,-2 25,-2 35,0 9,3 1,5 -18,5 -19,0 -27,-2 -17,-5 z"
       id="path257" />
    <path
       d="m 7440,1820 -45,-7 53,-1 c 33,-1 51,2 47,8 -3,6 -7,9 -8,8 -1,0 -22,-4 -47,-8 z"
       id="path259" />
    <path
       d="m 235,1810 c 3,-5 8,-10 11,-10 2,0 4,5 4,10 0,6 -5,10 -11,10 -5,0 -7,-4 -4,-10 z"
       id="path261" />
    <path
       d="m 820,1810 c 0,-5 5,-10 10,-10 6,0 10,5 10,10 0,6 -4,10 -10,10 -5,0 -10,-4 -10,-10 z"
       id="path263" />
    <path
       d="m 7110,1810 c 0,-5 5,-10 10,-10 6,0 10,5 10,10 0,6 -4,10 -10,10 -5,0 -10,-4 -10,-10 z"
       id="path265" />
    <path
       d="m 7155,1810 c 4,-6 11,-8 16,-5 14,9 11,15 -7,15 -8,0 -12,-5 -9,-10 z"
       id="path267" />
    <path
       d="m 7270,1811 c 14,-5 45,-5 70,-1 41,7 39,8 -25,8 -47,0 -62,-2 -45,-7 z"
       id="path269" />
    <path
       d="m 321,1780 c 6,-16 15,-30 20,-30 11,0 11,3 -1,34 -14,37 -32,33 -19,-4 z"
       id="path271" />
    <path
       d="m 6850,1806 c 0,-9 30,-14 35,-6 4,6 -3,10 -14,10 -12,0 -21,-2 -21,-4 z"
       id="path273" />
    <path
       d="m 6978,1803 c 6,-2 18,-2 25,0 6,3 1,5 -13,5 -14,0 -19,-2 -12,-5 z"
       id="path275" />
    <path
       d="m 8616,1797 c 3,-10 9,-15 12,-12 3,3 0,11 -7,18 -10,9 -11,8 -5,-6 z"
       id="path277" />
    <path
       d="m 895,1790 c 3,-5 8,-10 11,-10 2,0 4,5 4,10 0,6 -5,10 -11,10 -5,0 -7,-4 -4,-10 z"
       id="path279" />
    <path
       d="m 1981,1743 c 1,-62 6,-56 11,15 2,23 0,42 -4,42 -5,0 -7,-26 -7,-57 z"
       id="path281" />
    <path
       d="m 2023,1745 c 0,-33 2,-45 4,-27 2,18 2,45 0,60 -2,15 -4,0 -4,-33 z"
       id="path283" />
    <path
       d="m 426,1755 c 10,-58 25,-80 18,-25 -4,25 -11,50 -16,55 -6,6 -7,-5 -2,-30 z"
       id="path285" />
    <path
       d="m 627,1754 c 3,-21 10,-43 15,-49 6,-6 7,5 3,30 -10,52 -26,70 -18,19 z"
       id="path287" />
    <path
       d="m 2202,1765 c 0,-16 2,-22 5,-12 2,9 2,23 0,30 -3,6 -5,-1 -5,-18 z"
       id="path289" />
    <path
       d="m 3468,1783 c 7,-3 16,-2 19,1 4,3 -2,6 -13,5 -11,0 -14,-3 -6,-6 z"
       id="path291" />
    <path
       d="m 530,1775 c 0,-5 5,-17 10,-25 5,-8 10,-10 10,-5 0,6 -5,17 -10,25 -5,8 -10,11 -10,5 z"
       id="path293" />
    <path
       d="m 835,1770 c 3,-5 8,-10 11,-10 2,0 4,5 4,10 0,6 -5,10 -11,10 -5,0 -7,-4 -4,-10 z"
       id="path295" />
    <path
       d="m 2472,1755 c 0,-16 2,-22 5,-12 2,9 2,23 0,30 -3,6 -5,-1 -5,-18 z"
       id="path297" />
    <path
       d="m 210,1729 c 12,-23 24,-39 26,-36 8,8 -24,77 -36,77 -6,0 -1,-18 10,-41 z"
       id="path299" />
    <path
       d="m 254,1757 c 3,-10 6,-23 6,-28 0,-5 5,-9 10,-9 14,0 12,13 -6,36 -14,17 -15,17 -10,1 z"
       id="path301" />
    <path
       d="m 3641,1760 c -18,-11 0,-19 23,-10 16,5 17,8 4,12 -8,4 -21,3 -27,-2 z"
       id="path303" />
    <path
       d="m 2262,1730 c 0,-19 2,-27 5,-17 2,9 2,25 0,35 -3,9 -5,1 -5,-18 z"
       id="path305" />
    <path
       d="m 342,1720 c 7,-10 14,-18 15,-16 6,6 -9,36 -18,36 -5,0 -4,-9 3,-20 z"
       id="path307" />
    <path
       d="m 1905,1730 c -3,-5 -1,-10 4,-10 6,0 11,5 11,10 0,6 -2,10 -4,10 -3,0 -8,-4 -11,-10 z"
       id="path309" />
    <path
       d="m 2442,1720 c 0,-14 2,-19 5,-12 2,6 2,18 0,25 -3,6 -5,1 -5,-13 z"
       id="path311" />
    <path
       d="m 840,1721 c 0,-6 5,-13 10,-16 6,-3 10,1 10,9 0,9 -4,16 -10,16 -5,0 -10,-4 -10,-9 z"
       id="path313" />
    <path
       d="m 6560,1719 c 0,-5 5,-7 10,-4 6,3 10,8 10,11 0,2 -4,4 -10,4 -5,0 -10,-5 -10,-11 z"
       id="path315"
       inkscape:label="path315" />
    <path
       d="m 550,1710 c 0,-19 32,-90 41,-90 13,0 12,5 -11,56 -20,43 -30,54 -30,34 z"
       id="path317" />
    <path
       d="m 770,1695 c 7,-9 15,-13 17,-11 7,7 -7,26 -19,26 -6,0 -6,-6 2,-15 z"
       id="path319" />
    <path
       d="m 7240,1706 c 0,-2 7,-7 16,-10 8,-3 12,-2 9,4 -6,10 -25,14 -25,6 z"
       id="path321" />
    <path
       d="m 490,1693 c 0,-4 5,-15 10,-23 8,-13 10,-13 10,2 0,9 -4,20 -10,23 -5,3 -10,3 -10,-2 z"
       id="path323" />
    <path
       d="m 357,1660 c 7,-25 23,-37 23,-17 0,8 -6,20 -14,26 -12,10 -13,8 -9,-9 z"
       id="path325" />
    <path
       d="m 440,1671 c 0,-5 5,-13 10,-16 6,-3 10,-2 10,4 0,5 -4,13 -10,16 -5,3 -10,2 -10,-4 z"
       id="path327" />
    <path
       d="m 2171,1664 c 0,-11 3,-14 6,-6 3,7 2,16 -1,19 -3,4 -6,-2 -5,-13 z"
       id="path329" />
    <path
       d="m 2222,1660 c 0,-14 2,-19 5,-12 2,6 2,18 0,25 -3,6 -5,1 -5,-13 z"
       id="path331" />
    <path
       d="m 645,1660 c 3,-5 8,-10 11,-10 2,0 4,5 4,10 0,6 -5,10 -11,10 -5,0 -7,-4 -4,-10 z"
       id="path333" />
    <path
       d="m 780,1650 c 0,-5 7,-10 16,-10 8,0 12,5 9,10 -3,6 -10,10 -16,10 -5,0 -9,-4 -9,-10 z"
       id="path335" />
    <path
       d="m 2662,1635 c 0,-16 2,-22 5,-12 2,9 2,23 0,30 -3,6 -5,-1 -5,-18 z"
       id="path337" />
    <path
       d="m 850,1640 c 0,-5 5,-10 11,-10 5,0 7,5 4,10 -3,6 -8,10 -11,10 -2,0 -4,-4 -4,-10 z"
       id="path339" />
    <path
       d="m 447,1620 c 3,-11 10,-23 16,-27 7,-4 8,0 4,11 -4,10 -7,22 -7,27 0,5 -4,9 -9,9 -5,0 -7,-9 -4,-20 z"
       id="path341" />
    <path
       d="m 653,1612 c 1,-19 5,-36 9,-38 10,-7 9,26 -2,51 -7,16 -9,14 -7,-13 z"
       id="path343" />
    <path
       d="m 2615,1629 c -4,-6 -5,-12 -2,-15 2,-3 7,2 10,11 7,17 1,20 -8,4 z"
       id="path345" />
    <path
       d="m 3368,1623 c 7,-3 16,-2 19,1 4,3 -2,6 -13,5 -11,0 -14,-3 -6,-6 z"
       id="path347" />
    <path
       d="m 3428,1623 c 6,-2 18,-2 25,0 6,3 1,5 -13,5 -14,0 -19,-2 -12,-5 z"
       id="path349" />
    <path
       d="m 7475,1610 c 3,-5 8,-10 11,-10 2,0 4,5 4,10 0,6 -5,10 -11,10 -5,0 -7,-4 -4,-10 z"
       id="path351" />
    <path
       d="m 8255,1565 c -10,-33 -26,-85 -35,-115 -22,-67 -33,-120 -27,-120 3,0 15,33 27,73 11,39 30,100 41,135 11,34 19,68 16,75 -2,7 -12,-15 -22,-48 z"
       id="path353" />
    <path
       d="m 590,1600 c 0,-5 5,-10 11,-10 5,0 7,5 4,10 -3,6 -8,10 -11,10 -2,0 -4,-4 -4,-10 z"
       id="path355" />
    <path
       d="m 8382,1582 c -24,-64 -32,-88 -46,-142 -8,-30 -22,-80 -31,-110 -9,-30 -18,-64 -20,-75 -2,-11 -7,-28 -11,-39 -5,-14 -3,-17 7,-14 8,3 15,13 17,24 2,10 14,55 27,99 50,164 76,266 73,277 -2,6 -10,-3 -16,-20 z"
       id="path357"
       inkscape:label="path357" />
    <path
       d="m 865,1590 c 3,-5 11,-10 16,-10 6,0 7,5 4,10 -3,6 -11,10 -16,10 -6,0 -7,-4 -4,-10 z"
       id="path359" />
    <path
       d="m 8451,1583 c -1,-6 -4,-20 -7,-30 -5,-17 -5,-17 6,0 6,10 9,23 6,30 -3,9 -5,9 -5,0 z"
       id="path361" />
    <path
       d="m 595,1570 c 3,-5 8,-10 11,-10 2,0 4,5 4,10 0,6 -5,10 -11,10 -5,0 -7,-4 -4,-10 z"
       id="path363" />
    <path
       d="m 810,1556 c 0,-9 5,-16 10,-16 6,0 10,4 10,9 0,6 -4,13 -10,16 -5,3 -10,-1 -10,-9 z"
       id="path365" />
    <path
       d="m 3160,1560 c 0,-5 4,-10 9,-10 6,0 13,5 16,10 3,6 -1,10 -9,10 -9,0 -16,-4 -16,-10 z"
       id="path367" />
    <path
       d="m 2601,1544 c 0,-11 3,-14 6,-6 3,7 2,16 -1,19 -3,4 -6,-2 -5,-13 z"
       id="path369" />
    <path
       d="m 460,1540 c 0,-5 5,-10 11,-10 5,0 7,5 4,10 -3,6 -8,10 -11,10 -2,0 -4,-4 -4,-10 z"
       id="path371" />
    <path
       d="m 607,1543 c -3,-5 0,-19 8,-29 15,-20 18,-11 6,20 -4,11 -10,15 -14,9 z"
       id="path373" />
    <path
       d="m 2451,1534 c 0,-11 3,-14 6,-6 3,7 2,16 -1,19 -3,4 -6,-2 -5,-13 z"
       id="path375" />
    <path
       d="m 7871,1534 c 0,-11 3,-14 6,-6 3,7 2,16 -1,19 -3,4 -6,-2 -5,-13 z"
       id="path377" />
    <path
       d="m 660,1533 c 0,-4 5,-15 10,-23 8,-13 10,-13 10,2 0,9 -4,20 -10,23 -5,3 -10,3 -10,-2 z"
       id="path379" />
    <path
       d="m 410,1501 c 0,-5 5,-13 10,-16 6,-3 10,-2 10,4 0,5 -4,13 -10,16 -5,3 -10,2 -10,-4 z"
       id="path381" />
    <path
       d="m 8418,1475 c -3,-14 -1,-25 3,-25 5,0 9,11 9,25 0,14 -2,25 -4,25 -2,0 -6,-11 -8,-25 z"
       id="path383" />
    <path
       d="m 825,1480 c 3,-5 11,-10 16,-10 6,0 7,5 4,10 -3,6 -11,10 -16,10 -6,0 -7,-4 -4,-10 z"
       id="path385" />
    <path
       d="m 8146,1475 c -9,-26 -7,-32 5,-12 6,10 9,21 6,23 -2,3 -7,-2 -11,-11 z"
       id="path387" />
    <path
       d="m 7840,1461 c 0,-5 5,-13 10,-16 6,-3 10,-2 10,4 0,5 -4,13 -10,16 -5,3 -10,2 -10,-4 z"
       id="path389" />
    <path
       d="m 8266,1445 c -9,-26 -7,-32 5,-12 6,10 9,21 6,23 -2,3 -7,-2 -11,-11 z"
       id="path391" />
    <path
       d="m 675,1420 c 3,-5 8,-10 11,-10 2,0 4,5 4,10 0,6 -5,10 -11,10 -5,0 -7,-4 -4,-10 z"
       id="path393" />
    <path
       d="m 7831,1394 c 0,-11 3,-14 6,-6 3,7 2,16 -1,19 -3,4 -6,-2 -5,-13 z"
       id="path395" />
    <path
       d="m 8161,1384 c 0,-11 3,-14 6,-6 3,7 2,16 -1,19 -3,4 -6,-2 -5,-13 z"
       id="path397" />
    <path
       d="m 8386,1364 c -4,-14 -5,-28 -3,-31 3,-2 8,8 11,23 4,14 5,28 3,31 -3,2 -8,-8 -11,-23 z"
       id="path399" />
    <path
       d="m 420,1324 c 0,-13 18,-39 24,-34 2,3 -2,14 -10,24 -8,11 -14,16 -14,10 z"
       id="path401"
       inkscape:label="path401" />
    <path
       d="m 8227,1311 c -4,-17 -3,-21 5,-13 5,5 8,16 6,23 -3,8 -7,3 -11,-10 z"
       id="path403" />
    <path
       d="m 8176,1308 c -13,-41 -17,-72 -8,-63 12,12 26,75 17,75 -3,0 -7,-6 -9,-12 z"
       id="path405" />
    <path
       d="m 8371,1313 c -1,-6 -4,-20 -7,-30 -5,-17 -5,-17 6,0 6,10 9,23 6,30 -3,9 -5,9 -5,0 z"
       id="path407" />
    <path
       d="m 8197,1214 c -4,-4 -7,-17 -7,-28 1,-19 1,-20 11,-3 11,19 8,43 -4,31 z"
       id="path409" />
    <path
       d="m 8146,1195 c -3,-8 -1,-15 4,-15 6,0 10,7 10,15 0,8 -2,15 -4,15 -2,0 -6,-7 -10,-15 z"
       id="path411" />
    <path
       d="m 8257,1163 c -3,-16 -3,-30 -1,-33 7,-7 24,23 24,43 0,27 -17,20 -23,-10 z"
       id="path413" />
    <path
       d="m 8247,1104 c -4,-4 -7,-14 -7,-23 0,-11 3,-12 11,-4 6,6 10,16 7,23 -2,6 -7,8 -11,4 z"
       id="path415" />
    <path
       d="m 530,1091 c 0,-6 4,-13 10,-16 6,-3 7,1 4,9 -7,18 -14,21 -14,7 z"
       id="path417" />
    <path
       d="m 8235,1049 c -4,-6 -5,-12 -2,-15 2,-3 7,2 10,11 7,17 1,20 -8,4 z"
       id="path419" />
    <path
       d="m 8350,500 c 0,-5 5,-10 11,-10 5,0 7,5 4,10 -3,6 -8,10 -11,10 -2,0 -4,-4 -4,-10 z"
       id="path421" />
    <path
       d="m 8411,464 c 0,-11 3,-14 6,-6 3,7 2,16 -1,19 -3,4 -6,-2 -5,-13 z"
       id="path423" />
    <path
       d="m 8615,370 c 3,-5 8,-10 11,-10 2,0 4,5 4,10 0,6 -5,10 -11,10 -5,0 -7,-4 -4,-10 z"
       id="path425" />
    <path
       d="m 7973,113 c 9,-2 23,-2 30,0 6,3 -1,5 -18,5 -16,0 -22,-2 -12,-5 z"
       id="path427" />
  </g>
</svg>
